SplineFontDB: 3.2
FontName: NotoSansHebrew-Light
FullName: Noto Sans Hebrew Light
FamilyName: Noto Sans Hebrew Light
Weight: Light
Copyright: Copyright 2024 The Noto Project Authors (https://github.com/notofonts/hebrew)
Version: 3.001
ItalicAngle: 0
UnderlinePosition: -125
UnderlineWidth: 50
Ascent: 800
Descent: 200
InvalidEm: 0
sfntRevision: 0x00030042
LayerCount: 2
Layer: 0 1 "Back" 1
Layer: 1 1 "Fore" 0
XUID: [1021 475 -824446587 3621660]
StyleMap: 0x0040
FSType: 0
OS2Version: 4
OS2_WeightWidthSlopeOnly: 0
OS2_UseTypoMetrics: 1
CreationTime: 1640134884
ModificationTime: 1717421775
PfmFamily: 81
TTFWeight: 300
TTFWidth: 5
LineGap: 0
VLineGap: 0
Panose: 0 0 0 0 0 0 0 0 0 0
OS2TypoAscent: 1068
OS2TypoAOffset: 0
OS2TypoDescent: -292
OS2TypoDOffset: 0
OS2TypoLinegap: 0
OS2WinAscent: 1068
OS2WinAOffset: 0
OS2WinDescent: 292
OS2WinDOffset: 0
HheadAscent: 1068
HheadAOffset: 0
HheadDescent: -292
HheadDOffset: 0
OS2SubXSize: 650
OS2SubYSize: 600
OS2SubXOff: 0
OS2SubYOff: 75
OS2SupXSize: 650
OS2SupYSize: 600
OS2SupXOff: 0
OS2SupYOff: 350
OS2StrikeYSize: 50
OS2StrikeYPos: 322
OS2CapHeight: 714
OS2XHeight: 536
OS2Vendor: 'GOOG'
OS2CodePages: 00000033.00000000
OS2UnicodeRanges: 80000803.40002002.00000000.00000000
Lookup: 1 0 0 "'aalt' Access All Alternates lookup 0" { "'aalt' Access All Alternates lookup 0 subtable"  } ['aalt' ('DFLT' <'dflt' > 'cyrl' <'dflt' > 'grek' <'dflt' > 'hebr' <'dflt' > 'latn' <'MOL ' 'ROM ' 'dflt' > ) ]
Lookup: 4 0 0 "'dlig' Discretionary Ligatures lookup 1" { "'dlig' Discretionary Ligatures lookup 1 subtable"  } ['dlig' ('DFLT' <'dflt' > 'cyrl' <'dflt' > 'grek' <'dflt' > 'hebr' <'dflt' > 'latn' <'MOL ' 'ROM ' 'dflt' > ) ]
Lookup: 4 0 0 "'ccmp' Glyph Composition/Decomposition lookup 2" { "'ccmp' Glyph Composition/Decomposition lookup 2 subtable"  } ['ccmp' ('DFLT' <'dflt' > 'cyrl' <'dflt' > 'grek' <'dflt' > 'hebr' <'dflt' > 'latn' <'MOL ' 'ROM ' 'dflt' > ) ]

StartChar: .notdef
Encoding: 65536 -1 0
Width: 500
GlyphClass: 1
Flags: W
LayerCount: 2
Fore
SplineSet
50 -292 m 1,0,-1
 50 1068 l 1,1,-1
 450 1068 l 1,2,-1
 450 -292 l 1,3,-1
 50 -292 l 1,0,-1
100 -242 m 1,4,-1
 400 -242 l 1,5,-1
 400 1018 l 1,6,-1
 100 1018 l 1,7,-1
 100 -242 l 1,4,-1
EndSplineSet
EndChar

StartChar: uni05D0
Encoding: 1488 1488 3
Width: 613
GlyphClass: 2
Flags: W
AnchorPoint: "Anchor-4" 73 533 basechar 0
AnchorPoint: "Anchor-3" 311 533 basechar 0
AnchorPoint: "Anchor-2" 275 119 basechar 0
AnchorPoint: "Anchor-1" 130 0 basechar 0
AnchorPoint: "Anchor-0" 296 0 basechar 0
LayerCount: 2
Fore
SplineSet
498 0 m 1,0,1
 455 75 455 75 407 146.5 c 128,-1,2
 359 218 359 218 312 282 c 128,-1,3
 265 346 265 346 223 397 c 0,4,5
 195 431 195 431 172 459.5 c 128,-1,6
 149 488 149 488 129.5 512 c 128,-1,7
 110 536 110 536 94 555 c 128,-1,8
 78 574 78 574 65 589 c 1,9,-1
 144 589 l 1,10,11
 162 568 162 568 182 543 c 128,-1,12
 202 518 202 518 228 486 c 128,-1,13
 254 454 254 454 288 411 c 0,14,15
 330 357 330 357 379.5 289.5 c 128,-1,16
 429 222 429 222 479 148 c 128,-1,17
 529 74 529 74 573 0 c 1,18,-1
 498 0 l 1,0,1
40 0 m 1,19,-1
 64 168 l 2,20,21
 72 228 72 228 89.5 276 c 128,-1,22
 107 324 107 324 139 360.5 c 128,-1,23
 171 397 171 397 223 421 c 1,24,-1
 247 377 l 1,25,26
 209 357 209 357 185.5 326.5 c 128,-1,27
 162 296 162 296 149.5 256.5 c 128,-1,28
 137 217 137 217 129 168 c 2,29,-1
 105 0 l 1,30,-1
 40 0 l 1,19,-1
390 247 m 1,31,-1
 366 290 l 1,32,33
 406 311 406 311 432 340.5 c 128,-1,34
 458 370 458 370 473 409.5 c 128,-1,35
 488 449 488 449 491 498 c 2,36,-1
 500 589 l 1,37,-1
 566 589 l 1,38,-1
 557 498 l 2,39,40
 552 438 552 438 532.5 390.5 c 128,-1,41
 513 343 513 343 477.5 307.5 c 128,-1,42
 442 272 442 272 390 247 c 1,31,-1
EndSplineSet
PairPos2: "'kern' Horizontal Kerning in Hebrew lookup 2 per glyph data 2" uni05E9 dx=-20 dy=0 dh=-20 dv=0 dx=0 dy=0 dh=0 dv=0
PairPos2: "'kern' Horizontal Kerning in Hebrew lookup 2 per glyph data 2" uni05E4 dx=-20 dy=0 dh=-20 dv=0 dx=0 dy=0 dh=0 dv=0
PairPos2: "'kern' Horizontal Kerning in Hebrew lookup 2 per glyph data 2" uni05DC dx=-8 dy=0 dh=-8 dv=0 dx=0 dy=0 dh=0 dv=0
PairPos2: "'kern' Horizontal Kerning in Hebrew lookup 2 per glyph data 2" uni05DB dx=-3 dy=0 dh=-3 dv=0 dx=0 dy=0 dh=0 dv=0
PairPos2: "'kern' Horizontal Kerning in Hebrew lookup 2 per glyph data 1" uni05D9 dx=-20 dy=0 dh=-20 dv=0 dx=0 dy=0 dh=0 dv=0
PairPos2: "'kern' Horizontal Kerning in Hebrew lookup 2 per glyph data 1" uni05E7 dx=-10 dy=0 dh=-10 dv=0 dx=0 dy=0 dh=0 dv=0
EndChar

StartChar: uniFB4F
Encoding: 64335 64335 5
Width: 611
GlyphClass: 3
LigCaretCntFixed: 1
Flags: W
LayerCount: 2
Fore
SplineSet
493 0 m 1,0,1
 450 75 450 75 401.5 146.5 c 128,-1,2
 353 218 353 218 306 281.5 c 128,-1,3
 259 345 259 345 217 397 c 0,4,5
 177 447 177 447 151 479 c 128,-1,6
 125 511 125 511 104 534 c 1,7,-1
 17 534 l 1,8,-1
 17 752 l 1,9,-1
 83 760 l 1,10,-1
 83 589 l 1,11,-1
 138 589 l 1,12,13
 157 568 157 568 177 543 c 128,-1,14
 197 518 197 518 223 486 c 128,-1,15
 249 454 249 454 283 411 c 0,16,17
 303 386 303 386 325 357 c 128,-1,18
 347 328 347 328 370 295 c 1,19,20
 407 317 407 317 430.5 346 c 128,-1,21
 454 375 454 375 468 413 c 128,-1,22
 482 451 482 451 486 498 c 2,23,-1
 494 589 l 1,24,-1
 560 589 l 1,25,-1
 552 498 l 2,26,27
 547 440 547 440 529 394 c 128,-1,28
 511 348 511 348 479 313.5 c 128,-1,29
 447 279 447 279 400 253 c 1,30,31
 443 193 443 193 486 129 c 128,-1,32
 529 65 529 65 568 0 c 1,33,-1
 493 0 l 1,0,1
EndSplineSet
Ligature2: "'dlig' Discretionary Ligatures lookup 1 subtable" uni05D0 uni05DC
LCarets2: 1 306
EndChar

StartChar: uniFB29
Encoding: 64297 64297 8
Width: 569
GlyphClass: 1
Flags: W
LayerCount: 2
Fore
SplineSet
308 385 m 1,0,-1
 518 385 l 1,1,-1
 518 339 l 1,2,-1
 51 339 l 1,3,-1
 51 385 l 1,4,-1
 261 385 l 1,5,-1
 261 595 l 1,6,-1
 308 595 l 1,7,-1
 308 385 l 1,0,-1
EndSplineSet
EndChar

StartChar: uni05A2
Encoding: 1442 1442 9
Width: 0
GlyphClass: 4
Flags: W
AnchorPoint: "Anchor-1" 122 0 mark 0
LayerCount: 2
Fore
SplineSet
105 -210 m 1,0,-1
 105 -167 l 1,1,2
 81 -163 81 -163 68.5 -146.5 c 128,-1,3
 56 -130 56 -130 56 -98 c 2,4,-1
 56 -79 l 1,5,-1
 87 -79 l 1,6,-1
 87 -98 l 2,7,8
 87 -119 87 -119 95 -129 c 128,-1,9
 103 -139 103 -139 122 -139 c 0,10,11
 140 -139 140 -139 148 -129 c 128,-1,12
 156 -119 156 -119 156 -98 c 2,13,-1
 156 -79 l 1,14,-1
 186 -79 l 1,15,-1
 186 -98 l 2,16,17
 186 -130 186 -130 174 -146 c 128,-1,18
 162 -162 162 -162 137 -167 c 1,19,-1
 137 -210 l 1,20,-1
 105 -210 l 1,0,-1
EndSplineSet
EndChar

StartChar: uni05E2
Encoding: 1506 1506 10
Width: 577
GlyphClass: 2
Flags: W
AnchorPoint: "Anchor-4" 39 533 basechar 0
AnchorPoint: "Anchor-3" 294 533 basechar 0
AnchorPoint: "Anchor-2" 318 337 basechar 0
AnchorPoint: "Anchor-1" 4 0 basechar 0
AnchorPoint: "Anchor-0" 278 0 basechar 0
LayerCount: 2
Fore
SplineSet
42 -34 m 1,0,-1
 41 20 l 1,1,-1
 227 65 l 2,2,3
 275 77 275 77 313.5 97 c 128,-1,4
 352 117 352 117 380.5 156 c 128,-1,5
 409 195 409 195 426 264 c 128,-1,6
 443 333 443 333 449 444 c 2,7,-1
 457 589 l 1,8,-1
 523 589 l 1,9,-1
 515 446 l 2,10,11
 511 354 511 354 498 286.5 c 128,-1,12
 485 219 485 219 462 172 c 128,-1,13
 439 125 439 125 406 94 c 128,-1,14
 373 63 373 63 329 43 c 128,-1,15
 285 23 285 23 229 10 c 2,16,-1
 42 -34 l 1,0,-1
205 36 m 1,17,-1
 67 584 l 1,18,-1
 131 594 l 1,19,-1
 245 142 l 2,20,21
 249 127 249 127 248.5 109 c 128,-1,22
 248 91 248 91 243.5 72.5 c 128,-1,23
 239 54 239 54 231 36 c 1,24,-1
 205 36 l 1,17,-1
EndSplineSet
PairPos2: "'kern' Horizontal Kerning in Hebrew lookup 2 per glyph data 2" uni05D8 dx=-4 dy=0 dh=-4 dv=0 dx=0 dy=0 dh=0 dv=0
PairPos2: "'kern' Horizontal Kerning in Hebrew lookup 2 per glyph data 2" uni05E1 dx=-31 dy=0 dh=-31 dv=0 dx=0 dy=0 dh=0 dv=0
EndChar

StartChar: uniFB20
Encoding: 64288 64288 11
Width: 565
GlyphClass: 2
Flags: W
AnchorPoint: "Anchor-4" 57 533 basechar 0
AnchorPoint: "Anchor-3" 309 533 basechar 0
AnchorPoint: "Anchor-1" 18 0 basechar 0
AnchorPoint: "Anchor-0" 289 0 basechar 0
LayerCount: 2
Fore
SplineSet
38 -1 m 1,0,-1
 37 54 l 1,1,-1
 223 55 l 2,2,3
 272 55 272 55 311 75 c 128,-1,4
 350 95 350 95 377.5 139 c 128,-1,5
 405 183 405 183 422 258 c 128,-1,6
 439 333 439 333 445 444 c 2,7,-1
 453 589 l 1,8,-1
 519 589 l 1,9,-1
 511 446 l 2,10,11
 507 354 507 354 494.5 282 c 128,-1,12
 482 210 482 210 459.5 157 c 128,-1,13
 437 104 437 104 404 69 c 128,-1,14
 371 34 371 34 327 17 c 128,-1,15
 283 0 283 0 225 0 c 2,16,-1
 38 -1 l 1,0,-1
202 32 m 1,17,-1
 63 584 l 1,18,-1
 127 594 l 1,19,-1
 241 142 l 2,20,21
 247 119 247 119 243.5 88.5 c 128,-1,22
 240 58 240 58 228 32 c 1,23,-1
 202 32 l 1,17,-1
EndSplineSet
EndChar

StartChar: uni05D1
Encoding: 1489 1489 12
Width: 562
GlyphClass: 2
Flags: W
AnchorPoint: "Anchor-4" 37 533 basechar 0
AnchorPoint: "Anchor-3" 221 533 basechar 0
AnchorPoint: "Anchor-2" 214 298 basechar 0
AnchorPoint: "Anchor-1" 37 0 basechar 0
AnchorPoint: "Anchor-0" 264 0 basechar 0
LayerCount: 2
Fore
SplineSet
380 0 m 1,0,-1
 380 408 l 2,1,2
 380 472 380 472 350 503 c 128,-1,3
 320 534 320 534 259 534 c 2,4,-1
 75 534 l 1,5,-1
 83 589 l 1,6,-1
 264 589 l 2,7,8
 354 589 354 589 400 544 c 128,-1,9
 446 499 446 499 446 411 c 2,10,-1
 446 45 l 2,11,12
 444 32 444 32 437 21.5 c 128,-1,13
 430 11 430 11 420 0 c 1,14,-1
 380 0 l 1,0,-1
45 0 m 1,15,-1
 45 55 l 1,16,-1
 519 55 l 1,17,-1
 511 0 l 1,18,-1
 45 0 l 1,15,-1
EndSplineSet
PairPos2: "'kern' Horizontal Kerning in Hebrew lookup 2 per glyph data 2" uni05E1 dx=-36 dy=0 dh=-36 dv=0 dx=0 dy=0 dh=0 dv=0
PairPos2: "'kern' Horizontal Kerning in Hebrew lookup 2 per glyph data 2" uni05E8 dx=-31 dy=0 dh=-31 dv=0 dx=0 dy=0 dh=0 dv=0
PairPos2: "'kern' Horizontal Kerning in Hebrew lookup 2 per glyph data 2" uni05E4 dx=-36 dy=0 dh=-36 dv=0 dx=0 dy=0 dh=0 dv=0
PairPos2: "'kern' Horizontal Kerning in Hebrew lookup 2 per glyph data 2" uni05DA dx=-24 dy=0 dh=-24 dv=0 dx=0 dy=0 dh=0 dv=0
PairPos2: "'kern' Horizontal Kerning in Hebrew lookup 2 per glyph data 2" uni05D3 dx=-16 dy=0 dh=-16 dv=0 dx=0 dy=0 dh=0 dv=0
EndChar

StartChar: uni05BC
Encoding: 1468 1468 15
Width: 0
GlyphClass: 4
Flags: W
AnchorPoint: "Anchor-2" 77 298 mark 0
LayerCount: 2
Fore
SplineSet
78 272 m 0,0,1
 67 272 67 272 59.5 279.5 c 128,-1,2
 52 287 52 287 52 298 c 0,3,4
 52 308 52 308 59.5 315.5 c 128,-1,5
 67 323 67 323 78 323 c 0,6,7
 88 323 88 323 95.5 315.5 c 128,-1,8
 103 308 103 308 103 298 c 0,9,10
 103 287 103 287 95.5 279.5 c 128,-1,11
 88 272 88 272 78 272 c 0,0,1
EndSplineSet
EndChar

StartChar: uni05D3
Encoding: 1491 1491 16
Width: 529
GlyphClass: 2
Flags: W
AnchorPoint: "Anchor-4" 5 533 basechar 0
AnchorPoint: "Anchor-3" 250 533 basechar 0
AnchorPoint: "Anchor-2" 170 298 basechar 0
AnchorPoint: "Anchor-1" 139 0 basechar 0
AnchorPoint: "Anchor-0" 365 0 basechar 0
LayerCount: 2
Fore
SplineSet
39 534 m 1,0,-1
 39 589 l 1,1,-1
 495 589 l 1,2,-1
 486 534 l 1,3,-1
 39 534 l 1,0,-1
332 0 m 1,4,-1
 332 472 l 2,5,6
 332 483 332 483 334.5 495.5 c 128,-1,7
 337 508 337 508 342 519 c 128,-1,8
 347 530 347 530 355 534 c 1,9,-1
 407 534 l 1,10,11
 402 527 402 527 400 513 c 128,-1,12
 398 499 398 499 398 482 c 2,13,-1
 398 0 l 1,14,-1
 332 0 l 1,4,-1
EndSplineSet
PairPos2: "'kern' Horizontal Kerning in Hebrew lookup 2 per glyph data 2" uni05D8 dx=-24 dy=0 dh=-24 dv=0 dx=0 dy=0 dh=0 dv=0
PairPos2: "'kern' Horizontal Kerning in Hebrew lookup 2 per glyph data 2" uni05E1 dx=-36 dy=0 dh=-36 dv=0 dx=0 dy=0 dh=0 dv=0
PairPos2: "'kern' Horizontal Kerning in Hebrew lookup 2 per glyph data 2" uni05E8 dx=-38 dy=0 dh=-38 dv=0 dx=0 dy=0 dh=0 dv=0
PairPos2: "'kern' Horizontal Kerning in Hebrew lookup 2 per glyph data 2" uni05E4 dx=-38 dy=0 dh=-38 dv=0 dx=0 dy=0 dh=0 dv=0
PairPos2: "'kern' Horizontal Kerning in Hebrew lookup 2 per glyph data 2" uni05DE dx=-16 dy=0 dh=-16 dv=0 dx=0 dy=0 dh=0 dv=0
PairPos2: "'kern' Horizontal Kerning in Hebrew lookup 2 per glyph data 2" uni05DB dx=-38 dy=0 dh=-38 dv=0 dx=0 dy=0 dh=0 dv=0
PairPos2: "'kern' Horizontal Kerning in Hebrew lookup 2 per glyph data 2" uni05D4 dx=-20 dy=0 dh=-20 dv=0 dx=0 dy=0 dh=0 dv=0
PairPos2: "'kern' Horizontal Kerning in Hebrew lookup 2 per glyph data 2" uni05E3 dx=-50 dy=0 dh=-50 dv=0 dx=0 dy=0 dh=0 dv=0
PairPos2: "'kern' Horizontal Kerning in Hebrew lookup 2 per glyph data 2" uni05DD dx=-31 dy=0 dh=-31 dv=0 dx=0 dy=0 dh=0 dv=0
PairPos2: "'kern' Horizontal Kerning in Hebrew lookup 2 per glyph data 2" uni05DA dx=-50 dy=0 dh=-50 dv=0 dx=0 dy=0 dh=0 dv=0
PairPos2: "'kern' Horizontal Kerning in Hebrew lookup 2 per glyph data 1" uni05D1 dx=-40 dy=0 dh=-40 dv=0 dx=0 dy=0 dh=0 dv=0
EndChar

StartChar: uni05A7
Encoding: 1447 1447 18
Width: 0
GlyphClass: 4
Flags: W
AnchorPoint: "Anchor-1" 171 0 mark 0
LayerCount: 2
Fore
SplineSet
62 -226 m 1,0,-1
 62 -203 l 1,1,-1
 137 -190 l 1,2,-1
 56 -87 l 1,3,-1
 171 -65 l 1,4,-1
 171 -91 l 1,5,-1
 102 -104 l 1,6,-1
 181 -206 l 1,7,-1
 62 -226 l 1,0,-1
EndSplineSet
EndChar

StartChar: uni05AD
Encoding: 1453 1453 19
Width: 0
GlyphClass: 4
Flags: W
AnchorPoint: "Anchor-1" 68 0 mark 0
LayerCount: 2
Fore
SplineSet
171 -196 m 1,0,1
 109 -196 109 -196 79.5 -165 c 128,-1,2
 50 -134 50 -134 50 -79 c 1,3,-1
 85 -79 l 1,4,5
 85 -119 85 -119 104.5 -140 c 128,-1,6
 124 -161 124 -161 171 -161 c 1,7,-1
 171 -196 l 1,0,1
EndSplineSet
EndChar

StartChar: uni0591
Encoding: 1425 1425 20
Width: 0
GlyphClass: 4
Flags: W
AnchorPoint: "Anchor-1" 121 0 mark 0
LayerCount: 2
Fore
SplineSet
56 -210 m 1,0,-1
 56 -191 l 2,1,2
 56 -159 56 -159 68 -143 c 128,-1,3
 80 -127 80 -127 105 -123 c 1,4,-1
 105 -79 l 1,5,-1
 137 -79 l 1,6,-1
 137 -123 l 1,7,8
 163 -127 163 -127 174.5 -143 c 128,-1,9
 186 -159 186 -159 186 -191 c 2,10,-1
 186 -210 l 1,11,-1
 156 -210 l 1,12,-1
 156 -191 l 2,13,14
 156 -170 156 -170 148 -160 c 128,-1,15
 140 -150 140 -150 122 -150 c 0,16,17
 103 -150 103 -150 95 -160 c 128,-1,18
 87 -170 87 -170 87 -191 c 2,19,-1
 87 -210 l 1,20,-1
 56 -210 l 1,0,-1
EndSplineSet
EndChar

StartChar: uni05DA
Encoding: 1498 1498 21
Width: 533
GlyphClass: 2
Flags: W
AnchorPoint: "Anchor-4" 7 533 basechar 0
AnchorPoint: "Anchor-3" 189 533 basechar 0
AnchorPoint: "Anchor-2" 204 298 basechar 0
AnchorPoint: "Anchor-1" 9 0 basechar 0
AnchorPoint: "Anchor-0" 204 214 basechar 0
LayerCount: 2
Fore
SplineSet
397 -194 m 1,0,-1
 397 379 l 2,1,2
 397 453 397 453 365 493.5 c 128,-1,3
 333 534 333 534 275 534 c 2,4,-1
 44 534 l 1,5,-1
 53 589 l 1,6,-1
 276 589 l 2,7,8
 367 589 367 589 415 534 c 128,-1,9
 463 479 463 479 463 379 c 2,10,-1
 463 -190 l 1,11,-1
 397 -194 l 1,0,-1
EndSplineSet
EndChar

StartChar: uni05DD
Encoding: 1501 1501 23
Width: 676
GlyphClass: 2
Flags: W
AnchorPoint: "Anchor-4" 98 533 basechar 0
AnchorPoint: "Anchor-3" 347 533 basechar 0
AnchorPoint: "Anchor-2" 347 295 basechar 0
AnchorPoint: "Anchor-1" 98 0 basechar 0
AnchorPoint: "Anchor-0" 347 0 basechar 0
LayerCount: 2
Fore
SplineSet
416 589 m 2,0,1
 505 589 505 589 551.5 544 c 128,-1,2
 598 499 598 499 598 411 c 2,3,-1
 598 0 l 1,4,-1
 118 0 l 1,5,-1
 118 472 l 2,6,7
 118 483 118 483 120.5 495.5 c 128,-1,8
 123 508 123 508 128 519 c 128,-1,9
 133 530 133 530 141 534 c 1,10,-1
 52 534 l 1,11,-1
 61 589 l 1,12,-1
 416 589 l 2,0,1
532 55 m 1,13,-1
 532 408 l 2,14,15
 532 472 532 472 502 503 c 128,-1,16
 472 534 472 534 410 534 c 2,17,-1
 190 534 l 1,18,19
 187 526 187 526 185.5 511.5 c 128,-1,20
 184 497 184 497 184 482 c 2,21,-1
 184 55 l 1,22,-1
 532 55 l 1,13,-1
EndSplineSet
EndChar

StartChar: uni05DF
Encoding: 1503 1503 24
Width: 318
GlyphClass: 2
Flags: W
AnchorPoint: "Anchor-4" 59 533 basechar 0
AnchorPoint: "Anchor-3" 154 533 basechar 0
AnchorPoint: "Anchor-2" 106 298 basechar 0
AnchorPoint: "Anchor-1" 61 0 basechar 0
LayerCount: 2
Fore
SplineSet
141 -194 m 1,0,-1
 141 589 l 1,1,-1
 208 589 l 1,2,-1
 208 -190 l 1,3,-1
 141 -194 l 1,0,-1
47 534 m 1,4,-1
 55 589 l 1,5,-1
 184 589 l 1,6,-1
 184 534 l 1,7,-1
 47 534 l 1,4,-1
EndSplineSet
EndChar

StartChar: uni05E3
Encoding: 1507 1507 25
Width: 606
GlyphClass: 2
Flags: W
AnchorPoint: "Anchor-4" 17 533 basechar 0
AnchorPoint: "Anchor-3" 248 533 basechar 0
AnchorPoint: "Anchor-2" 337 272 basechar 0
AnchorPoint: "Anchor-1" 20 0 basechar 0
AnchorPoint: "Anchor-0" 335 221 basechar 0
LayerCount: 2
Fore
SplineSet
463 -194 m 1,0,-1
 463 300 l 2,1,2
 463 415 463 415 413.5 479.5 c 128,-1,3
 364 544 364 544 273 544 c 0,4,5
 197 544 197 544 157 503.5 c 128,-1,6
 117 463 117 463 117 399 c 0,7,8
 117 349 117 349 141 313 c 128,-1,9
 165 277 165 277 216 271 c 0,10,11
 224 269 224 269 230.5 268 c 128,-1,12
 237 267 237 267 242 267 c 1,13,-1
 238 216 l 1,14,15
 230 215 230 215 220 216 c 128,-1,16
 210 217 210 217 194 219 c 0,17,18
 123 229 123 229 87.5 278 c 128,-1,19
 52 327 52 327 52 400 c 0,20,21
 52 458 52 458 78 503 c 128,-1,22
 104 548 104 548 153.5 573.5 c 128,-1,23
 203 599 203 599 273 599 c 0,24,25
 394 599 394 599 461.5 519.5 c 128,-1,26
 529 440 529 440 529 300 c 2,27,-1
 529 -190 l 1,28,-1
 463 -194 l 1,0,-1
EndSplineSet
EndChar

StartChar: uni05E5
Encoding: 1509 1509 27
Width: 504
GlyphClass: 2
Flags: W
AnchorPoint: "Anchor-4" -1 533 basechar 0
AnchorPoint: "Anchor-3" 228 533 basechar 0
AnchorPoint: "Anchor-2" 236 441 basechar 0
AnchorPoint: "Anchor-1" 4 0 basechar 0
LayerCount: 2
Fore
SplineSet
304 -196 m 1,0,-1
 262 -25 l 2,1,2
 236 81 236 81 203 178 c 128,-1,3
 170 275 170 275 134 365 c 0,4,5
 108 430 108 430 81 489 c 128,-1,6
 54 548 54 548 32 589 c 1,7,-1
 106 589 l 1,8,9
 116 570 116 570 132.5 534.5 c 128,-1,10
 149 499 149 499 167 456.5 c 128,-1,11
 185 414 185 414 201 374 c 0,12,13
 238 281 238 281 272 181.5 c 128,-1,14
 306 82 306 82 332 -25 c 2,15,-1
 374 -190 l 1,16,-1
 304 -196 l 1,0,-1
247 208 m 1,17,-1
 232 254 l 1,18,19
 274 271 274 271 300.5 301.5 c 128,-1,20
 327 332 327 332 342.5 369 c 128,-1,21
 358 406 358 406 365 443 c 128,-1,22
 372 480 372 480 376 509 c 2,23,-1
 386 589 l 1,24,-1
 451 589 l 1,25,-1
 441 500 l 2,26,27
 438 466 438 466 427 423.5 c 128,-1,28
 416 381 416 381 394 338.5 c 128,-1,29
 372 296 372 296 336 261.5 c 128,-1,30
 300 227 300 227 247 208 c 1,17,-1
EndSplineSet
EndChar

StartChar: uniFB26
Encoding: 64294 64294 28
Width: 778
GlyphClass: 1
Flags: W
LayerCount: 2
Fore
SplineSet
548 589 m 2,0,1
 638 589 638 589 684 544 c 128,-1,2
 730 499 730 499 730 411 c 2,3,-1
 730 0 l 1,4,-1
 98 0 l 1,5,-1
 98 472 l 2,6,7
 98 483 98 483 100.5 495.5 c 128,-1,8
 103 508 103 508 108 519 c 128,-1,9
 113 530 113 530 121 534 c 1,10,-1
 33 534 l 1,11,-1
 41 589 l 1,12,-1
 548 589 l 2,0,1
664 55 m 1,13,-1
 664 408 l 2,14,15
 664 472 664 472 634 503 c 128,-1,16
 604 534 604 534 542 534 c 2,17,-1
 170 534 l 1,18,19
 167 526 167 526 165.5 511.5 c 128,-1,20
 164 497 164 497 164 482 c 2,21,-1
 164 55 l 1,22,-1
 664 55 l 1,13,-1
EndSplineSet
EndChar

StartChar: uni05F3
Encoding: 1523 1523 29
Width: 170
GlyphClass: 1
Flags: W
LayerCount: 2
Fore
SplineSet
20 336 m 1,0,1
 31 364 31 364 40.5 396.5 c 128,-1,2
 50 429 50 429 58 463 c 128,-1,3
 66 497 66 497 71.5 529.5 c 128,-1,4
 77 562 77 562 80 589 c 1,5,-1
 138 589 l 1,6,-1
 139 580 l 1,7,8
 132 540 132 540 121.5 497 c 128,-1,9
 111 454 111 454 97 412.5 c 128,-1,10
 83 371 83 371 67 336 c 1,11,-1
 20 336 l 1,0,1
EndSplineSet
EndChar

StartChar: uni059C
Encoding: 1436 1436 30
Width: 0
GlyphClass: 4
Flags: W
AnchorPoint: "Anchor-4" 68 533 mark 0
LayerCount: 2
Fore
SplineSet
50 647 m 1,0,1
 50 702 50 702 79.5 732.5 c 128,-1,2
 109 763 109 763 171 763 c 1,3,-1
 171 729 l 1,4,5
 124 729 124 729 104.5 707.5 c 128,-1,6
 85 686 85 686 85 647 c 1,7,-1
 50 647 l 1,0,1
EndSplineSet
EndChar

StartChar: uni059D
Encoding: 1437 1437 31
Width: 0
GlyphClass: 4
Flags: W
AnchorPoint: "Anchor-7" 128 533 mark 0
AnchorPoint: "Anchor-3" 128 533 mark 0
LayerCount: 2
Fore
SplineSet
50 647 m 1,0,1
 50 702 50 702 79.5 732.5 c 128,-1,2
 109 763 109 763 171 763 c 1,3,-1
 171 729 l 1,4,5
 124 729 124 729 104.5 707.5 c 128,-1,6
 85 686 85 686 85 647 c 1,7,-1
 50 647 l 1,0,1
EndSplineSet
EndChar

StartChar: uni05F4
Encoding: 1524 1524 32
Width: 331
GlyphClass: 1
Flags: W
LayerCount: 2
Fore
SplineSet
20 336 m 1,0,1
 31 364 31 364 40.5 396.5 c 128,-1,2
 50 429 50 429 58 463 c 128,-1,3
 66 497 66 497 71.5 529.5 c 128,-1,4
 77 562 77 562 80 589 c 1,5,-1
 138 589 l 1,6,-1
 139 580 l 1,7,8
 132 540 132 540 121.5 497 c 128,-1,9
 111 454 111 454 97 412.5 c 128,-1,10
 83 371 83 371 67 336 c 1,11,-1
 20 336 l 1,0,1
183 336 m 1,12,13
 198 373 198 373 210 418 c 128,-1,14
 222 463 222 463 231 507.5 c 128,-1,15
 240 552 240 552 243 589 c 1,16,-1
 301 589 l 1,17,-1
 302 580 l 1,18,19
 296 540 296 540 285 497 c 128,-1,20
 274 454 274 454 260.5 412.5 c 128,-1,21
 247 371 247 371 230 336 c 1,22,-1
 183 336 l 1,12,13
EndSplineSet
EndChar

StartChar: uni059E
Encoding: 1438 1438 33
Width: 0
GlyphClass: 4
Flags: W
AnchorPoint: "Anchor-7" 129 533 mark 0
AnchorPoint: "Anchor-3" 129 533 mark 0
LayerCount: 2
Fore
SplineSet
171 647 m 1,0,1
 171 702 171 702 201 732.5 c 128,-1,2
 231 763 231 763 292 763 c 1,3,-1
 292 729 l 1,4,5
 246 729 246 729 226 707.5 c 128,-1,6
 206 686 206 686 206 647 c 1,7,-1
 171 647 l 1,0,1
50 647 m 1,8,9
 50 702 50 702 79.5 732.5 c 128,-1,10
 109 763 109 763 171 763 c 1,11,-1
 171 729 l 1,12,13
 125 729 125 729 105 707.5 c 128,-1,14
 85 686 85 686 85 647 c 1,15,-1
 50 647 l 1,8,9
EndSplineSet
EndChar

StartChar: uni05D2
Encoding: 1490 1490 34
Width: 357
GlyphClass: 2
Flags: W
AnchorPoint: "Anchor-4" 60 533 basechar 0
AnchorPoint: "Anchor-3" 167 533 basechar 0
AnchorPoint: "Anchor-2" 110 314 basechar 0
AnchorPoint: "Anchor-1" 17 0 basechar 0
AnchorPoint: "Anchor-0" 205 0 basechar 0
LayerCount: 2
Fore
SplineSet
275 -5 m 1,0,-1
 233 129 l 1,1,-1
 228 129 l 1,2,3
 210 100 210 100 189.5 76.5 c 128,-1,4
 169 53 169 53 144.5 35.5 c 128,-1,5
 120 18 120 18 93 9 c 128,-1,6
 66 0 66 0 35 0 c 2,7,-1
 24 0 l 1,8,-1
 24 56 l 1,9,-1
 33 56 l 2,10,11
 64 56 64 56 94 69 c 128,-1,12
 124 82 124 82 150 103 c 128,-1,13
 176 124 176 124 195 147.5 c 128,-1,14
 214 171 214 171 222 192 c 1,15,-1
 222 458 l 2,16,17
 222 497 222 497 204 515.5 c 128,-1,18
 186 534 186 534 147 534 c 2,19,-1
 82 534 l 1,20,-1
 90 589 l 1,21,-1
 162 589 l 2,22,23
 203 589 203 589 231.5 575 c 128,-1,24
 260 561 260 561 274 533 c 128,-1,25
 288 505 288 505 288 464 c 2,26,-1
 288 155 l 1,27,-1
 334 10 l 1,28,-1
 275 -5 l 1,0,-1
EndSplineSet
PairPos2: "'kern' Horizontal Kerning in Hebrew lookup 2 per glyph data 2" uni05D9 dx=-36 dy=0 dh=-36 dv=0 dx=0 dy=0 dh=0 dv=0
PairPos2: "'kern' Horizontal Kerning in Hebrew lookup 2 per glyph data 2" uni05D8 dx=-24 dy=0 dh=-24 dv=0 dx=0 dy=0 dh=0 dv=0
PairPos2: "'kern' Horizontal Kerning in Hebrew lookup 2 per glyph data 2" uni05E4 dx=-31 dy=0 dh=-31 dv=0 dx=0 dy=0 dh=0 dv=0
PairPos2: "'kern' Horizontal Kerning in Hebrew lookup 2 per glyph data 2" uni05DE dx=-26 dy=0 dh=-26 dv=0 dx=0 dy=0 dh=0 dv=0
PairPos2: "'kern' Horizontal Kerning in Hebrew lookup 2 per glyph data 2" uni05DC dx=-18 dy=0 dh=-18 dv=0 dx=0 dy=0 dh=0 dv=0
PairPos2: "'kern' Horizontal Kerning in Hebrew lookup 2 per glyph data 2" uni05DB dx=-16 dy=0 dh=-16 dv=0 dx=0 dy=0 dh=0 dv=0
PairPos2: "'kern' Horizontal Kerning in Hebrew lookup 2 per glyph data 2" uni05D1 dx=2 dy=0 dh=2 dv=0 dx=0 dy=0 dh=0 dv=0
EndChar

StartChar: uni05B2
Encoding: 1458 1458 36
Width: 0
GlyphClass: 4
Flags: W
AnchorPoint: "Anchor-6" 178 0 mark 0
AnchorPoint: "Anchor-0" 178 0 mark 0
LayerCount: 2
Fore
SplineSet
51 -113 m 1,0,-1
 51 -80 l 1,1,-1
 213 -80 l 1,2,-1
 213 -113 l 1,3,-1
 51 -113 l 1,0,-1
277 -122 m 0,4,5
 266 -122 266 -122 258.5 -114.5 c 128,-1,6
 251 -107 251 -107 251 -96 c 256,7,8
 251 -85 251 -85 258.5 -77.5 c 128,-1,9
 266 -70 266 -70 277 -70 c 0,10,11
 287 -70 287 -70 294.5 -77.5 c 128,-1,12
 302 -85 302 -85 302 -96 c 256,13,14
 302 -107 302 -107 294.5 -114.5 c 128,-1,15
 287 -122 287 -122 277 -122 c 0,4,5
277 -215 m 0,16,17
 266 -215 266 -215 258.5 -207.5 c 128,-1,18
 251 -200 251 -200 251 -189 c 256,19,20
 251 -178 251 -178 258.5 -171 c 128,-1,21
 266 -164 266 -164 277 -164 c 0,22,23
 287 -164 287 -164 294.5 -171 c 128,-1,24
 302 -178 302 -178 302 -189 c 256,25,26
 302 -200 302 -200 294.5 -207.5 c 128,-1,27
 287 -215 287 -215 277 -215 c 0,16,17
EndSplineSet
EndChar

StartChar: uni05B2200D05BD
Encoding: 65537 -1 37
Width: 0
GlyphClass: 4
Flags: W
AnchorPoint: "Anchor-6" 212 0 mark 0
AnchorPoint: "Anchor-0" 212 0 mark 0
LayerCount: 2
Fore
SplineSet
51 -113 m 1,0,-1
 51 -80 l 1,1,-1
 213 -80 l 1,2,-1
 213 -113 l 1,3,-1
 51 -113 l 1,0,-1
249 -219 m 1,4,-1
 249 -68 l 1,5,-1
 282 -68 l 1,6,-1
 282 -219 l 1,7,-1
 249 -219 l 1,4,-1
346 -122 m 0,8,9
 335 -122 335 -122 327.5 -114.5 c 128,-1,10
 320 -107 320 -107 320 -96 c 256,11,12
 320 -85 320 -85 327.5 -77.5 c 128,-1,13
 335 -70 335 -70 346 -70 c 0,14,15
 356 -70 356 -70 363.5 -77.5 c 128,-1,16
 371 -85 371 -85 371 -96 c 256,17,18
 371 -107 371 -107 363.5 -114.5 c 128,-1,19
 356 -122 356 -122 346 -122 c 0,8,9
346 -215 m 0,20,21
 335 -215 335 -215 327.5 -207.5 c 128,-1,22
 320 -200 320 -200 320 -189 c 256,23,24
 320 -178 320 -178 327.5 -171 c 128,-1,25
 335 -164 335 -164 346 -164 c 0,26,27
 356 -164 356 -164 363.5 -171 c 128,-1,28
 371 -178 371 -178 371 -189 c 256,29,30
 371 -200 371 -200 363.5 -207.5 c 128,-1,31
 356 -215 356 -215 346 -215 c 0,20,21
EndSplineSet
Ligature2: "'ccmp' Glyph Composition/Decomposition lookup 2 subtable" uni05B2 uni200D uni05BD
EndChar

StartChar: uni05B3
Encoding: 1459 1459 38
Width: 0
GlyphClass: 4
Flags: W
AnchorPoint: "Anchor-6" 178 0 mark 0
AnchorPoint: "Anchor-0" 178 0 mark 0
LayerCount: 2
Fore
SplineSet
116 -205 m 1,0,-1
 116 -112 l 1,1,-1
 51 -112 l 1,2,-1
 51 -80 l 1,3,-1
 215 -80 l 1,4,-1
 215 -112 l 1,5,-1
 149 -112 l 1,6,-1
 149 -205 l 1,7,-1
 116 -205 l 1,0,-1
278 -122 m 0,8,9
 267 -122 267 -122 259.5 -114.5 c 128,-1,10
 252 -107 252 -107 252 -96 c 256,11,12
 252 -85 252 -85 259.5 -77.5 c 128,-1,13
 267 -70 267 -70 278 -70 c 0,14,15
 288 -70 288 -70 295.5 -77.5 c 128,-1,16
 303 -85 303 -85 303 -96 c 256,17,18
 303 -107 303 -107 295.5 -114.5 c 128,-1,19
 288 -122 288 -122 278 -122 c 0,8,9
278 -215 m 0,20,21
 267 -215 267 -215 259.5 -207.5 c 128,-1,22
 252 -200 252 -200 252 -189 c 256,23,24
 252 -178 252 -178 259.5 -171 c 128,-1,25
 267 -164 267 -164 278 -164 c 0,26,27
 288 -164 288 -164 295.5 -171 c 128,-1,28
 303 -178 303 -178 303 -189 c 256,29,30
 303 -200 303 -200 295.5 -207.5 c 128,-1,31
 288 -215 288 -215 278 -215 c 0,20,21
EndSplineSet
EndChar

StartChar: uni05B3200D05BD
Encoding: 65538 -1 39
Width: 0
GlyphClass: 4
Flags: W
AnchorPoint: "Anchor-6" 215 0 mark 0
AnchorPoint: "Anchor-0" 215 0 mark 0
LayerCount: 2
Fore
SplineSet
118 -205 m 1,0,-1
 118 -112 l 1,1,-1
 53 -112 l 1,2,-1
 53 -80 l 1,3,-1
 217 -80 l 1,4,-1
 217 -112 l 1,5,-1
 151 -112 l 1,6,-1
 151 -205 l 1,7,-1
 118 -205 l 1,0,-1
253 -219 m 1,8,-1
 253 -68 l 1,9,-1
 286 -68 l 1,10,-1
 286 -219 l 1,11,-1
 253 -219 l 1,8,-1
349 -122 m 0,12,13
 338 -122 338 -122 330.5 -114.5 c 128,-1,14
 323 -107 323 -107 323 -96 c 256,15,16
 323 -85 323 -85 330.5 -77.5 c 128,-1,17
 338 -70 338 -70 349 -70 c 0,18,19
 359 -70 359 -70 366.5 -77.5 c 128,-1,20
 374 -85 374 -85 374 -96 c 256,21,22
 374 -107 374 -107 366.5 -114.5 c 128,-1,23
 359 -122 359 -122 349 -122 c 0,12,13
349 -215 m 0,24,25
 338 -215 338 -215 330.5 -207.5 c 128,-1,26
 323 -200 323 -200 323 -189 c 256,27,28
 323 -178 323 -178 330.5 -171 c 128,-1,29
 338 -164 338 -164 349 -164 c 0,30,31
 359 -164 359 -164 366.5 -171 c 128,-1,32
 374 -178 374 -178 374 -189 c 256,33,34
 374 -200 374 -200 366.5 -207.5 c 128,-1,35
 359 -215 359 -215 349 -215 c 0,24,25
EndSplineSet
Ligature2: "'ccmp' Glyph Composition/Decomposition lookup 2 subtable" uni05B3 uni200D uni05BD
EndChar

StartChar: uni05B1
Encoding: 1457 1457 40
Width: 0
GlyphClass: 4
Flags: W
AnchorPoint: "Anchor-6" 175 0 mark 0
AnchorPoint: "Anchor-0" 175 0 mark 0
LayerCount: 2
Fore
SplineSet
129 -215 m 0,0,1
 118 -215 118 -215 110.5 -207.5 c 128,-1,2
 103 -200 103 -200 103 -189 c 256,3,4
 103 -178 103 -178 110.5 -171 c 128,-1,5
 118 -164 118 -164 129 -164 c 0,6,7
 139 -164 139 -164 146.5 -171 c 128,-1,8
 154 -178 154 -178 154 -189 c 256,9,10
 154 -200 154 -200 146.5 -207.5 c 128,-1,11
 139 -215 139 -215 129 -215 c 0,0,1
78 -122 m 0,12,13
 67 -122 67 -122 59.5 -114.5 c 128,-1,14
 52 -107 52 -107 52 -96 c 256,15,16
 52 -85 52 -85 59.5 -77.5 c 128,-1,17
 67 -70 67 -70 78 -70 c 0,18,19
 88 -70 88 -70 95.5 -77.5 c 128,-1,20
 103 -85 103 -85 103 -96 c 256,21,22
 103 -107 103 -107 95.5 -114.5 c 128,-1,23
 88 -122 88 -122 78 -122 c 0,12,13
181 -122 m 0,24,25
 170 -122 170 -122 162.5 -114.5 c 128,-1,26
 155 -107 155 -107 155 -96 c 256,27,28
 155 -85 155 -85 162.5 -77.5 c 128,-1,29
 170 -70 170 -70 181 -70 c 0,30,31
 191 -70 191 -70 198.5 -77.5 c 128,-1,32
 206 -85 206 -85 206 -96 c 256,33,34
 206 -107 206 -107 198.5 -114.5 c 128,-1,35
 191 -122 191 -122 181 -122 c 0,24,25
273 -122 m 0,36,37
 262 -122 262 -122 254.5 -114.5 c 128,-1,38
 247 -107 247 -107 247 -96 c 256,39,40
 247 -85 247 -85 254.5 -77.5 c 128,-1,41
 262 -70 262 -70 273 -70 c 0,42,43
 283 -70 283 -70 290.5 -77.5 c 128,-1,44
 298 -85 298 -85 298 -96 c 256,45,46
 298 -107 298 -107 290.5 -114.5 c 128,-1,47
 283 -122 283 -122 273 -122 c 0,36,37
273 -215 m 0,48,49
 262 -215 262 -215 254.5 -207.5 c 128,-1,50
 247 -200 247 -200 247 -189 c 256,51,52
 247 -178 247 -178 254.5 -171 c 128,-1,53
 262 -164 262 -164 273 -164 c 0,54,55
 283 -164 283 -164 290.5 -171 c 128,-1,56
 298 -178 298 -178 298 -189 c 256,57,58
 298 -200 298 -200 290.5 -207.5 c 128,-1,59
 283 -215 283 -215 273 -215 c 0,48,49
EndSplineSet
EndChar

StartChar: uni05B1200D05BD
Encoding: 65539 -1 41
Width: 0
GlyphClass: 4
Flags: W
AnchorPoint: "Anchor-6" 213 0 mark 0
AnchorPoint: "Anchor-0" 213 0 mark 0
LayerCount: 2
Fore
SplineSet
249 -219 m 1,0,-1
 249 -68 l 1,1,-1
 281 -68 l 1,2,-1
 281 -219 l 1,3,-1
 249 -219 l 1,0,-1
83 -122 m 256,4,5
 72 -122 72 -122 64.5 -114.5 c 128,-1,6
 57 -107 57 -107 57 -96 c 256,7,8
 57 -85 57 -85 64.5 -77.5 c 128,-1,9
 72 -70 72 -70 83 -70 c 256,10,11
 94 -70 94 -70 101 -77.5 c 128,-1,12
 108 -85 108 -85 108 -96 c 256,13,14
 108 -107 108 -107 101 -114.5 c 128,-1,15
 94 -122 94 -122 83 -122 c 256,4,5
186 -122 m 256,16,17
 175 -122 175 -122 167.5 -114.5 c 128,-1,18
 160 -107 160 -107 160 -96 c 256,19,20
 160 -85 160 -85 167.5 -77.5 c 128,-1,21
 175 -70 175 -70 186 -70 c 256,22,23
 197 -70 197 -70 204 -77.5 c 128,-1,24
 211 -85 211 -85 211 -96 c 256,25,26
 211 -107 211 -107 204 -114.5 c 128,-1,27
 197 -122 197 -122 186 -122 c 256,16,17
134 -215 m 0,28,29
 123 -215 123 -215 115.5 -207.5 c 128,-1,30
 108 -200 108 -200 108 -189 c 256,31,32
 108 -178 108 -178 115.5 -171 c 128,-1,33
 123 -164 123 -164 134 -164 c 0,34,35
 144 -164 144 -164 151.5 -171 c 128,-1,36
 159 -178 159 -178 159 -189 c 256,37,38
 159 -200 159 -200 151.5 -207.5 c 128,-1,39
 144 -215 144 -215 134 -215 c 0,28,29
345 -122 m 256,40,41
 334 -122 334 -122 326.5 -114.5 c 128,-1,42
 319 -107 319 -107 319 -96 c 256,43,44
 319 -85 319 -85 326.5 -77.5 c 128,-1,45
 334 -70 334 -70 345 -70 c 256,46,47
 356 -70 356 -70 363 -77.5 c 128,-1,48
 370 -85 370 -85 370 -96 c 256,49,50
 370 -107 370 -107 363 -114.5 c 128,-1,51
 356 -122 356 -122 345 -122 c 256,40,41
345 -215 m 256,52,53
 334 -215 334 -215 326.5 -207.5 c 128,-1,54
 319 -200 319 -200 319 -189 c 256,55,56
 319 -178 319 -178 326.5 -171 c 128,-1,57
 334 -164 334 -164 345 -164 c 256,58,59
 356 -164 356 -164 363 -171 c 128,-1,60
 370 -178 370 -178 370 -189 c 256,61,62
 370 -200 370 -200 363 -207.5 c 128,-1,63
 356 -215 356 -215 345 -215 c 256,52,53
EndSplineSet
Ligature2: "'ccmp' Glyph Composition/Decomposition lookup 2 subtable" uni05B1 uni200D uni05BD
EndChar

StartChar: uni05D4
Encoding: 1492 1492 42
Width: 614
GlyphClass: 2
Flags: W
AnchorPoint: "Anchor-4" 43 533 basechar 0
AnchorPoint: "Anchor-3" 287 533 basechar 0
AnchorPoint: "Anchor-2" 288 298 basechar 0
AnchorPoint: "Anchor-1" 44 0 basechar 0
AnchorPoint: "Anchor-0" 289 0 basechar 0
LayerCount: 2
Fore
SplineSet
470 0 m 1,0,-1
 470 408 l 2,1,2
 470 472 470 472 440 503 c 128,-1,3
 410 534 410 534 348 534 c 2,4,-1
 54 534 l 1,5,-1
 62 589 l 1,6,-1
 354 589 l 2,7,8
 444 589 444 589 490 544 c 128,-1,9
 536 499 536 499 536 411 c 2,10,-1
 536 0 l 1,11,-1
 470 0 l 1,0,-1
71 0 m 1,12,-1
 71 343 l 1,13,-1
 137 349 l 1,14,-1
 137 0 l 1,15,-1
 71 0 l 1,12,-1
EndSplineSet
EndChar

StartChar: uni05D7
Encoding: 1495 1495 44
Width: 651
GlyphClass: 2
Flags: W
AnchorPoint: "Anchor-4" 87 533 basechar 0
AnchorPoint: "Anchor-3" 335 533 basechar 0
AnchorPoint: "Anchor-2" 336 298 basechar 0
AnchorPoint: "Anchor-1" 87 0 basechar 0
AnchorPoint: "Anchor-0" 336 0 basechar 0
LayerCount: 2
Fore
SplineSet
391 589 m 2,0,1
 480 589 480 589 526.5 544 c 128,-1,2
 573 499 573 499 573 411 c 2,3,-1
 573 0 l 1,4,-1
 507 0 l 1,5,-1
 507 408 l 2,6,7
 507 472 507 472 477 503 c 128,-1,8
 447 534 447 534 385 534 c 2,9,-1
 190 534 l 1,10,11
 184 525 184 525 175.5 497 c 128,-1,12
 167 469 167 469 167 412 c 2,13,-1
 167 0 l 1,14,-1
 101 0 l 1,15,-1
 101 399 l 2,16,17
 101 446 101 446 110.5 482.5 c 128,-1,18
 120 519 120 519 135 534 c 1,19,-1
 109 536 l 1,20,-1
 109 589 l 1,21,-1
 391 589 l 2,0,1
49 534 m 1,22,-1
 57 589 l 1,23,-1
 250 589 l 1,24,-1
 250 534 l 1,25,-1
 49 534 l 1,22,-1
EndSplineSet
EndChar

StartChar: uni05B4
Encoding: 1460 1460 45
Width: 0
GlyphClass: 4
Flags: W
AnchorPoint: "Anchor-6" 78 0 mark 0
AnchorPoint: "Anchor-0" 78 0 mark 0
LayerCount: 2
Fore
SplineSet
78 -122 m 0,0,1
 67 -122 67 -122 59.5 -114.5 c 128,-1,2
 52 -107 52 -107 52 -96 c 256,3,4
 52 -85 52 -85 59.5 -77.5 c 128,-1,5
 67 -70 67 -70 78 -70 c 0,6,7
 88 -70 88 -70 95.5 -77.5 c 128,-1,8
 103 -85 103 -85 103 -96 c 256,9,10
 103 -107 103 -107 95.5 -114.5 c 128,-1,11
 88 -122 88 -122 78 -122 c 0,0,1
EndSplineSet
EndChar

StartChar: uni05B9
Encoding: 1465 1465 46
Width: 0
GlyphClass: 4
Flags: W
AnchorPoint: "Anchor-4" 78 533 mark 0
LayerCount: 2
Fore
SplineSet
78 661 m 0,0,1
 67 661 67 661 59.5 668.5 c 128,-1,2
 52 676 52 676 52 687 c 0,3,4
 52 697 52 697 59.5 704.5 c 128,-1,5
 67 712 67 712 78 712 c 0,6,7
 88 712 88 712 95.5 704.5 c 128,-1,8
 103 697 103 697 103 687 c 0,9,10
 103 676 103 676 95.5 668.5 c 128,-1,11
 88 661 88 661 78 661 c 0,0,1
EndSplineSet
EndChar

StartChar: uni05BA
Encoding: 1466 1466 47
Width: 0
GlyphClass: 4
Flags: W
AnchorPoint: "Anchor-4" 78 533 mark 0
LayerCount: 2
Fore
SplineSet
78 661 m 0,0,1
 67 661 67 661 59.5 668.5 c 128,-1,2
 52 676 52 676 52 687 c 0,3,4
 52 697 52 697 59.5 704.5 c 128,-1,5
 67 712 67 712 78 712 c 0,6,7
 88 712 88 712 95.5 704.5 c 128,-1,8
 103 697 103 697 103 687 c 0,9,10
 103 676 103 676 95.5 668.5 c 128,-1,11
 88 661 88 661 78 661 c 0,0,1
EndSplineSet
EndChar

StartChar: hyphen
Encoding: 45 45 48
Width: 321
GlyphClass: 1
Flags: W
LayerCount: 2
Fore
SplineSet
36 245 m 1,0,-1
 36 297 l 1,1,-1
 285 297 l 1,2,-1
 285 245 l 1,3,-1
 36 245 l 1,0,-1
EndSplineSet
EndChar

StartChar: uni2010
Encoding: 8208 8208 49
Width: 321
GlyphClass: 1
Flags: W
LayerCount: 2
Fore
SplineSet
36 245 m 1,0,-1
 36 297 l 1,1,-1
 285 297 l 1,2,-1
 285 245 l 1,3,-1
 36 245 l 1,0,-1
EndSplineSet
EndChar

StartChar: uni05AC
Encoding: 1452 1452 50
Width: 0
GlyphClass: 4
Flags: W
AnchorPoint: "Anchor-7" 126 533 mark 0
AnchorPoint: "Anchor-3" 126 533 mark 0
LayerCount: 2
Fore
SplineSet
57 647 m 1,0,-1
 57 679 l 1,1,-1
 164 679 l 1,2,-1
 164 781 l 1,3,-1
 196 781 l 1,4,-1
 196 647 l 1,5,-1
 57 647 l 1,0,-1
EndSplineSet
EndChar

StartChar: uniFB1E
Encoding: 64286 64286 51
Width: 0
GlyphClass: 4
Flags: W
AnchorPoint: "Anchor-7" 158 533 mark 0
AnchorPoint: "Anchor-3" 158 533 mark 0
LayerCount: 2
Fore
SplineSet
266 761 m 1,0,1
 266 711 266 711 237.5 680 c 128,-1,2
 209 649 209 649 158 649 c 256,3,4
 107 649 107 649 78.5 680 c 128,-1,5
 50 711 50 711 50 761 c 1,6,-1
 78 761 l 1,7,8
 78 721 78 721 99 699.5 c 128,-1,9
 120 678 120 678 158 678 c 0,10,11
 197 678 197 678 218 702.5 c 128,-1,12
 239 727 239 727 239 761 c 1,13,-1
 266 761 l 1,0,1
EndSplineSet
EndChar

StartChar: uni05DB
Encoding: 1499 1499 52
Width: 509
GlyphClass: 2
Flags: W
AnchorPoint: "Anchor-4" 6 533 basechar 0
AnchorPoint: "Anchor-3" 171 533 basechar 0
AnchorPoint: "Anchor-2" 188 298 basechar 0
AnchorPoint: "Anchor-1" 10 0 basechar 0
AnchorPoint: "Anchor-0" 183 0 basechar 0
LayerCount: 2
Fore
SplineSet
50 0 m 1,0,-1
 50 55 l 1,1,-1
 207 55 l 2,2,3
 298 55 298 55 344 116 c 128,-1,4
 390 177 390 177 390 293 c 0,5,6
 390 412 390 412 344 473 c 128,-1,7
 298 534 298 534 207 534 c 2,8,-1
 50 534 l 1,9,-1
 58 589 l 1,10,-1
 207 589 l 2,11,12
 331 589 331 589 394.5 513.5 c 128,-1,13
 458 438 458 438 458 293 c 0,14,15
 458 150 458 150 394.5 75 c 128,-1,16
 331 0 331 0 207 0 c 2,17,-1
 50 0 l 1,0,-1
EndSplineSet
PairPos2: "'kern' Horizontal Kerning in Hebrew lookup 2 per glyph data 2" uni05D8 dx=-24 dy=0 dh=-24 dv=0 dx=0 dy=0 dh=0 dv=0
PairPos2: "'kern' Horizontal Kerning in Hebrew lookup 2 per glyph data 2" uni05E1 dx=-18 dy=0 dh=-18 dv=0 dx=0 dy=0 dh=0 dv=0
PairPos2: "'kern' Horizontal Kerning in Hebrew lookup 2 per glyph data 2" uni05E4 dx=-28 dy=0 dh=-28 dv=0 dx=0 dy=0 dh=0 dv=0
PairPos2: "'kern' Horizontal Kerning in Hebrew lookup 2 per glyph data 2" uni05DE dx=-18 dy=0 dh=-18 dv=0 dx=0 dy=0 dh=0 dv=0
PairPos2: "'kern' Horizontal Kerning in Hebrew lookup 2 per glyph data 2" uni05DB dx=-16 dy=0 dh=-16 dv=0 dx=0 dy=0 dh=0 dv=0
PairPos2: "'kern' Horizontal Kerning in Hebrew lookup 2 per glyph data 2" uni05E3 dx=-28 dy=0 dh=-28 dv=0 dx=0 dy=0 dh=0 dv=0
PairPos2: "'kern' Horizontal Kerning in Hebrew lookup 2 per glyph data 2" uni05DA dx=0 dy=0 dh=0 dv=0 dx=0 dy=0 dh=0 dv=0
EndChar

StartChar: uni05DC
Encoding: 1500 1500 55
Width: 508
GlyphClass: 2
Flags: W
AnchorPoint: "Anchor-4" -36 533 basechar 0
AnchorPoint: "Anchor-3" 264 533 basechar 0
AnchorPoint: "Anchor-2" 138 328 basechar 0
AnchorPoint: "Anchor-1" 225 0 basechar 0
AnchorPoint: "Anchor-0" 239 0 basechar 0
LayerCount: 2
Fore
SplineSet
103 589 m 1,0,-1
 470 589 l 1,1,-1
 461 545 l 1,2,-1
 281 0 l 1,3,-1
 213 0 l 1,4,-1
 391 534 l 1,5,-1
 37 534 l 1,6,-1
 37 752 l 1,7,-1
 103 760 l 1,8,-1
 103 589 l 1,0,-1
EndSplineSet
PairPos2: "'kern' Horizontal Kerning in Hebrew lookup 2 per glyph data 2" uni05D8 dx=-24 dy=0 dh=-24 dv=0 dx=0 dy=0 dh=0 dv=0
PairPos2: "'kern' Horizontal Kerning in Hebrew lookup 2 per glyph data 2" uni05EA dx=-8 dy=0 dh=-8 dv=0 dx=0 dy=0 dh=0 dv=0
PairPos2: "'kern' Horizontal Kerning in Hebrew lookup 2 per glyph data 2" uni05E9 dx=24 dy=0 dh=24 dv=0 dx=0 dy=0 dh=0 dv=0
PairPos2: "'kern' Horizontal Kerning in Hebrew lookup 2 per glyph data 2" uni05E1 dx=-24 dy=0 dh=-24 dv=0 dx=0 dy=0 dh=0 dv=0
PairPos2: "'kern' Horizontal Kerning in Hebrew lookup 2 per glyph data 2" uni05E4 dx=-18 dy=0 dh=-18 dv=0 dx=0 dy=0 dh=0 dv=0
PairPos2: "'kern' Horizontal Kerning in Hebrew lookup 2 per glyph data 2" uni05DB dx=-28 dy=0 dh=-28 dv=0 dx=0 dy=0 dh=0 dv=0
PairPos2: "'kern' Horizontal Kerning in Hebrew lookup 2 per glyph data 2" uni05D2 dx=-2 dy=0 dh=-2 dv=0 dx=0 dy=0 dh=0 dv=0
PairPos2: "'kern' Horizontal Kerning in Hebrew lookup 2 per glyph data 2" uni05E3 dx=-34 dy=0 dh=-34 dv=0 dx=0 dy=0 dh=0 dv=0
PairPos2: "'kern' Horizontal Kerning in Hebrew lookup 2 per glyph data 2" uni05D1 dx=-40 dy=0 dh=-40 dv=0 dx=0 dy=0 dh=0 dv=0
PairPos2: "'kern' Horizontal Kerning in Hebrew lookup 2 per glyph data 1" uni05DA dx=-30 dy=0 dh=-30 dv=0 dx=0 dy=0 dh=0 dv=0
EndChar

StartChar: uni05C5
Encoding: 1477 1477 57
Width: 0
GlyphClass: 4
Flags: W
AnchorPoint: "Anchor-6" 78 0 mark 0
AnchorPoint: "Anchor-0" 78 0 mark 0
LayerCount: 2
Fore
SplineSet
78 -122 m 0,0,1
 67 -122 67 -122 59.5 -114.5 c 128,-1,2
 52 -107 52 -107 52 -96 c 0,3,4
 52 -86 52 -86 59.5 -78.5 c 128,-1,5
 67 -71 67 -71 78 -71 c 0,6,7
 88 -71 88 -71 95.5 -78.5 c 128,-1,8
 103 -86 103 -86 103 -96 c 0,9,10
 103 -107 103 -107 95.5 -114.5 c 128,-1,11
 88 -122 88 -122 78 -122 c 0,0,1
EndSplineSet
EndChar

StartChar: uni05A4
Encoding: 1444 1444 58
Width: 0
GlyphClass: 4
Flags: W
AnchorPoint: "Anchor-1" 108 0 mark 0
LayerCount: 2
Fore
SplineSet
128 -234 m 1,0,-1
 50 -155 l 1,1,-1
 125 -79 l 1,2,-1
 164 -79 l 1,3,-1
 89 -155 l 1,4,-1
 167 -234 l 1,5,-1
 128 -234 l 1,0,-1
EndSplineSet
EndChar

StartChar: uni05BE
Encoding: 1470 1470 59
Width: 323
GlyphClass: 1
Flags: W
LayerCount: 2
Fore
SplineSet
37 534 m 1,0,-1
 37 589 l 1,1,-1
 286 589 l 1,2,-1
 286 534 l 1,3,-1
 37 534 l 1,0,-1
EndSplineSet
EndChar

StartChar: uni05AF
Encoding: 1455 1455 60
Width: 0
GlyphClass: 4
Flags: W
AnchorPoint: "Anchor-7" 116 533 mark 0
AnchorPoint: "Anchor-3" 116 533 mark 0
LayerCount: 2
Fore
SplineSet
116 646 m 256,0,1
 88 646 88 646 69 665.5 c 128,-1,2
 50 685 50 685 50 713 c 0,3,4
 50 740 50 740 69.5 759.5 c 128,-1,5
 89 779 89 779 116 779 c 256,6,7
 143 779 143 779 163 759.5 c 128,-1,8
 183 740 183 740 183 713 c 0,9,10
 183 685 183 685 163.5 665.5 c 128,-1,11
 144 646 144 646 116 646 c 256,0,1
116 675 m 0,12,13
 132 675 132 675 142.5 686.5 c 128,-1,14
 153 698 153 698 153 712 c 0,15,16
 153 728 153 728 142 738.5 c 128,-1,17
 131 749 131 749 116 749 c 256,18,19
 101 749 101 749 90.5 738.5 c 128,-1,20
 80 728 80 728 80 712 c 0,21,22
 80 698 80 698 90.5 686.5 c 128,-1,23
 101 675 101 675 116 675 c 0,12,13
EndSplineSet
EndChar

StartChar: uni05DE
Encoding: 1502 1502 61
Width: 642
GlyphClass: 2
Flags: W
AnchorPoint: "Anchor-4" 83 533 basechar 0
AnchorPoint: "Anchor-3" 357 533 basechar 0
AnchorPoint: "Anchor-2" 344 298 basechar 0
AnchorPoint: "Anchor-1" 85 0 basechar 0
AnchorPoint: "Anchor-0" 344 0 basechar 0
LayerCount: 2
Fore
SplineSet
64 0 m 1,0,-1
 134 355 l 1,1,-1
 53 589 l 1,2,-1
 119 589 l 1,3,-1
 173 422 l 1,4,-1
 175 422 l 1,5,6
 184 453 184 453 198.5 484 c 128,-1,7
 213 515 213 515 236.5 541 c 128,-1,8
 260 567 260 567 295.5 583 c 128,-1,9
 331 599 331 599 380 599 c 0,10,11
 445 599 445 599 493.5 569 c 128,-1,12
 542 539 542 539 570 477 c 128,-1,13
 598 415 598 415 598 318 c 2,14,-1
 598 304 l 2,15,16
 598 211 598 211 570 143 c 128,-1,17
 542 75 542 75 487.5 37.5 c 128,-1,18
 433 0 433 0 354 0 c 2,19,-1
 251 0 l 1,20,-1
 259 55 l 1,21,-1
 351 55 l 2,22,23
 439 55 439 55 485.5 123 c 128,-1,24
 532 191 532 191 532 304 c 2,25,-1
 532 318 l 2,26,27
 532 398 532 398 511 447.5 c 128,-1,28
 490 497 490 497 453.5 520 c 128,-1,29
 417 543 417 543 371 543 c 0,30,31
 326 543 326 543 295 526.5 c 128,-1,32
 264 510 264 510 245 483 c 128,-1,33
 226 456 226 456 215 424 c 128,-1,34
 204 392 204 392 199 362 c 2,35,-1
 132 0 l 1,36,-1
 64 0 l 1,0,-1
EndSplineSet
PairPos2: "'kern' Horizontal Kerning in Hebrew lookup 2 per glyph data 2" uni05D8 dx=0 dy=0 dh=0 dv=0 dx=0 dy=0 dh=0 dv=0
PairPos2: "'kern' Horizontal Kerning in Hebrew lookup 2 per glyph data 2" uni05E9 dx=0 dy=0 dh=0 dv=0 dx=0 dy=0 dh=0 dv=0
PairPos2: "'kern' Horizontal Kerning in Hebrew lookup 2 per glyph data 2" uni05E1 dx=-21 dy=0 dh=-21 dv=0 dx=0 dy=0 dh=0 dv=0
PairPos2: "'kern' Horizontal Kerning in Hebrew lookup 2 per glyph data 2" uni05E4 dx=-29 dy=0 dh=-29 dv=0 dx=0 dy=0 dh=0 dv=0
PairPos2: "'kern' Horizontal Kerning in Hebrew lookup 2 per glyph data 2" uni05DE dx=-20 dy=0 dh=-20 dv=0 dx=0 dy=0 dh=0 dv=0
PairPos2: "'kern' Horizontal Kerning in Hebrew lookup 2 per glyph data 2" uni05DB dx=-20 dy=0 dh=-20 dv=0 dx=0 dy=0 dh=0 dv=0
PairPos2: "'kern' Horizontal Kerning in Hebrew lookup 2 per glyph data 2" uni05DD dx=-16 dy=0 dh=-16 dv=0 dx=0 dy=0 dh=0 dv=0
EndChar

StartChar: uni05A6
Encoding: 1446 1446 63
Width: 0
GlyphClass: 4
Flags: W
AnchorPoint: "Anchor-1" 213 0 mark 0
LayerCount: 2
Fore
SplineSet
171 -222 m 1,0,-1
 171 -188 l 1,1,2
 218 -188 218 -188 237.5 -166.5 c 128,-1,3
 257 -145 257 -145 257 -106 c 1,4,-1
 292 -106 l 1,5,6
 292 -161 292 -161 262.5 -191.5 c 128,-1,7
 233 -222 233 -222 171 -222 c 1,0,-1
50 -222 m 1,8,-1
 50 -188 l 1,9,10
 96 -188 96 -188 116 -166.5 c 128,-1,11
 136 -145 136 -145 136 -106 c 1,12,-1
 171 -106 l 1,13,14
 171 -161 171 -161 141.5 -191.5 c 128,-1,15
 112 -222 112 -222 50 -222 c 1,8,-1
EndSplineSet
EndChar

StartChar: uni05A5
Encoding: 1445 1445 64
Width: 0
GlyphClass: 4
Flags: W
AnchorPoint: "Anchor-1" 171 0 mark 0
LayerCount: 2
Fore
SplineSet
50 -196 m 1,0,-1
 50 -161 l 1,1,2
 96 -161 96 -161 116 -139.5 c 128,-1,3
 136 -118 136 -118 136 -79 c 1,4,-1
 171 -79 l 1,5,6
 171 -134 171 -134 141.5 -165 c 128,-1,7
 112 -196 112 -196 50 -196 c 1,0,-1
EndSplineSet
EndChar

StartChar: uni05A3
Encoding: 1443 1443 65
Width: 0
GlyphClass: 4
Flags: W
AnchorPoint: "Anchor-1" 191 0 mark 0
LayerCount: 2
Fore
SplineSet
50 -216 m 1,0,-1
 50 -184 l 1,1,-1
 159 -184 l 1,2,-1
 159 -79 l 1,3,-1
 191 -79 l 1,4,-1
 191 -216 l 1,5,-1
 50 -216 l 1,0,-1
EndSplineSet
EndChar

StartChar: uni05E0
Encoding: 1504 1504 67
Width: 367
GlyphClass: 2
Flags: W
AnchorPoint: "Anchor-4" 61 533 basechar 0
AnchorPoint: "Anchor-3" 160 533 basechar 0
AnchorPoint: "Anchor-2" 112 298 basechar 0
AnchorPoint: "Anchor-1" 7 0 basechar 0
AnchorPoint: "Anchor-0" 165 0 basechar 0
LayerCount: 2
Fore
SplineSet
223 0 m 1,0,-1
 223 458 l 2,1,2
 223 485 223 485 215 501.5 c 128,-1,3
 207 518 207 518 192.5 526 c 128,-1,4
 178 534 178 534 157 534 c 2,5,-1
 83 534 l 1,6,-1
 92 589 l 1,7,-1
 172 589 l 2,8,9
 227 589 227 589 258 557.5 c 128,-1,10
 289 526 289 526 289 465 c 2,11,-1
 289 0 l 1,12,-1
 223 0 l 1,0,-1
51 0 m 1,13,-1
 51 55 l 1,14,-1
 254 55 l 1,15,-1
 254 0 l 1,16,-1
 51 0 l 1,13,-1
EndSplineSet
PairPos2: "'kern' Horizontal Kerning in Hebrew lookup 2 per glyph data 2" uni05D9 dx=-12 dy=0 dh=-12 dv=0 dx=0 dy=0 dh=0 dv=0
PairPos2: "'kern' Horizontal Kerning in Hebrew lookup 2 per glyph data 2" uni05D8 dx=-18 dy=0 dh=-18 dv=0 dx=0 dy=0 dh=0 dv=0
PairPos2: "'kern' Horizontal Kerning in Hebrew lookup 2 per glyph data 2" uni05E1 dx=0 dy=0 dh=0 dv=0 dx=0 dy=0 dh=0 dv=0
PairPos2: "'kern' Horizontal Kerning in Hebrew lookup 2 per glyph data 2" uni05DB dx=-31 dy=0 dh=-31 dv=0 dx=0 dy=0 dh=0 dv=0
EndChar

StartChar: uni05C6
Encoding: 1478 1478 69
Width: 376
GlyphClass: 1
Flags: W
LayerCount: 2
Fore
SplineSet
82 0 m 1,0,-1
 82 422 l 2,1,2
 82 505 82 505 124 547 c 128,-1,3
 166 589 166 589 245 589 c 2,4,-1
 309 589 l 1,5,-1
 309 534 l 1,6,-1
 260 534 l 2,7,8
 204 534 204 534 173.5 507 c 128,-1,9
 143 480 143 480 143 416 c 2,10,-1
 143 55 l 1,11,-1
 343 55 l 1,12,-1
 343 0 l 1,13,-1
 82 0 l 1,0,-1
EndSplineSet
EndChar

StartChar: uni05AB
Encoding: 1451 1451 70
Width: 0
GlyphClass: 4
Flags: W
AnchorPoint: "Anchor-7" 108 533 mark 0
AnchorPoint: "Anchor-3" 108 533 mark 0
LayerCount: 2
Fore
SplineSet
128 644 m 1,0,-1
 50 723 l 1,1,-1
 125 799 l 1,2,-1
 164 799 l 1,3,-1
 89 723 l 1,4,-1
 167 644 l 1,5,-1
 128 644 l 1,0,-1
EndSplineSet
EndChar

StartChar: uni05C0
Encoding: 1472 1472 71
Width: 529
GlyphClass: 1
Flags: W
LayerCount: 2
Fore
SplineSet
239 762 m 1,0,-1
 287 762 l 1,1,-1
 287 -244 l 1,2,-1
 239 -244 l 1,3,-1
 239 762 l 1,0,-1
EndSplineSet
EndChar

StartChar: uni0599
Encoding: 1433 1433 72
Width: 0
GlyphClass: 4
Flags: W
AnchorPoint: "Anchor-4" 171 533 mark 0
LayerCount: 2
Fore
SplineSet
136 650 m 1,0,1
 136 689 136 689 116.5 710.5 c 128,-1,2
 97 732 97 732 50 732 c 1,3,-1
 50 766 l 1,4,5
 111 766 111 766 141 735.5 c 128,-1,6
 171 705 171 705 171 650 c 1,7,-1
 136 650 l 1,0,1
EndSplineSet
EndChar

StartChar: uni05B7
Encoding: 1463 1463 73
Width: 0
GlyphClass: 4
Flags: W
AnchorPoint: "Anchor-6" 133 0 mark 0
AnchorPoint: "Anchor-0" 133 0 mark 0
LayerCount: 2
Fore
SplineSet
51 -113 m 1,0,-1
 51 -80 l 1,1,-1
 215 -80 l 1,2,-1
 215 -113 l 1,3,-1
 51 -113 l 1,0,-1
EndSplineSet
EndChar

StartChar: uni05A1
Encoding: 1441 1441 74
Width: 0
GlyphClass: 4
Flags: W
AnchorPoint: "Anchor-7" 119 533 mark 0
AnchorPoint: "Anchor-3" 119 533 mark 0
LayerCount: 2
Fore
SplineSet
56 623 m 1,0,-1
 56 749 l 1,1,-1
 87 749 l 1,2,-1
 87 714 l 2,3,4
 88 682 88 682 117 682 c 0,5,6
 135 682 135 682 142.5 691.5 c 128,-1,7
 150 701 150 701 150 723 c 2,8,-1
 150 749 l 1,9,-1
 181 749 l 1,10,-1
 181 723 l 2,11,12
 181 688 181 688 165.5 671 c 128,-1,13
 150 654 150 654 117 653 c 0,14,15
 109 653 109 653 101 655 c 128,-1,16
 93 657 93 657 87 660 c 1,17,-1
 87 623 l 1,18,-1
 56 623 l 1,0,-1
EndSplineSet
EndChar

StartChar: uni05E4
Encoding: 1508 1508 75
Width: 589
GlyphClass: 2
Flags: W
AnchorPoint: "Anchor-4" 55 533 basechar 0
AnchorPoint: "Anchor-3" 262 533 basechar 0
AnchorPoint: "Anchor-2" 338 281 basechar 0
AnchorPoint: "Anchor-1" 55 0 basechar 0
AnchorPoint: "Anchor-0" 269 0 basechar 0
LayerCount: 2
Fore
SplineSet
75 0 m 1,0,-1
 75 55 l 1,1,-1
 245 55 l 2,2,3
 315 55 315 55 364.5 86 c 128,-1,4
 414 117 414 117 440.5 172 c 128,-1,5
 467 227 467 227 467 300 c 0,6,7
 467 415 467 415 419.5 479.5 c 128,-1,8
 372 544 372 544 281 544 c 0,9,10
 206 544 206 544 165 503.5 c 128,-1,11
 124 463 124 463 124 399 c 0,12,13
 124 349 124 349 148 313 c 128,-1,14
 172 277 172 277 223 271 c 0,15,16
 231 269 231 269 237.5 268 c 128,-1,17
 244 267 244 267 249 267 c 1,18,-1
 245 216 l 1,19,20
 237 215 237 215 227 216 c 128,-1,21
 217 217 217 217 201 219 c 0,22,23
 129 229 129 229 93.5 278 c 128,-1,24
 58 327 58 327 58 400 c 0,25,26
 58 458 58 458 84.5 503 c 128,-1,27
 111 548 111 548 161 573.5 c 128,-1,28
 211 599 211 599 281 599 c 0,29,30
 403 599 403 599 469.5 519.5 c 128,-1,31
 536 440 536 440 536 300 c 0,32,33
 536 210 536 210 500.5 142.5 c 128,-1,34
 465 75 465 75 399.5 37.5 c 128,-1,35
 334 0 334 0 241 0 c 2,36,-1
 75 0 l 1,0,-1
EndSplineSet
PairPos2: "'kern' Horizontal Kerning in Hebrew lookup 2 per glyph data 2" uni05E9 dx=-4 dy=0 dh=-4 dv=0 dx=0 dy=0 dh=0 dv=0
PairPos2: "'kern' Horizontal Kerning in Hebrew lookup 2 per glyph data 2" uni05E1 dx=-4 dy=0 dh=-4 dv=0 dx=0 dy=0 dh=0 dv=0
PairPos2: "'kern' Horizontal Kerning in Hebrew lookup 2 per glyph data 2" uni05E4 dx=-2 dy=0 dh=-2 dv=0 dx=0 dy=0 dh=0 dv=0
PairPos2: "'kern' Horizontal Kerning in Hebrew lookup 2 per glyph data 2" uni05DC dx=-4 dy=0 dh=-4 dv=0 dx=0 dy=0 dh=0 dv=0
PairPos2: "'kern' Horizontal Kerning in Hebrew lookup 2 per glyph data 2" uni05E3 dx=-24 dy=0 dh=-24 dv=0 dx=0 dy=0 dh=0 dv=0
PairPos2: "'kern' Horizontal Kerning in Hebrew lookup 2 per glyph data 2" uni05DF dx=0 dy=0 dh=0 dv=0 dx=0 dy=0 dh=0 dv=0
PairPos2: "'kern' Horizontal Kerning in Hebrew lookup 2 per glyph data 2" uni05DA dx=-4 dy=0 dh=-4 dv=0 dx=0 dy=0 dh=0 dv=0
PairPos2: "'kern' Horizontal Kerning in Hebrew lookup 2 per glyph data 2" uni05D3 dx=0 dy=0 dh=0 dv=0 dx=0 dy=0 dh=0 dv=0
PairPos2: "'kern' Horizontal Kerning in Hebrew lookup 2 per glyph data 1" uni05DB dx=-20 dy=0 dh=-20 dv=0 dx=0 dy=0 dh=0 dv=0
EndChar

StartChar: uni05A8
Encoding: 1448 1448 78
Width: 0
GlyphClass: 4
Flags: W
AnchorPoint: "Anchor-4" 154 533 mark 0
LayerCount: 2
Fore
SplineSet
136 647 m 1,0,1
 136 686 136 686 116.5 707.5 c 128,-1,2
 97 729 97 729 50 729 c 1,3,-1
 50 763 l 1,4,5
 111 763 111 763 141 732.5 c 128,-1,6
 171 702 171 702 171 647 c 1,7,-1
 136 647 l 1,0,1
EndSplineSet
EndChar

StartChar: uni05B8
Encoding: 1464 1464 79
Width: 0
GlyphClass: 4
Flags: W
AnchorPoint: "Anchor-6" 134 0 mark 0
AnchorPoint: "Anchor-0" 134 0 mark 0
LayerCount: 2
Fore
SplineSet
117 -207 m 1,0,-1
 117 -113 l 1,1,-1
 51 -113 l 1,2,-1
 51 -80 l 1,3,-1
 216 -80 l 1,4,-1
 216 -113 l 1,5,-1
 150 -113 l 1,6,-1
 150 -207 l 1,7,-1
 117 -207 l 1,0,-1
EndSplineSet
EndChar

StartChar: uni05C7
Encoding: 1479 1479 80
Width: 0
GlyphClass: 4
Flags: W
AnchorPoint: "Anchor-6" 107 0 mark 0
AnchorPoint: "Anchor-0" 107 0 mark 0
LayerCount: 2
Fore
SplineSet
90 -171 m 1,0,-1
 90 -113 l 1,1,-1
 51 -113 l 1,2,-1
 51 -80 l 1,3,-1
 161 -80 l 1,4,-1
 161 -113 l 1,5,-1
 122 -113 l 1,6,-1
 122 -171 l 1,7,-1
 90 -171 l 1,0,-1
EndSplineSet
EndChar

StartChar: uni059F
Encoding: 1439 1439 81
Width: 0
GlyphClass: 4
Flags: W
AnchorPoint: "Anchor-7" 218 533 mark 0
AnchorPoint: "Anchor-3" 218 533 mark 0
LayerCount: 2
Fore
SplineSet
258 646 m 1,0,-1
 232 671 l 1,1,-1
 260 699 l 1,2,3
 251 714 251 714 251 733 c 0,4,5
 251 761 251 761 270.5 780 c 128,-1,6
 290 799 290 799 318 799 c 256,7,8
 346 799 346 799 366 780 c 128,-1,9
 386 761 386 761 386 733 c 256,10,11
 386 705 386 705 366.5 685 c 128,-1,12
 347 665 347 665 318 665 c 0,13,14
 300 665 300 665 286 672 c 1,15,-1
 258 646 l 1,0,-1
178 646 m 1,16,-1
 150 672 l 1,17,18
 136 665 136 665 118 665 c 0,19,20
 89 665 89 665 69.5 685 c 128,-1,21
 50 705 50 705 50 733 c 256,22,23
 50 761 50 761 70 780 c 128,-1,24
 90 799 90 799 118 799 c 256,25,26
 146 799 146 799 165.5 780 c 128,-1,27
 185 761 185 761 185 733 c 0,28,29
 185 714 185 714 176 699 c 1,30,-1
 204 671 l 1,31,-1
 178 646 l 1,16,-1
119 696 m 0,32,33
 133 696 133 696 144 706.5 c 128,-1,34
 155 717 155 717 155 733 c 0,35,36
 155 748 155 748 144 759 c 128,-1,37
 133 770 133 770 119 770 c 0,38,39
 104 770 104 770 92.5 758.5 c 128,-1,40
 81 747 81 747 81 733 c 0,41,42
 81 718 81 718 92 707 c 128,-1,43
 103 696 103 696 119 696 c 0,32,33
317 696 m 0,44,45
 333 696 333 696 344 707 c 128,-1,46
 355 718 355 718 355 733 c 0,47,48
 355 747 355 747 344 758.5 c 128,-1,49
 333 770 333 770 317 770 c 0,50,51
 303 770 303 770 292.5 759 c 128,-1,52
 282 748 282 748 282 733 c 0,53,54
 282 717 282 717 292.5 706.5 c 128,-1,55
 303 696 303 696 317 696 c 0,44,45
EndSplineSet
EndChar

StartChar: uni05E7
Encoding: 1511 1511 82
Width: 615
GlyphClass: 2
Flags: W
AnchorPoint: "Anchor-4" 60 533 basechar 0
AnchorPoint: "Anchor-3" 304 533 basechar 0
AnchorPoint: "Anchor-2" 272 302 basechar 0
AnchorPoint: "Anchor-1" 15 0 basechar 0
AnchorPoint: "Anchor-0" 364 0 basechar 0
LayerCount: 2
Fore
SplineSet
332 0 m 1,0,-1
 501 535 l 1,1,-1
 72 535 l 1,2,-1
 80 589 l 1,3,-1
 578 589 l 1,4,-1
 570 544 l 1,5,-1
 398 0 l 1,6,-1
 332 0 l 1,0,-1
104 -194 m 1,7,-1
 104 382 l 1,8,-1
 170 389 l 1,9,-1
 170 -190 l 1,10,-1
 104 -194 l 1,7,-1
EndSplineSet
EndChar

StartChar: uni05BB
Encoding: 1467 1467 84
Width: 0
GlyphClass: 4
Flags: W
AnchorPoint: "Anchor-6" 147 0 mark 0
AnchorPoint: "Anchor-0" 147 0 mark 0
LayerCount: 2
Fore
SplineSet
78 -122 m 0,0,1
 67 -122 67 -122 59.5 -114.5 c 128,-1,2
 52 -107 52 -107 52 -96 c 256,3,4
 52 -85 52 -85 59.5 -77.5 c 128,-1,5
 67 -70 67 -70 78 -70 c 0,6,7
 88 -70 88 -70 95.5 -77.5 c 128,-1,8
 103 -85 103 -85 103 -96 c 256,9,10
 103 -107 103 -107 95.5 -114.5 c 128,-1,11
 88 -122 88 -122 78 -122 c 0,0,1
147 -169 m 0,12,13
 136 -169 136 -169 128.5 -161.5 c 128,-1,14
 121 -154 121 -154 121 -143 c 0,15,16
 121 -133 121 -133 128.5 -125.5 c 128,-1,17
 136 -118 136 -118 147 -118 c 0,18,19
 157 -118 157 -118 164.5 -125.5 c 128,-1,20
 172 -133 172 -133 172 -143 c 0,21,22
 172 -154 172 -154 164.5 -161.5 c 128,-1,23
 157 -169 157 -169 147 -169 c 0,12,13
215 -215 m 0,24,25
 204 -215 204 -215 196.5 -207.5 c 128,-1,26
 189 -200 189 -200 189 -189 c 256,27,28
 189 -178 189 -178 196.5 -171 c 128,-1,29
 204 -164 204 -164 215 -164 c 0,30,31
 225 -164 225 -164 232.5 -171 c 128,-1,32
 240 -178 240 -178 240 -189 c 256,33,34
 240 -200 240 -200 232.5 -207.5 c 128,-1,35
 225 -215 225 -215 215 -215 c 0,24,25
EndSplineSet
EndChar

StartChar: uni05BF
Encoding: 1471 1471 85
Width: 0
GlyphClass: 4
Flags: W
AnchorPoint: "Anchor-7" 142 533 mark 0
AnchorPoint: "Anchor-3" 142 533 mark 0
LayerCount: 2
Fore
SplineSet
51 671 m 1,0,-1
 51 703 l 1,1,-1
 234 703 l 1,2,-1
 234 671 l 1,3,-1
 51 671 l 1,0,-1
EndSplineSet
EndChar

StartChar: uni05E8
Encoding: 1512 1512 86
Width: 515
GlyphClass: 2
Flags: W
AnchorPoint: "Anchor-4" -8 533 basechar 0
AnchorPoint: "Anchor-3" 194 533 basechar 0
AnchorPoint: "Anchor-2" 187 298 basechar 0
AnchorPoint: "Anchor-1" 187 0 basechar 0
AnchorPoint: "Anchor-0" 402 0 basechar 0
LayerCount: 2
Fore
SplineSet
369 0 m 1,0,-1
 369 408 l 2,1,2
 369 472 369 472 339 503 c 128,-1,3
 309 534 309 534 247 534 c 2,4,-1
 41 534 l 1,5,-1
 49 589 l 1,6,-1
 253 589 l 2,7,8
 343 589 343 589 389 544 c 128,-1,9
 435 499 435 499 435 411 c 2,10,-1
 435 0 l 1,11,-1
 369 0 l 1,0,-1
EndSplineSet
PairPos2: "'kern' Horizontal Kerning in Hebrew lookup 2 per glyph data 2" uni05EA dx=-21 dy=0 dh=-21 dv=0 dx=0 dy=0 dh=0 dv=0
PairPos2: "'kern' Horizontal Kerning in Hebrew lookup 2 per glyph data 2" uni05E1 dx=-6 dy=0 dh=-6 dv=0 dx=0 dy=0 dh=0 dv=0
PairPos2: "'kern' Horizontal Kerning in Hebrew lookup 2 per glyph data 2" uni05E4 dx=-6 dy=0 dh=-6 dv=0 dx=0 dy=0 dh=0 dv=0
PairPos2: "'kern' Horizontal Kerning in Hebrew lookup 2 per glyph data 2" uni05DE dx=-4 dy=0 dh=-4 dv=0 dx=0 dy=0 dh=0 dv=0
PairPos2: "'kern' Horizontal Kerning in Hebrew lookup 2 per glyph data 2" uni05DB dx=-24 dy=0 dh=-24 dv=0 dx=0 dy=0 dh=0 dv=0
PairPos2: "'kern' Horizontal Kerning in Hebrew lookup 2 per glyph data 2" uni05E3 dx=-30 dy=0 dh=-30 dv=0 dx=0 dy=0 dh=0 dv=0
PairPos2: "'kern' Horizontal Kerning in Hebrew lookup 2 per glyph data 2" uni05DA dx=-9 dy=0 dh=-9 dv=0 dx=0 dy=0 dh=0 dv=0
PairPos2: "'kern' Horizontal Kerning in Hebrew lookup 2 per glyph data 2" uni05D1 dx=-40 dy=0 dh=-40 dv=0 dx=0 dy=0 dh=0 dv=0
PairPos2: "'kern' Horizontal Kerning in Hebrew lookup 2 per glyph data 1" uni05D8 dx=-20 dy=0 dh=-20 dv=0 dx=0 dy=0 dh=0 dv=0
PairPos2: "'kern' Horizontal Kerning in Hebrew lookup 2 per glyph data 1" uni05E8 dx=-20 dy=0 dh=-20 dv=0 dx=0 dy=0 dh=0 dv=0
EndChar

StartChar: uni0597
Encoding: 1431 1431 88
Width: 0
GlyphClass: 4
Flags: W
AnchorPoint: "Anchor-4" 132 533 mark 0
LayerCount: 2
Fore
SplineSet
100 650 m 1,0,-1
 54 701 l 1,1,-1
 100 753 l 1,2,-1
 147 701 l 1,3,-1
 100 650 l 1,0,-1
EndSplineSet
EndChar

StartChar: uni05E1
Encoding: 1505 1505 89
Width: 628
GlyphClass: 2
Flags: W
AnchorPoint: "Anchor-4" 16 533 basechar 0
AnchorPoint: "Anchor-3" 325 533 basechar 0
AnchorPoint: "Anchor-2" 321 298 basechar 0
AnchorPoint: "Anchor-1" 60 0 basechar 0
AnchorPoint: "Anchor-0" 322 0 basechar 0
LayerCount: 2
Fore
SplineSet
321 -10 m 0,0,1
 200 -10 200 -10 141.5 64.5 c 128,-1,2
 83 139 83 139 83 288 c 2,3,-1
 83 299 l 2,4,5
 83 367 83 367 103 427.5 c 128,-1,6
 123 488 123 488 152 529 c 1,7,-1
 152 540 l 1,8,-1
 222 548 l 1,9,-1
 208 531 l 1,10,11
 180 489 180 489 164 427.5 c 128,-1,12
 148 366 148 366 148 299 c 0,13,14
 148 169 148 169 189.5 105.5 c 128,-1,15
 231 42 231 42 321 42 c 0,16,17
 418 42 418 42 462.5 115 c 128,-1,18
 507 188 507 188 507 327 c 0,19,20
 507 429 507 429 473 481.5 c 128,-1,21
 439 534 439 534 360 534 c 2,22,-1
 47 534 l 1,23,-1
 55 589 l 1,24,-1
 363 589 l 2,25,26
 472 589 472 589 522.5 522.5 c 128,-1,27
 573 456 573 456 573 329 c 0,28,29
 573 163 573 163 511.5 76.5 c 128,-1,30
 450 -10 450 -10 321 -10 c 0,0,1
EndSplineSet
PairPos2: "'kern' Horizontal Kerning in Hebrew lookup 2 per glyph data 2" uni05D8 dx=-2 dy=0 dh=-2 dv=0 dx=0 dy=0 dh=0 dv=0
PairPos2: "'kern' Horizontal Kerning in Hebrew lookup 2 per glyph data 2" uni05E1 dx=-2 dy=0 dh=-2 dv=0 dx=0 dy=0 dh=0 dv=0
PairPos2: "'kern' Horizontal Kerning in Hebrew lookup 2 per glyph data 2" uni05E8 dx=-6 dy=0 dh=-6 dv=0 dx=0 dy=0 dh=0 dv=0
PairPos2: "'kern' Horizontal Kerning in Hebrew lookup 2 per glyph data 2" uni05E4 dx=-16 dy=0 dh=-16 dv=0 dx=0 dy=0 dh=0 dv=0
PairPos2: "'kern' Horizontal Kerning in Hebrew lookup 2 per glyph data 2" uni05DC dx=-2 dy=0 dh=-2 dv=0 dx=0 dy=0 dh=0 dv=0
PairPos2: "'kern' Horizontal Kerning in Hebrew lookup 2 per glyph data 2" uni05E3 dx=-39 dy=0 dh=-39 dv=0 dx=0 dy=0 dh=0 dv=0
PairPos2: "'kern' Horizontal Kerning in Hebrew lookup 2 per glyph data 1" uni05DA dx=-30 dy=0 dh=-30 dv=0 dx=0 dy=0 dh=0 dv=0
EndChar

StartChar: uni05B6
Encoding: 1462 1462 91
Width: 0
GlyphClass: 4
Flags: W
AnchorPoint: "Anchor-6" 130 0 mark 0
AnchorPoint: "Anchor-0" 130 0 mark 0
LayerCount: 2
Fore
SplineSet
78 -122 m 0,0,1
 67 -122 67 -122 59.5 -114.5 c 128,-1,2
 52 -107 52 -107 52 -96 c 256,3,4
 52 -85 52 -85 59.5 -77.5 c 128,-1,5
 67 -70 67 -70 78 -70 c 0,6,7
 88 -70 88 -70 95.5 -77.5 c 128,-1,8
 103 -85 103 -85 103 -96 c 256,9,10
 103 -107 103 -107 95.5 -114.5 c 128,-1,11
 88 -122 88 -122 78 -122 c 0,0,1
181 -122 m 0,12,13
 170 -122 170 -122 162.5 -114.5 c 128,-1,14
 155 -107 155 -107 155 -96 c 256,15,16
 155 -85 155 -85 162.5 -77.5 c 128,-1,17
 170 -70 170 -70 181 -70 c 0,18,19
 191 -70 191 -70 198.5 -77.5 c 128,-1,20
 206 -85 206 -85 206 -96 c 256,21,22
 206 -107 206 -107 198.5 -114.5 c 128,-1,23
 191 -122 191 -122 181 -122 c 0,12,13
129 -215 m 0,24,25
 118 -215 118 -215 110.5 -207.5 c 128,-1,26
 103 -200 103 -200 103 -189 c 256,27,28
 103 -178 103 -178 110.5 -171 c 128,-1,29
 118 -164 118 -164 129 -164 c 0,30,31
 139 -164 139 -164 146.5 -171 c 128,-1,32
 154 -178 154 -178 154 -189 c 256,33,34
 154 -200 154 -200 146.5 -207.5 c 128,-1,35
 139 -215 139 -215 129 -215 c 0,24,25
EndSplineSet
EndChar

StartChar: uni0592
Encoding: 1426 1426 92
Width: 0
GlyphClass: 4
Flags: W
AnchorPoint: "Anchor-4" 143 533 mark 0
LayerCount: 2
Fore
SplineSet
130 751 m 0,0,1
 118 751 118 751 110.5 759 c 128,-1,2
 103 767 103 767 103 778 c 256,3,4
 103 789 103 789 110.5 797 c 128,-1,5
 118 805 118 805 130 805 c 0,6,7
 140 805 140 805 148 797 c 128,-1,8
 156 789 156 789 156 778 c 256,9,10
 156 767 156 767 148 759 c 128,-1,11
 140 751 140 751 130 751 c 0,0,1
79 659 m 0,12,13
 67 659 67 659 59.5 666.5 c 128,-1,14
 52 674 52 674 52 686 c 0,15,16
 52 696 52 696 59.5 704 c 128,-1,17
 67 712 67 712 79 712 c 0,18,19
 89 712 89 712 97 704 c 128,-1,20
 105 696 105 696 105 686 c 0,21,22
 105 674 105 674 97 666.5 c 128,-1,23
 89 659 89 659 79 659 c 0,12,13
181 659 m 256,24,25
 170 659 170 659 162 666.5 c 128,-1,26
 154 674 154 674 154 686 c 0,27,28
 154 696 154 696 162 704 c 128,-1,29
 170 712 170 712 181 712 c 256,30,31
 192 712 192 712 200 704 c 128,-1,32
 208 696 208 696 208 686 c 0,33,34
 208 674 208 674 200 666.5 c 128,-1,35
 192 659 192 659 181 659 c 256,24,25
EndSplineSet
EndChar

StartChar: uni0593
Encoding: 1427 1427 93
Width: 0
GlyphClass: 4
Flags: W
AnchorPoint: "Anchor-7" 101 533 mark 0
AnchorPoint: "Anchor-3" 101 533 mark 0
LayerCount: 2
Fore
SplineSet
50 652 m 1,0,-1
 103 680 l 1,1,-1
 54 708 l 1,2,-1
 103 736 l 1,3,-1
 54 764 l 1,4,-1
 103 792 l 1,5,-1
 148 792 l 1,6,-1
 99 764 l 1,7,-1
 148 736 l 1,8,-1
 99 708 l 1,9,-1
 148 680 l 1,10,-1
 92 652 l 1,11,-1
 50 652 l 1,0,-1
EndSplineSet
EndChar

StartChar: uni20AA
Encoding: 8362 8362 94
Width: 761
GlyphClass: 1
Flags: W
LayerCount: 2
Fore
SplineSet
274 0 m 1,0,-1
 274 425 l 1,1,-1
 320 425 l 1,2,-1
 320 55 l 1,3,-1
 480 55 l 2,4,5
 526 55 526 55 556.5 68.5 c 128,-1,6
 587 82 587 82 602.5 113.5 c 128,-1,7
 618 145 618 145 618 199 c 2,8,-1
 618 589 l 1,9,-1
 680 589 l 1,10,-1
 680 197 l 2,11,12
 680 128 680 128 658.5 84.5 c 128,-1,13
 637 41 637 41 595.5 20.5 c 128,-1,14
 554 0 554 0 492 0 c 2,15,-1
 274 0 l 1,0,-1
87 0 m 1,16,-1
 87 589 l 1,17,-1
 323 589 l 2,18,19
 380 589 380 589 417.5 570.5 c 128,-1,20
 455 552 455 552 474 514 c 128,-1,21
 493 476 493 476 493 418 c 2,22,-1
 493 165 l 1,23,-1
 446 165 l 1,24,-1
 446 409 l 2,25,26
 446 477 446 477 415 505.5 c 128,-1,27
 384 534 384 534 327 534 c 2,28,-1
 148 534 l 1,29,-1
 148 0 l 1,30,-1
 87 0 l 1,16,-1
EndSplineSet
EndChar

StartChar: uni05B0
Encoding: 1456 1456 95
Width: 0
GlyphClass: 4
Flags: W
AnchorPoint: "Anchor-6" 77 0 mark 0
AnchorPoint: "Anchor-0" 77 0 mark 0
LayerCount: 2
Fore
SplineSet
77 -122 m 256,0,1
 66 -122 66 -122 58.5 -114.5 c 128,-1,2
 51 -107 51 -107 51 -96 c 256,3,4
 51 -85 51 -85 58.5 -77.5 c 128,-1,5
 66 -70 66 -70 77 -70 c 256,6,7
 88 -70 88 -70 95.5 -77.5 c 128,-1,8
 103 -85 103 -85 103 -96 c 256,9,10
 103 -107 103 -107 95.5 -114.5 c 128,-1,11
 88 -122 88 -122 77 -122 c 256,0,1
77 -215 m 256,12,13
 66 -215 66 -215 58.5 -207.5 c 128,-1,14
 51 -200 51 -200 51 -189 c 256,15,16
 51 -178 51 -178 58.5 -171 c 128,-1,17
 66 -164 66 -164 77 -164 c 256,18,19
 88 -164 88 -164 95.5 -171 c 128,-1,20
 103 -178 103 -178 103 -189 c 256,21,22
 103 -200 103 -200 95.5 -207.5 c 128,-1,23
 88 -215 88 -215 77 -215 c 256,12,13
EndSplineSet
EndChar

StartChar: uni05E9
Encoding: 1513 1513 96
Width: 706
GlyphClass: 2
Flags: W
AnchorPoint: "Anchor-5" 607 533 basechar 0
AnchorPoint: "Anchor-4" 101 533 basechar 0
AnchorPoint: "Anchor-3" 352 533 basechar 0
AnchorPoint: "Anchor-2" 436 222 basechar 0
AnchorPoint: "Anchor-1" 127 0 basechar 0
AnchorPoint: "Anchor-0" 354 0 basechar 0
LayerCount: 2
Fore
SplineSet
345 -2 m 2,0,1
 255 -2 255 -2 193 38 c 128,-1,2
 131 78 131 78 99 154 c 128,-1,3
 67 230 67 230 67 339 c 2,4,-1
 67 589 l 1,5,-1
 133 589 l 1,6,-1
 133 337 l 2,7,8
 133 245 133 245 157 180.5 c 128,-1,9
 181 116 181 116 228.5 83 c 128,-1,10
 276 50 276 50 344 50 c 2,11,-1
 356 50 l 2,12,13
 427 51 427 51 475 83.5 c 128,-1,14
 523 116 523 116 547.5 180 c 128,-1,15
 572 244 572 244 572 337 c 2,16,-1
 572 589 l 1,17,-1
 638 589 l 1,18,-1
 638 339 l 2,19,20
 638 230 638 230 605.5 154 c 128,-1,21
 573 78 573 78 510.5 38 c 128,-1,22
 448 -2 448 -2 357 -2 c 2,23,-1
 345 -2 l 2,0,1
116 228 m 1,24,-1
 111 275 l 1,25,26
 178 272 178 272 224.5 294.5 c 128,-1,27
 271 317 271 317 295.5 363 c 128,-1,28
 320 409 320 409 320 475 c 2,29,-1
 320 589 l 1,30,-1
 385 589 l 1,31,-1
 385 479 l 2,32,33
 385 420 385 420 367.5 372 c 128,-1,34
 350 324 350 324 316 291.5 c 128,-1,35
 282 259 282 259 231.5 242.5 c 128,-1,36
 181 226 181 226 116 228 c 1,24,-1
EndSplineSet
PairPos2: "'kern' Horizontal Kerning in Hebrew lookup 2 per glyph data 2" uni05D6 dx=0 dy=0 dh=0 dv=0 dx=0 dy=0 dh=0 dv=0
PairPos2: "'kern' Horizontal Kerning in Hebrew lookup 2 per glyph data 2" uni05D8 dx=-2 dy=0 dh=-2 dv=0 dx=0 dy=0 dh=0 dv=0
PairPos2: "'kern' Horizontal Kerning in Hebrew lookup 2 per glyph data 2" uni05E1 dx=-6 dy=0 dh=-6 dv=0 dx=0 dy=0 dh=0 dv=0
PairPos2: "'kern' Horizontal Kerning in Hebrew lookup 2 per glyph data 2" uni05E8 dx=-4 dy=0 dh=-4 dv=0 dx=0 dy=0 dh=0 dv=0
PairPos2: "'kern' Horizontal Kerning in Hebrew lookup 2 per glyph data 2" uni05E7 dx=0 dy=0 dh=0 dv=0 dx=0 dy=0 dh=0 dv=0
PairPos2: "'kern' Horizontal Kerning in Hebrew lookup 2 per glyph data 2" uni05E4 dx=-4 dy=0 dh=-4 dv=0 dx=0 dy=0 dh=0 dv=0
PairPos2: "'kern' Horizontal Kerning in Hebrew lookup 2 per glyph data 2" uni05DB dx=-22 dy=0 dh=-22 dv=0 dx=0 dy=0 dh=0 dv=0
PairPos2: "'kern' Horizontal Kerning in Hebrew lookup 2 per glyph data 2" uni05E3 dx=0 dy=0 dh=0 dv=0 dx=0 dy=0 dh=0 dv=0
PairPos2: "'kern' Horizontal Kerning in Hebrew lookup 2 per glyph data 2" uni05DD dx=-4 dy=0 dh=-4 dv=0 dx=0 dy=0 dh=0 dv=0
PairPos2: "'kern' Horizontal Kerning in Hebrew lookup 2 per glyph data 2" uni05DA dx=0 dy=0 dh=0 dv=0 dx=0 dy=0 dh=0 dv=0
PairPos2: "'kern' Horizontal Kerning in Hebrew lookup 2 per glyph data 2" uni05D1 dx=-22 dy=0 dh=-22 dv=0 dx=0 dy=0 dh=0 dv=0
EndChar

StartChar: uni05C1
Encoding: 1473 1473 100
Width: 0
GlyphClass: 4
Flags: W
AnchorPoint: "Anchor-5" 78 533 mark 0
LayerCount: 2
Fore
SplineSet
79 660 m 0,0,1
 68 660 68 660 60.5 667.5 c 128,-1,2
 53 675 53 675 53 686 c 0,3,4
 53 696 53 696 60.5 703.5 c 128,-1,5
 68 711 68 711 79 711 c 0,6,7
 89 711 89 711 96.5 703.5 c 128,-1,8
 104 696 104 696 104 686 c 0,9,10
 104 675 104 675 96.5 667.5 c 128,-1,11
 89 660 89 660 79 660 c 0,0,1
EndSplineSet
EndChar

StartChar: uni05BD
Encoding: 1469 1469 103
Width: 0
GlyphClass: 4
Flags: W
AnchorPoint: "Anchor-1" 68 0 mark 0
LayerCount: 2
Fore
SplineSet
51 -219 m 1,0,-1
 51 -68 l 1,1,-1
 84 -68 l 1,2,-1
 84 -219 l 1,3,-1
 51 -219 l 1,0,-1
EndSplineSet
EndChar

StartChar: uni05C2
Encoding: 1474 1474 104
Width: 0
GlyphClass: 4
Flags: W
AnchorPoint: "Anchor-4" 78 533 mark 0
LayerCount: 2
Fore
SplineSet
78 661 m 0,0,1
 67 661 67 661 59.5 668.5 c 128,-1,2
 52 676 52 676 52 687 c 0,3,4
 52 697 52 697 59.5 704.5 c 128,-1,5
 67 712 67 712 78 712 c 0,6,7
 88 712 88 712 95.5 704.5 c 128,-1,8
 103 697 103 697 103 687 c 0,9,10
 103 676 103 676 95.5 668.5 c 128,-1,11
 88 661 88 661 78 661 c 0,0,1
EndSplineSet
EndChar

StartChar: uni05C3
Encoding: 1475 1475 105
Width: 235
GlyphClass: 1
Flags: W
LayerCount: 2
Fore
SplineSet
76 35 m 0,0,1
 76 56 76 56 86.5 68 c 128,-1,2
 97 80 97 80 118 80 c 0,3,4
 141 80 141 80 150.5 68 c 128,-1,5
 160 56 160 56 160 35 c 0,6,7
 160 15 160 15 150.5 3 c 128,-1,8
 141 -9 141 -9 118 -9 c 0,9,10
 97 -9 97 -9 86.5 3 c 128,-1,11
 76 15 76 15 76 35 c 0,0,1
76 494 m 0,12,13
 76 514 76 514 86.5 526 c 128,-1,14
 97 538 97 538 118 538 c 0,15,16
 141 538 141 538 150.5 526 c 128,-1,17
 160 514 160 514 160 494 c 0,18,19
 160 473 160 473 150.5 461 c 128,-1,20
 141 449 141 449 118 449 c 0,21,22
 97 449 97 449 86.5 461 c 128,-1,23
 76 473 76 473 76 494 c 0,12,13
EndSplineSet
EndChar

StartChar: uni05EA
Encoding: 1514 1514 107
Width: 669
GlyphClass: 2
Flags: W
AnchorPoint: "Anchor-4" 81 533 basechar 0
AnchorPoint: "Anchor-3" 336 530 basechar 0
AnchorPoint: "Anchor-2" 365 295 basechar 0
AnchorPoint: "Anchor-1" 38 0 basechar 0
AnchorPoint: "Anchor-0" 365 0 basechar 0
LayerCount: 2
Fore
SplineSet
524 0 m 1,0,-1
 524 408 l 2,1,2
 524 472 524 472 494 503 c 128,-1,3
 464 534 464 534 402 534 c 2,4,-1
 151 534 l 1,5,-1
 151 589 l 1,6,-1
 408 589 l 2,7,8
 498 589 498 589 544 544 c 128,-1,9
 590 499 590 499 590 411 c 2,10,-1
 590 0 l 1,11,-1
 524 0 l 1,0,-1
35 0 m 1,12,-1
 43 55 l 1,13,-1
 79 55 l 2,14,15
 105 55 105 55 120.5 65.5 c 128,-1,16
 136 76 136 76 143.5 97 c 128,-1,17
 151 118 151 118 151 150 c 2,18,-1
 151 572 l 1,19,-1
 217 572 l 1,20,-1
 217 141 l 2,21,22
 217 73 217 73 183.5 36.5 c 128,-1,23
 150 0 150 0 88 0 c 2,24,-1
 35 0 l 1,12,-1
57 534 m 1,25,-1
 65 589 l 1,26,-1
 179 589 l 1,27,-1
 179 534 l 1,28,-1
 57 534 l 1,25,-1
EndSplineSet
PairPos2: "'kern' Horizontal Kerning in Hebrew lookup 2 per glyph data 2" uni05D6 dx=-50 dy=0 dh=-50 dv=0 dx=0 dy=0 dh=0 dv=0
PairPos2: "'kern' Horizontal Kerning in Hebrew lookup 2 per glyph data 2" uni05D9 dx=-12 dy=0 dh=-12 dv=0 dx=0 dy=0 dh=0 dv=0
PairPos2: "'kern' Horizontal Kerning in Hebrew lookup 2 per glyph data 2" uni05E9 dx=-20 dy=0 dh=-20 dv=0 dx=0 dy=0 dh=0 dv=0
PairPos2: "'kern' Horizontal Kerning in Hebrew lookup 2 per glyph data 2" uni05E1 dx=-40 dy=0 dh=-40 dv=0 dx=0 dy=0 dh=0 dv=0
PairPos2: "'kern' Horizontal Kerning in Hebrew lookup 2 per glyph data 2" uni05E4 dx=-31 dy=0 dh=-31 dv=0 dx=0 dy=0 dh=0 dv=0
PairPos2: "'kern' Horizontal Kerning in Hebrew lookup 2 per glyph data 2" uni05DE dx=-32 dy=0 dh=-32 dv=0 dx=0 dy=0 dh=0 dv=0
PairPos2: "'kern' Horizontal Kerning in Hebrew lookup 2 per glyph data 2" uni05DC dx=-2 dy=0 dh=-2 dv=0 dx=0 dy=0 dh=0 dv=0
PairPos2: "'kern' Horizontal Kerning in Hebrew lookup 2 per glyph data 2" uni05DB dx=-24 dy=0 dh=-24 dv=0 dx=0 dy=0 dh=0 dv=0
PairPos2: "'kern' Horizontal Kerning in Hebrew lookup 2 per glyph data 2" uni05D3 dx=-42 dy=0 dh=-42 dv=0 dx=0 dy=0 dh=0 dv=0
PairPos2: "'kern' Horizontal Kerning in Hebrew lookup 2 per glyph data 2" uni05E2 dx=-40 dy=0 dh=-40 dv=0 dx=0 dy=0 dh=0 dv=0
EndChar

StartChar: uni05A0
Encoding: 1440 1440 109
Width: 0
GlyphClass: 4
Flags: W
AnchorPoint: "Anchor-7" 127 533 mark 0
AnchorPoint: "Anchor-3" 127 533 mark 0
LayerCount: 2
Fore
SplineSet
76 646 m 1,0,-1
 50 671 l 1,1,-1
 78 699 l 1,2,3
 69 714 69 714 69 733 c 0,4,5
 69 761 69 761 88.5 780 c 128,-1,6
 108 799 108 799 136 799 c 256,7,8
 164 799 164 799 184 780 c 128,-1,9
 204 761 204 761 204 733 c 256,10,11
 204 705 204 705 184.5 685 c 128,-1,12
 165 665 165 665 136 665 c 0,13,14
 128 665 128 665 119.5 667 c 128,-1,15
 111 669 111 669 104 672 c 1,16,-1
 76 646 l 1,0,-1
135 696 m 0,17,18
 151 696 151 696 162 707 c 128,-1,19
 173 718 173 718 173 733 c 0,20,21
 173 747 173 747 162 758.5 c 128,-1,22
 151 770 151 770 135 770 c 0,23,24
 121 770 121 770 110.5 759 c 128,-1,25
 100 748 100 748 100 733 c 0,26,27
 100 717 100 717 110.5 706.5 c 128,-1,28
 121 696 121 696 135 696 c 0,17,18
EndSplineSet
EndChar

StartChar: uni05A9
Encoding: 1449 1449 110
Width: 0
GlyphClass: 4
Flags: W
AnchorPoint: "Anchor-4" 124 533 mark 0
LayerCount: 2
Fore
SplineSet
178 646 m 1,0,-1
 150 672 l 1,1,2
 143 669 143 669 135 667 c 128,-1,3
 127 665 127 665 118 665 c 0,4,5
 89 665 89 665 69.5 685 c 128,-1,6
 50 705 50 705 50 733 c 256,7,8
 50 761 50 761 70 780 c 128,-1,9
 90 799 90 799 118 799 c 256,10,11
 146 799 146 799 165.5 780 c 128,-1,12
 185 761 185 761 185 733 c 0,13,14
 185 714 185 714 176 699 c 1,15,-1
 204 671 l 1,16,-1
 178 646 l 1,0,-1
119 696 m 0,17,18
 133 696 133 696 144 706.5 c 128,-1,19
 155 717 155 717 155 733 c 0,20,21
 155 748 155 748 144 759 c 128,-1,22
 133 770 133 770 119 770 c 0,23,24
 104 770 104 770 92.5 758.5 c 128,-1,25
 81 747 81 747 81 733 c 0,26,27
 81 718 81 718 92 707 c 128,-1,28
 103 696 103 696 119 696 c 0,17,18
EndSplineSet
EndChar

StartChar: uni05D8
Encoding: 1496 1496 111
Width: 622
GlyphClass: 2
Flags: W
AnchorPoint: "Anchor-4" 66 533 basechar 0
AnchorPoint: "Anchor-3" 255 533 basechar 0
AnchorPoint: "Anchor-2" 309 314 basechar 0
AnchorPoint: "Anchor-1" 5 0 basechar 0
AnchorPoint: "Anchor-0" 308 -2 basechar 0
LayerCount: 2
Fore
SplineSet
309 -10 m 0,0,1
 192 -10 192 -10 127.5 74 c 128,-1,2
 63 158 63 158 63 322 c 2,3,-1
 63 589 l 1,4,-1
 128 589 l 1,5,-1
 128 322 l 2,6,7
 128 185 128 185 176 113.5 c 128,-1,8
 224 42 224 42 308 42 c 0,9,10
 399 42 399 42 450.5 113.5 c 128,-1,11
 502 185 502 185 502 322 c 0,12,13
 502 427 502 427 472.5 484.5 c 128,-1,14
 443 542 443 542 371 540 c 0,15,16
 349 539 349 539 329 536 c 128,-1,17
 309 533 309 533 288 529 c 1,18,-1
 288 583 l 1,19,20
 312 587 312 587 334.5 590 c 128,-1,21
 357 593 357 593 381 593 c 0,22,23
 482 595 482 595 524.5 524.5 c 128,-1,24
 567 454 567 454 567 322 c 0,25,26
 567 158 567 158 499.5 74 c 128,-1,27
 432 -10 432 -10 309 -10 c 0,0,1
EndSplineSet
PairPos2: "'kern' Horizontal Kerning in Hebrew lookup 2 per glyph data 2" uni05E8 dx=-16 dy=0 dh=-16 dv=0 dx=0 dy=0 dh=0 dv=0
PairPos2: "'kern' Horizontal Kerning in Hebrew lookup 2 per glyph data 2" uni05E7 dx=-24 dy=0 dh=-24 dv=0 dx=0 dy=0 dh=0 dv=0
PairPos2: "'kern' Horizontal Kerning in Hebrew lookup 2 per glyph data 2" uni05E4 dx=-26 dy=0 dh=-26 dv=0 dx=0 dy=0 dh=0 dv=0
PairPos2: "'kern' Horizontal Kerning in Hebrew lookup 2 per glyph data 2" uni05DB dx=-8 dy=0 dh=-8 dv=0 dx=0 dy=0 dh=0 dv=0
PairPos2: "'kern' Horizontal Kerning in Hebrew lookup 2 per glyph data 2" uni05E5 dx=-24 dy=0 dh=-24 dv=0 dx=0 dy=0 dh=0 dv=0
PairPos2: "'kern' Horizontal Kerning in Hebrew lookup 2 per glyph data 2" uni05E3 dx=-6 dy=0 dh=-6 dv=0 dx=0 dy=0 dh=0 dv=0
PairPos2: "'kern' Horizontal Kerning in Hebrew lookup 2 per glyph data 2" uni05DA dx=-11 dy=0 dh=-11 dv=0 dx=0 dy=0 dh=0 dv=0
PairPos2: "'kern' Horizontal Kerning in Hebrew lookup 2 per glyph data 2" uni05D3 dx=-16 dy=0 dh=-16 dv=0 dx=0 dy=0 dh=0 dv=0
PairPos2: "'kern' Horizontal Kerning in Hebrew lookup 2 per glyph data 1" uni05D8 dx=-20 dy=0 dh=-20 dv=0 dx=0 dy=0 dh=0 dv=0
EndChar

StartChar: uni059B
Encoding: 1435 1435 113
Width: 0
GlyphClass: 4
Flags: W
AnchorPoint: "Anchor-1" 158 0 mark 0
LayerCount: 2
Fore
SplineSet
54 -196 m 1,0,-1
 54 -161 l 1,1,2
 100 -161 100 -161 120 -140 c 128,-1,3
 140 -119 140 -119 140 -79 c 1,4,-1
 175 -79 l 1,5,6
 175 -134 175 -134 145.5 -165 c 128,-1,7
 116 -196 116 -196 54 -196 c 1,0,-1
77 -122 m 0,8,9
 67 -122 67 -122 59.5 -114.5 c 128,-1,10
 52 -107 52 -107 52 -95 c 0,11,12
 52 -84 52 -84 59.5 -76 c 128,-1,13
 67 -68 67 -68 77 -68 c 0,14,15
 89 -68 89 -68 96.5 -76 c 128,-1,16
 104 -84 104 -84 104 -95 c 0,17,18
 104 -107 104 -107 96.5 -114.5 c 128,-1,19
 89 -122 89 -122 77 -122 c 0,8,9
EndSplineSet
EndChar

StartChar: uni0596
Encoding: 1430 1430 114
Width: 0
GlyphClass: 4
Flags: W
AnchorPoint: "Anchor-1" 68 0 mark 0
LayerCount: 2
Fore
SplineSet
171 -196 m 1,0,1
 109 -196 109 -196 79.5 -165 c 128,-1,2
 50 -134 50 -134 50 -79 c 1,3,-1
 85 -79 l 1,4,5
 85 -119 85 -119 104.5 -140 c 128,-1,6
 124 -161 124 -161 171 -161 c 1,7,-1
 171 -196 l 1,0,1
EndSplineSet
EndChar

StartChar: uni05E6
Encoding: 1510 1510 115
Width: 540
GlyphClass: 2
Flags: W
AnchorPoint: "Anchor-4" 29 533 basechar 0
AnchorPoint: "Anchor-3" 273 533 basechar 0
AnchorPoint: "Anchor-2" 150 188 basechar 0
AnchorPoint: "Anchor-1" 10 0 basechar 0
AnchorPoint: "Anchor-0" 238 0 basechar 0
LayerCount: 2
Fore
SplineSet
421 6 m 1,0,-1
 52 589 l 1,1,-1
 129 589 l 1,2,-1
 325 272 l 1,3,-1
 469 45 l 1,4,-1
 421 6 l 1,0,-1
44 0 m 1,5,-1
 44 55 l 1,6,-1
 444 55 l 1,7,-1
 469 45 l 1,8,-1
 461 0 l 1,9,-1
 44 0 l 1,5,-1
311 231 m 1,10,-1
 291 279 l 1,11,12
 325 291 325 291 347 318 c 128,-1,13
 369 345 369 345 382.5 379.5 c 128,-1,14
 396 414 396 414 402.5 447 c 128,-1,15
 409 480 409 480 412 503 c 2,16,-1
 422 589 l 1,17,-1
 488 589 l 1,18,-1
 478 494 l 2,19,20
 475 466 475 466 465 428 c 128,-1,21
 455 390 455 390 436 350.5 c 128,-1,22
 417 311 417 311 386.5 279 c 128,-1,23
 356 247 356 247 311 231 c 1,10,-1
EndSplineSet
PairPos2: "'kern' Horizontal Kerning in Hebrew lookup 2 per glyph data 2" uni05D9 dx=-20 dy=0 dh=-20 dv=0 dx=0 dy=0 dh=0 dv=0
PairPos2: "'kern' Horizontal Kerning in Hebrew lookup 2 per glyph data 2" uni05D8 dx=0 dy=0 dh=0 dv=0 dx=0 dy=0 dh=0 dv=0
PairPos2: "'kern' Horizontal Kerning in Hebrew lookup 2 per glyph data 2" uni05E1 dx=-36 dy=0 dh=-36 dv=0 dx=0 dy=0 dh=0 dv=0
PairPos2: "'kern' Horizontal Kerning in Hebrew lookup 2 per glyph data 2" uni05E4 dx=-28 dy=0 dh=-28 dv=0 dx=0 dy=0 dh=0 dv=0
PairPos2: "'kern' Horizontal Kerning in Hebrew lookup 2 per glyph data 2" uni05DE dx=0 dy=0 dh=0 dv=0 dx=0 dy=0 dh=0 dv=0
PairPos2: "'kern' Horizontal Kerning in Hebrew lookup 2 per glyph data 2" uni05D4 dx=0 dy=0 dh=0 dv=0 dx=0 dy=0 dh=0 dv=0
PairPos2: "'kern' Horizontal Kerning in Hebrew lookup 2 per glyph data 2" uni05E3 dx=0 dy=0 dh=0 dv=0 dx=0 dy=0 dh=0 dv=0
PairPos2: "'kern' Horizontal Kerning in Hebrew lookup 2 per glyph data 2" uni05DD dx=-31 dy=0 dh=-31 dv=0 dx=0 dy=0 dh=0 dv=0
PairPos2: "'kern' Horizontal Kerning in Hebrew lookup 2 per glyph data 2" uni05D3 dx=-24 dy=0 dh=-24 dv=0 dx=0 dy=0 dh=0 dv=0
PairPos2: "'kern' Horizontal Kerning in Hebrew lookup 2 per glyph data 2" uni05D1 dx=-31 dy=0 dh=-31 dv=0 dx=0 dy=0 dh=0 dv=0
PairPos2: "'kern' Horizontal Kerning in Hebrew lookup 2 per glyph data 2" uni05D0 dx=-16 dy=0 dh=-16 dv=0 dx=0 dy=0 dh=0 dv=0
EndChar

StartChar: uni05B5
Encoding: 1461 1461 117
Width: 0
GlyphClass: 4
Flags: W
AnchorPoint: "Anchor-6" 126 0 mark 0
AnchorPoint: "Anchor-0" 126 0 mark 0
LayerCount: 2
Fore
SplineSet
77 -122 m 256,0,1
 66 -122 66 -122 58.5 -114.5 c 128,-1,2
 51 -107 51 -107 51 -96 c 256,3,4
 51 -85 51 -85 58.5 -77.5 c 128,-1,5
 66 -70 66 -70 77 -70 c 256,6,7
 88 -70 88 -70 95.5 -77.5 c 128,-1,8
 103 -85 103 -85 103 -96 c 256,9,10
 103 -107 103 -107 95.5 -114.5 c 128,-1,11
 88 -122 88 -122 77 -122 c 256,0,1
174 -122 m 256,12,13
 163 -122 163 -122 155.5 -114.5 c 128,-1,14
 148 -107 148 -107 148 -96 c 256,15,16
 148 -85 148 -85 155.5 -77.5 c 128,-1,17
 163 -70 163 -70 174 -70 c 256,18,19
 185 -70 185 -70 192 -77.5 c 128,-1,20
 199 -85 199 -85 199 -96 c 256,21,22
 199 -107 199 -107 192 -114.5 c 128,-1,23
 185 -122 185 -122 174 -122 c 256,12,13
EndSplineSet
EndChar

StartChar: uni200C
Encoding: 8204 8204 118
Width: 0
GlyphClass: 1
Flags: W
LayerCount: 2
Fore
SplineSet
18 679 m 1,0,-1
 18 -45 l 1,1,-1
 -18 -45 l 1,2,-1
 -18 679 l 1,3,-1
 18 679 l 1,0,-1
EndSplineSet
EndChar

StartChar: uni200D
Encoding: 8205 8205 119
Width: 0
GlyphClass: 1
Flags: W
LayerCount: 2
Fore
SplineSet
18 -45 m 1,0,-1
 -18 -45 l 1,1,-1
 -18 533 l 1,2,-1
 -83 467 l 1,3,-1
 -107 491 l 1,4,-1
 -23 573 l 1,5,-1
 -107 655 l 1,6,-1
 -83 679 l 1,7,-1
 0 596 l 1,8,-1
 83 679 l 1,9,-1
 107 655 l 1,10,-1
 23 573 l 1,11,-1
 107 491 l 1,12,-1
 83 467 l 1,13,-1
 18 533 l 1,14,-1
 18 -45 l 1,0,-1
EndSplineSet
EndChar

StartChar: uni200E
Encoding: 8206 8206 120
Width: 0
GlyphClass: 1
Flags: W
LayerCount: 2
Fore
SplineSet
210 574 m 1,0,-1
 104 470 l 1,1,-1
 80 494 l 1,2,-1
 147 557 l 1,3,-1
 17 557 l 1,4,-1
 17 -45 l 1,5,-1
 -18 -45 l 1,6,-1
 -18 592 l 1,7,-1
 147 592 l 1,8,-1
 80 655 l 1,9,-1
 104 679 l 1,10,-1
 210 574 l 1,0,-1
EndSplineSet
EndChar

StartChar: uni200F
Encoding: 8207 8207 121
Width: 0
GlyphClass: 1
Flags: W
LayerCount: 2
Fore
SplineSet
17 -45 m 1,0,-1
 -18 -45 l 1,1,-1
 -18 557 l 1,2,-1
 -147 557 l 1,3,-1
 -81 494 l 1,4,-1
 -104 470 l 1,5,-1
 -210 574 l 1,6,-1
 -104 679 l 1,7,-1
 -81 655 l 1,8,-1
 -147 592 l 1,9,-1
 17 592 l 1,10,-1
 17 -45 l 1,0,-1
EndSplineSet
EndChar

StartChar: uni25CC
Encoding: 9676 9676 122
Width: 594
GlyphClass: 2
Flags: W
AnchorPoint: "Anchor-5" 546 714 basechar 0
AnchorPoint: "Anchor-4" 48 714 basechar 0
AnchorPoint: "Anchor-3" 297 714 basechar 0
AnchorPoint: "Anchor-2" 297 291 basechar 0
AnchorPoint: "Anchor-1" 48 0 basechar 0
AnchorPoint: "Anchor-0" 297 0 basechar 0
LayerCount: 2
Fore
SplineSet
480 448 m 0,0,1
 480 422 480 422 455 422 c 0,2,3
 428 422 428 422 428 448 c 0,4,5
 428 475 428 475 455 475 c 0,6,7
 480 475 480 475 480 448 c 0,0,1
408 496 m 0,8,9
 408 470 408 470 383 470 c 0,10,11
 355 470 355 470 355 496 c 0,12,13
 355 523 355 523 383 523 c 0,14,15
 408 523 408 523 408 496 c 0,8,9
529 376 m 0,16,17
 529 349 529 349 502 349 c 0,18,19
 476 349 476 349 476 376 c 0,20,21
 476 402 476 402 503 402 c 0,22,23
 529 402 529 402 529 376 c 0,16,17
546 291 m 256,24,25
 546 265 546 265 521 265 c 0,26,27
 494 265 494 265 494 291 c 256,28,29
 494 317 494 317 521 317 c 0,30,31
 546 317 546 317 546 291 c 256,24,25
323 514 m 0,32,33
 323 487 323 487 297 487 c 256,34,35
 271 487 271 487 271 514 c 0,36,37
 271 540 271 540 297 540 c 256,38,39
 323 540 323 540 323 514 c 0,32,33
239 496 m 0,40,41
 239 470 239 470 212 470 c 0,42,43
 186 470 186 470 186 496 c 0,44,45
 186 523 186 523 212 523 c 0,46,47
 239 523 239 523 239 496 c 0,40,41
529 206 m 0,48,49
 529 180 529 180 502 180 c 0,50,51
 476 180 476 180 476 206 c 0,52,53
 476 233 476 233 502 233 c 0,54,55
 529 233 529 233 529 206 c 0,48,49
167 448 m 0,56,57
 167 422 167 422 140 422 c 0,58,59
 114 422 114 422 114 447 c 0,60,61
 114 475 114 475 140 475 c 0,62,63
 167 475 167 475 167 448 c 0,56,57
480 133 m 0,64,65
 480 107 480 107 455 107 c 0,66,67
 428 107 428 107 428 133 c 0,68,69
 428 160 428 160 455 160 c 0,70,71
 480 160 480 160 480 133 c 0,64,65
408 85 m 0,72,73
 408 60 408 60 383 60 c 0,74,75
 355 60 355 60 355 85 c 0,76,77
 355 112 355 112 383 112 c 0,78,79
 408 112 408 112 408 85 c 0,72,73
118 376 m 0,80,81
 118 349 118 349 93 349 c 0,82,83
 65 349 65 349 65 376 c 0,84,85
 65 402 65 402 92 402 c 0,86,87
 118 402 118 402 118 376 c 0,80,81
101 291 m 256,88,89
 101 265 101 265 75 265 c 0,90,91
 48 265 48 265 48 291 c 256,92,93
 48 317 48 317 75 317 c 0,94,95
 101 317 101 317 101 291 c 256,88,89
323 69 m 0,96,97
 323 42 323 42 297 42 c 256,98,99
 271 42 271 42 271 69 c 0,100,101
 271 95 271 95 297 95 c 256,102,103
 323 95 323 95 323 69 c 0,96,97
118 206 m 0,104,105
 118 180 118 180 92 180 c 0,106,107
 65 180 65 180 65 206 c 0,108,109
 65 233 65 233 92 233 c 0,110,111
 118 233 118 233 118 206 c 0,104,105
239 87 m 0,112,113
 239 60 239 60 212 60 c 0,114,115
 186 60 186 60 186 85 c 0,116,117
 186 112 186 112 212 112 c 0,118,119
 239 112 239 112 239 87 c 0,112,113
167 133 m 0,120,121
 167 107 167 107 140 107 c 0,122,123
 114 107 114 107 114 133 c 0,124,125
 114 160 114 160 140 160 c 0,126,127
 167 160 167 160 167 133 c 0,120,121
EndSplineSet
EndChar

StartChar: uni05C4
Encoding: 1476 1476 123
Width: 0
GlyphClass: 4
Flags: W
AnchorPoint: "Anchor-7" 78 533 mark 0
AnchorPoint: "Anchor-3" 78 533 mark 0
LayerCount: 2
Fore
SplineSet
78 661 m 0,0,1
 67 661 67 661 59.5 668.5 c 128,-1,2
 52 676 52 676 52 687 c 0,3,4
 52 697 52 697 59.5 704.5 c 128,-1,5
 67 712 67 712 78 712 c 0,6,7
 88 712 88 712 95.5 704.5 c 128,-1,8
 103 697 103 697 103 687 c 0,9,10
 103 676 103 676 95.5 668.5 c 128,-1,11
 88 661 88 661 78 661 c 0,0,1
EndSplineSet
EndChar

StartChar: uni05D5
Encoding: 1493 1493 124
Width: 285
GlyphClass: 2
Flags: W
AnchorPoint: "Anchor-4" 167 533 basechar 0
AnchorPoint: "Anchor-3" 167 533 basechar 0
AnchorPoint: "Anchor-2" 41 298 basechar 0
AnchorPoint: "Anchor-1" 81 0 basechar 0
AnchorPoint: "Anchor-0" 165 0 basechar 0
LayerCount: 2
Fore
SplineSet
134 0 m 1,0,-1
 134 589 l 1,1,-1
 200 589 l 1,2,-1
 200 0 l 1,3,-1
 134 0 l 1,0,-1
39 534 m 1,4,-1
 47 589 l 1,5,-1
 176 589 l 1,6,-1
 176 534 l 1,7,-1
 39 534 l 1,4,-1
EndSplineSet
PairPos2: "'kern' Horizontal Kerning in Hebrew lookup 2 per glyph data 2" uni05D8 dx=-18 dy=0 dh=-18 dv=0 dx=0 dy=0 dh=0 dv=0
PairPos2: "'kern' Horizontal Kerning in Hebrew lookup 2 per glyph data 2" uni05E1 dx=-4 dy=0 dh=-4 dv=0 dx=0 dy=0 dh=0 dv=0
PairPos2: "'kern' Horizontal Kerning in Hebrew lookup 2 per glyph data 2" uni05E8 dx=-6 dy=0 dh=-6 dv=0 dx=0 dy=0 dh=0 dv=0
PairPos2: "'kern' Horizontal Kerning in Hebrew lookup 2 per glyph data 2" uni05E4 dx=-20 dy=0 dh=-20 dv=0 dx=0 dy=0 dh=0 dv=0
PairPos2: "'kern' Horizontal Kerning in Hebrew lookup 2 per glyph data 2" uni05DD dx=-10 dy=0 dh=-10 dv=0 dx=0 dy=0 dh=0 dv=0
PairPos2: "'kern' Horizontal Kerning in Hebrew lookup 2 per glyph data 2" uni05D1 dx=-3 dy=0 dh=-3 dv=0 dx=0 dy=0 dh=0 dv=0
EndChar

StartChar: uniFB21
Encoding: 64289 64289 129
Width: 727
GlyphClass: 1
Flags: W
LayerCount: 2
Fore
SplineSet
609 0 m 1,0,1
 552 75 552 75 491 146.5 c 128,-1,2
 430 218 430 218 371 282 c 128,-1,3
 312 346 312 346 261 397 c 0,4,5
 228 431 228 431 199.5 459.5 c 128,-1,6
 171 488 171 488 147 512 c 128,-1,7
 123 536 123 536 103.5 555 c 128,-1,8
 84 574 84 574 68 589 c 1,9,-1
 150 589 l 1,10,11
 167 573 167 573 185 555 c 128,-1,12
 203 537 203 537 224 516 c 128,-1,13
 245 495 245 495 270 469 c 128,-1,14
 295 443 295 443 327 411 c 0,15,16
 379 356 379 356 440.5 289 c 128,-1,17
 502 222 502 222 566 148 c 128,-1,18
 630 74 630 74 688 0 c 1,19,-1
 609 0 l 1,0,1
37 0 m 1,20,-1
 67 190 l 2,21,22
 75 235 75 235 87 273.5 c 128,-1,23
 99 312 99 312 119 343.5 c 128,-1,24
 139 375 139 375 168.5 401 c 128,-1,25
 198 427 198 427 240 447 c 1,26,-1
 264 404 l 1,27,28
 221 381 221 381 195 350 c 128,-1,29
 169 319 169 319 155 279 c 128,-1,30
 141 239 141 239 133 190 c 2,31,-1
 103 0 l 1,32,-1
 37 0 l 1,20,-1
471 223 m 1,33,-1
 447 266 l 1,34,35
 490 289 490 289 518.5 319.5 c 128,-1,36
 547 350 547 350 563 389.5 c 128,-1,37
 579 429 579 429 585 478 c 2,38,-1
 598 589 l 1,39,-1
 664 589 l 1,40,-1
 651 478 l 2,41,42
 645 418 645 418 623 370.5 c 128,-1,43
 601 323 601 323 563.5 286.5 c 128,-1,44
 526 250 526 250 471 223 c 1,33,-1
EndSplineSet
EndChar

StartChar: uniFB22
Encoding: 64290 64290 130
Width: 656
GlyphClass: 1
Flags: W
LayerCount: 2
Fore
SplineSet
463 0 m 1,0,-1
 463 472 l 2,1,2
 463 483 463 483 465 495.5 c 128,-1,3
 467 508 467 508 472 519 c 128,-1,4
 477 530 477 530 486 534 c 1,5,-1
 537 534 l 1,6,7
 532 527 532 527 530.5 513 c 128,-1,8
 529 499 529 499 529 482 c 2,9,-1
 529 0 l 1,10,-1
 463 0 l 1,0,-1
29 534 m 1,11,-1
 29 589 l 1,12,-1
 625 589 l 1,13,-1
 617 534 l 1,14,-1
 29 534 l 1,11,-1
EndSplineSet
EndChar

StartChar: uniFB23
Encoding: 64291 64291 131
Width: 785
GlyphClass: 1
Flags: W
LayerCount: 2
Fore
SplineSet
638 0 m 1,0,-1
 638 408 l 2,1,2
 638 476 638 476 607.5 505 c 128,-1,3
 577 534 577 534 519 534 c 2,4,-1
 46 534 l 1,5,-1
 54 589 l 1,6,-1
 524 589 l 2,7,8
 611 589 611 589 657.5 545 c 128,-1,9
 704 501 704 501 704 411 c 2,10,-1
 704 0 l 1,11,-1
 638 0 l 1,0,-1
67 0 m 1,12,-1
 67 343 l 1,13,-1
 133 349 l 1,14,-1
 133 0 l 1,15,-1
 67 0 l 1,12,-1
EndSplineSet
EndChar

StartChar: uniFB24
Encoding: 64292 64292 132
Width: 666
GlyphClass: 1
Flags: W
LayerCount: 2
Fore
SplineSet
31 0 m 1,0,-1
 31 55 l 1,1,-1
 378 55 l 2,2,3
 469 55 469 55 515 116 c 128,-1,4
 561 177 561 177 561 293 c 0,5,6
 561 412 561 412 515 473 c 128,-1,7
 469 534 469 534 378 534 c 2,8,-1
 31 534 l 1,9,-1
 39 589 l 1,10,-1
 378 589 l 2,11,12
 501 589 501 589 565 513.5 c 128,-1,13
 629 438 629 438 629 293 c 0,14,15
 629 150 629 150 565 75 c 128,-1,16
 501 0 501 0 378 0 c 2,17,-1
 31 0 l 1,0,-1
EndSplineSet
EndChar

StartChar: uniFB25
Encoding: 64293 64293 133
Width: 625
GlyphClass: 1
Flags: W
LayerCount: 2
Fore
SplineSet
335 0 m 1,0,-1
 524 534 l 1,1,-1
 9 534 l 1,2,-1
 9 752 l 1,3,-1
 70 760 l 1,4,-1
 70 589 l 1,5,-1
 590 589 l 1,6,-1
 590 545 l 1,7,-1
 398 0 l 1,8,-1
 335 0 l 1,0,-1
EndSplineSet
EndChar

StartChar: uniFB27
Encoding: 64295 64295 134
Width: 660
GlyphClass: 1
Flags: W
LayerCount: 2
Fore
SplineSet
554 0 m 1,0,-1
 554 408 l 2,1,2
 554 476 554 476 523.5 505 c 128,-1,3
 493 534 493 534 434 534 c 2,4,-1
 42 534 l 1,5,-1
 50 589 l 1,6,-1
 440 589 l 2,7,8
 527 589 527 589 573.5 545 c 128,-1,9
 620 501 620 501 620 411 c 2,10,-1
 620 0 l 1,11,-1
 554 0 l 1,0,-1
EndSplineSet
EndChar

StartChar: uniFB28
Encoding: 64296 64296 135
Width: 817
GlyphClass: 1
Flags: W
LayerCount: 2
Fore
SplineSet
728 0 m 1,0,-1
 728 408 l 2,1,2
 728 472 728 472 698 503 c 128,-1,3
 668 534 668 534 606 534 c 2,4,-1
 155 534 l 1,5,-1
 155 589 l 1,6,-1
 612 589 l 2,7,8
 702 589 702 589 748 544 c 128,-1,9
 794 499 794 499 794 411 c 2,10,-1
 794 0 l 1,11,-1
 728 0 l 1,0,-1
39 0 m 1,12,-1
 47 55 l 1,13,-1
 83 55 l 2,14,15
 120 55 120 55 137.5 78.5 c 128,-1,16
 155 102 155 102 155 150 c 2,17,-1
 155 572 l 1,18,-1
 221 572 l 1,19,-1
 221 141 l 2,20,21
 221 73 221 73 187.5 36.5 c 128,-1,22
 154 0 154 0 92 0 c 2,23,-1
 39 0 l 1,12,-1
67 534 m 1,24,-1
 75 589 l 1,25,-1
 189 589 l 1,26,-1
 189 534 l 1,27,-1
 67 534 l 1,24,-1
EndSplineSet
EndChar

StartChar: uni05AA
Encoding: 1450 1450 136
Width: 0
GlyphClass: 4
Flags: W
AnchorPoint: "Anchor-1" 122 0 mark 0
LayerCount: 2
Fore
SplineSet
105 -210 m 1,0,-1
 105 -167 l 1,1,2
 81 -163 81 -163 68.5 -146.5 c 128,-1,3
 56 -130 56 -130 56 -98 c 2,4,-1
 56 -79 l 1,5,-1
 87 -79 l 1,6,-1
 87 -98 l 2,7,8
 87 -119 87 -119 95 -129 c 128,-1,9
 103 -139 103 -139 122 -139 c 0,10,11
 140 -139 140 -139 148 -129 c 128,-1,12
 156 -119 156 -119 156 -98 c 2,13,-1
 156 -79 l 1,14,-1
 186 -79 l 1,15,-1
 186 -98 l 2,16,17
 186 -130 186 -130 174 -146 c 128,-1,18
 162 -162 162 -162 137 -167 c 1,19,-1
 137 -210 l 1,20,-1
 105 -210 l 1,0,-1
EndSplineSet
EndChar

StartChar: uni059A
Encoding: 1434 1434 137
Width: 0
GlyphClass: 4
Flags: W
AnchorPoint: "Anchor-1" 108 0 mark 0
LayerCount: 2
Fore
SplineSet
128 -234 m 1,0,-1
 50 -154 l 1,1,-1
 125 -79 l 1,2,-1
 164 -79 l 1,3,-1
 89 -155 l 1,4,-1
 167 -234 l 1,5,-1
 128 -234 l 1,0,-1
EndSplineSet
EndChar

StartChar: uni05D9
Encoding: 1497 1497 138
Width: 278
GlyphClass: 2
Flags: W
AnchorPoint: "Anchor-4" 136 533 basechar 0
AnchorPoint: "Anchor-3" 167 533 basechar 0
AnchorPoint: "Anchor-2" 46 411 basechar 0
AnchorPoint: "Anchor-1" 58 0 basechar 0
AnchorPoint: "Anchor-0" 159 0 basechar 0
LayerCount: 2
Fore
SplineSet
134 265 m 1,0,-1
 134 589 l 1,1,-1
 200 589 l 1,2,-1
 200 265 l 1,3,-1
 134 265 l 1,0,-1
39 534 m 1,4,-1
 47 589 l 1,5,-1
 172 589 l 1,6,-1
 172 534 l 1,7,-1
 39 534 l 1,4,-1
EndSplineSet
PairPos2: "'kern' Horizontal Kerning in Hebrew lookup 2 per glyph data 2" uni05D8 dx=-4 dy=0 dh=-4 dv=0 dx=0 dy=0 dh=0 dv=0
PairPos2: "'kern' Horizontal Kerning in Hebrew lookup 2 per glyph data 2" uni05EA dx=-20 dy=0 dh=-20 dv=0 dx=0 dy=0 dh=0 dv=0
PairPos2: "'kern' Horizontal Kerning in Hebrew lookup 2 per glyph data 2" uni05E1 dx=-4 dy=0 dh=-4 dv=0 dx=0 dy=0 dh=0 dv=0
PairPos2: "'kern' Horizontal Kerning in Hebrew lookup 2 per glyph data 2" uni05E8 dx=-20 dy=0 dh=-20 dv=0 dx=0 dy=0 dh=0 dv=0
PairPos2: "'kern' Horizontal Kerning in Hebrew lookup 2 per glyph data 2" uni05E4 dx=-24 dy=0 dh=-24 dv=0 dx=0 dy=0 dh=0 dv=0
PairPos2: "'kern' Horizontal Kerning in Hebrew lookup 2 per glyph data 2" uni05DE dx=-4 dy=0 dh=-4 dv=0 dx=0 dy=0 dh=0 dv=0
PairPos2: "'kern' Horizontal Kerning in Hebrew lookup 2 per glyph data 2" uni05DB dx=-4 dy=0 dh=-4 dv=0 dx=0 dy=0 dh=0 dv=0
PairPos2: "'kern' Horizontal Kerning in Hebrew lookup 2 per glyph data 2" uni05D7 dx=-4 dy=0 dh=-4 dv=0 dx=0 dy=0 dh=0 dv=0
PairPos2: "'kern' Horizontal Kerning in Hebrew lookup 2 per glyph data 2" uni05D4 dx=-20 dy=0 dh=-20 dv=0 dx=0 dy=0 dh=0 dv=0
PairPos2: "'kern' Horizontal Kerning in Hebrew lookup 2 per glyph data 2" uni05DD dx=-30 dy=0 dh=-30 dv=0 dx=0 dy=0 dh=0 dv=0
PairPos2: "'kern' Horizontal Kerning in Hebrew lookup 2 per glyph data 2" uni05D1 dx=-67 dy=0 dh=-67 dv=0 dx=0 dy=0 dh=0 dv=0
EndChar

StartChar: uni0595
Encoding: 1429 1429 143
Width: 0
GlyphClass: 4
Flags: W
AnchorPoint: "Anchor-7" 111 533 mark 0
AnchorPoint: "Anchor-3" 111 533 mark 0
LayerCount: 2
Fore
SplineSet
50 655 m 1,0,-1
 50 809 l 1,1,-1
 82 809 l 1,2,-1
 82 655 l 1,3,-1
 50 655 l 1,0,-1
146 751 m 0,4,5
 134 751 134 751 126.5 759 c 128,-1,6
 119 767 119 767 119 778 c 256,7,8
 119 789 119 789 126.5 797 c 128,-1,9
 134 805 134 805 146 805 c 0,10,11
 157 805 157 805 164.5 797 c 128,-1,12
 172 789 172 789 172 778 c 256,13,14
 172 767 172 767 164.5 759 c 128,-1,15
 157 751 157 751 146 751 c 0,4,5
147 659 m 0,16,17
 135 659 135 659 127.5 666.5 c 128,-1,18
 120 674 120 674 120 686 c 0,19,20
 120 697 120 697 127.5 704.5 c 128,-1,21
 135 712 135 712 147 712 c 0,22,23
 157 712 157 712 165 704.5 c 128,-1,24
 173 697 173 697 173 686 c 0,25,26
 173 674 173 674 165 666.5 c 128,-1,27
 157 659 157 659 147 659 c 0,16,17
EndSplineSet
EndChar

StartChar: uni0594
Encoding: 1428 1428 144
Width: 0
GlyphClass: 4
Flags: W
AnchorPoint: "Anchor-7" 78 533 mark 0
AnchorPoint: "Anchor-3" 78 533 mark 0
LayerCount: 2
Fore
SplineSet
78 751 m 256,0,1
 67 751 67 751 59 759 c 128,-1,2
 51 767 51 767 51 778 c 256,3,4
 51 789 51 789 59 797 c 128,-1,5
 67 805 67 805 78 805 c 256,6,7
 89 805 89 805 96.5 797 c 128,-1,8
 104 789 104 789 104 778 c 256,9,10
 104 767 104 767 96.5 759 c 128,-1,11
 89 751 89 751 78 751 c 256,0,1
79 659 m 0,12,13
 67 659 67 659 59.5 666.5 c 128,-1,14
 52 674 52 674 52 686 c 0,15,16
 52 697 52 697 59.5 704.5 c 128,-1,17
 67 712 67 712 79 712 c 0,18,19
 90 712 90 712 97.5 704.5 c 128,-1,20
 105 697 105 697 105 686 c 0,21,22
 105 674 105 674 97.5 666.5 c 128,-1,23
 90 659 90 659 79 659 c 0,12,13
EndSplineSet
EndChar

StartChar: uni0598
Encoding: 1432 1432 145
Width: 0
GlyphClass: 4
Flags: W
AnchorPoint: "Anchor-7" 149 533 mark 0
AnchorPoint: "Anchor-3" 149 533 mark 0
LayerCount: 2
Fore
SplineSet
86 650 m 1,0,1
 50 662 50 662 50 702 c 0,2,3
 50 724 50 724 63.5 737.5 c 128,-1,4
 77 751 77 751 99 751 c 0,5,6
 115 751 115 751 128 742 c 128,-1,7
 141 733 141 733 159 709 c 0,8,9
 172 691 172 691 181 682.5 c 128,-1,10
 190 674 190 674 201 674 c 0,11,12
 210 674 210 674 216.5 680.5 c 128,-1,13
 223 687 223 687 223 700 c 0,14,15
 223 719 223 719 203 728 c 1,16,-1
 212 752 l 1,17,18
 248 738 248 738 248 700 c 0,19,20
 248 678 248 678 235 664.5 c 128,-1,21
 222 651 222 651 201 651 c 0,22,23
 184 651 184 651 170.5 660 c 128,-1,24
 157 669 157 669 140 692 c 0,25,26
 125 713 125 713 117 720.5 c 128,-1,27
 109 728 109 728 98 728 c 0,28,29
 89 728 89 728 82.5 721.5 c 128,-1,30
 76 715 76 715 76 702 c 0,31,32
 76 683 76 683 96 673 c 1,33,-1
 86 650 l 1,0,1
EndSplineSet
EndChar

StartChar: uni05D6
Encoding: 1494 1494 146
Width: 312
GlyphClass: 2
Flags: W
AnchorPoint: "Anchor-4" 37 533 basechar 0
AnchorPoint: "Anchor-3" 159 533 basechar 0
AnchorPoint: "Anchor-2" 21 298 basechar 0
AnchorPoint: "Anchor-1" 9 0 basechar 0
AnchorPoint: "Anchor-0" 164 0 basechar 0
LayerCount: 2
Fore
SplineSet
125 1 m 1,0,1
 119 46 119 46 112 97.5 c 128,-1,2
 105 149 105 149 100 198.5 c 128,-1,3
 95 248 95 248 92.5 289 c 128,-1,4
 90 330 90 330 90 356 c 0,5,6
 90 387 90 387 99 422 c 128,-1,7
 108 457 108 457 130.5 487.5 c 128,-1,8
 153 518 153 518 192 535 c 1,9,-1
 269 534 l 1,10,11
 218 520 218 520 193.5 491 c 128,-1,12
 169 462 169 462 161.5 428 c 128,-1,13
 154 394 154 394 155 362 c 0,14,15
 155 336 155 336 159 293 c 128,-1,16
 163 250 163 250 168.5 199 c 128,-1,17
 174 148 174 148 180.5 96 c 128,-1,18
 187 44 187 44 193 1 c 1,19,-1
 125 1 l 1,0,1
43 534 m 1,20,-1
 43 589 l 1,21,-1
 277 589 l 1,22,-1
 269 534 l 1,23,-1
 43 534 l 1,20,-1
EndSplineSet
PairPos2: "'kern' Horizontal Kerning in Hebrew lookup 2 per glyph data 2" uni05D1 dx=-24 dy=0 dh=-24 dv=0 dx=0 dy=0 dh=0 dv=0
EndChar

StartChar: uni05AE
Encoding: 1454 1454 148
Width: 0
GlyphClass: 4
Flags: W
AnchorPoint: "Anchor-7" 149 533 mark 0
AnchorPoint: "Anchor-3" 149 533 mark 0
LayerCount: 2
Fore
SplineSet
86 647 m 1,0,1
 50 659 50 659 50 699 c 0,2,3
 50 721 50 721 63.5 734.5 c 128,-1,4
 77 748 77 748 99 748 c 0,5,6
 115 748 115 748 128 739 c 128,-1,7
 141 730 141 730 159 706 c 0,8,9
 172 688 172 688 181 679.5 c 128,-1,10
 190 671 190 671 201 671 c 0,11,12
 210 671 210 671 216.5 677.5 c 128,-1,13
 223 684 223 684 223 697 c 0,14,15
 223 716 223 716 203 725 c 1,16,-1
 212 749 l 1,17,18
 248 735 248 735 248 697 c 0,19,20
 248 675 248 675 235 661.5 c 128,-1,21
 222 648 222 648 201 648 c 0,22,23
 184 648 184 648 170.5 657 c 128,-1,24
 157 666 157 666 140 689 c 0,25,26
 125 710 125 710 117 717.5 c 128,-1,27
 109 725 109 725 98 725 c 0,28,29
 89 725 89 725 82.5 718.5 c 128,-1,30
 76 712 76 712 76 699 c 0,31,32
 76 680 76 680 96 670 c 1,33,-1
 86 647 l 1,0,1
EndSplineSet
EndChar

StartChar: A
Encoding: 65 65 151
Width: 609
GlyphClass: 2
Flags: W
AnchorPoint: "Anchor-5" 574 714 basechar 0
AnchorPoint: "Anchor-3" 305 714 basechar 0
AnchorPoint: "Anchor-2" 304 358 basechar 0
AnchorPoint: "Anchor-0" 305 0 basechar 0
LayerCount: 2
Fore
SplineSet
542 0 m 1,0,-1
 452 242 l 1,1,-1
 159 242 l 1,2,-1
 67 0 l 1,3,-1
 0 0 l 1,4,-1
 272 716 l 1,5,-1
 346 716 l 1,6,-1
 609 0 l 1,7,-1
 542 0 l 1,0,-1
343 555 m 2,8,9
 339 568 339 568 333 586 c 128,-1,10
 327 604 327 604 320.5 624.5 c 128,-1,11
 314 645 314 645 308 664 c 1,12,13
 303 647 303 647 297 627.5 c 128,-1,14
 291 608 291 608 284.5 589 c 128,-1,15
 278 570 278 570 273 554 c 2,16,-1
 175 295 l 1,17,-1
 436 295 l 1,18,-1
 343 555 l 2,8,9
EndSplineSet
Substitution2: "Single Substitution lookup 9 subtable" ordfeminine
Substitution2: "'aalt' Access All Alternates lookup 0 subtable" ordfeminine
EndChar

StartChar: AE
Encoding: 198 198 152
Width: 802
GlyphClass: 2
Flags: W
AnchorPoint: "Anchor-3" 413 714 basechar 0
AnchorPoint: "Anchor-2" 389 357 basechar 0
AnchorPoint: "Anchor-0" 401 0 basechar 0
LayerCount: 2
Fore
SplineSet
781 0 m 1,0,-1
 388 0 l 1,1,-1
 388 241 l 1,2,-1
 169 241 l 1,3,-1
 68 0 l 1,4,-1
 -2 0 l 1,5,-1
 305 714 l 1,6,-1
 781 714 l 1,7,-1
 781 661 l 1,8,-1
 450 661 l 1,9,-1
 450 401 l 1,10,-1
 762 401 l 1,11,-1
 762 349 l 1,12,-1
 450 349 l 1,13,-1
 450 53 l 1,14,-1
 781 53 l 1,15,-1
 781 0 l 1,0,-1
191 295 m 1,16,-1
 388 295 l 1,17,-1
 388 660 l 1,18,-1
 343 660 l 1,19,-1
 191 295 l 1,16,-1
EndSplineSet
EndChar

StartChar: B
Encoding: 66 66 162
Width: 626
GlyphClass: 2
Flags: W
AnchorPoint: "Anchor-5" 606 714 basechar 0
AnchorPoint: "Anchor-3" 314 714 basechar 0
AnchorPoint: "Anchor-2" 335 357 basechar 0
AnchorPoint: "Anchor-0" 314 0 basechar 0
LayerCount: 2
Fore
SplineSet
301 714 m 2,0,1
 437 714 437 714 496 670.5 c 128,-1,2
 555 627 555 627 555 541 c 0,3,4
 555 499 555 499 538.5 464.5 c 128,-1,5
 522 430 522 430 492 407.5 c 128,-1,6
 462 385 462 385 420 377 c 1,7,-1
 420 375 l 1,8,9
 473 366 473 366 506.5 344 c 128,-1,10
 540 322 540 322 556 287 c 128,-1,11
 572 252 572 252 572 204 c 0,12,13
 572 133 572 133 539 87.5 c 128,-1,14
 506 42 506 42 447.5 21 c 128,-1,15
 389 0 389 0 314 0 c 2,16,-1
 97 0 l 1,17,-1
 97 714 l 1,18,-1
 301 714 l 2,0,1
308 399 m 2,19,20
 402 399 402 399 446.5 433.5 c 128,-1,21
 491 468 491 468 491 534 c 0,22,23
 491 602 491 602 445 632.5 c 128,-1,24
 399 663 399 663 298 663 c 2,25,-1
 159 663 l 1,26,-1
 159 399 l 1,27,-1
 308 399 l 2,19,20
159 349 m 1,28,-1
 159 51 l 1,29,-1
 317 51 l 2,30,31
 408 51 408 51 458 89 c 128,-1,32
 508 127 508 127 508 207 c 0,33,34
 508 260 508 260 484.5 291 c 128,-1,35
 461 322 461 322 416.5 335.5 c 128,-1,36
 372 349 372 349 307 349 c 2,37,-1
 159 349 l 1,28,-1
EndSplineSet
EndChar

StartChar: C
Encoding: 67 67 163
Width: 621
GlyphClass: 2
Flags: W
AnchorPoint: "Anchor-5" 601 714 basechar 0
AnchorPoint: "Anchor-3" 382 714 basechar 0
AnchorPoint: "Anchor-2" 325 357 basechar 0
AnchorPoint: "Anchor-0" 370 0 basechar 0
LayerCount: 2
Fore
SplineSet
403 671 m 0,0,1
 337 671 337 671 284.5 647.5 c 128,-1,2
 232 624 232 624 196.5 582.5 c 128,-1,3
 161 541 161 541 142.5 484 c 128,-1,4
 124 427 124 427 124 359 c 0,5,6
 124 263 124 263 153.5 192 c 128,-1,7
 183 121 183 121 242.5 82 c 128,-1,8
 302 43 302 43 390 43 c 0,9,10
 446 43 446 43 491 52 c 128,-1,11
 536 61 536 61 574 76 c 1,12,-1
 574 23 l 1,13,14
 538 8 538 8 491 -1 c 128,-1,15
 444 -10 444 -10 386 -10 c 0,16,17
 278 -10 278 -10 205.5 36.5 c 128,-1,18
 133 83 133 83 96.5 166 c 128,-1,19
 60 249 60 249 60 359 c 0,20,21
 60 438 60 438 83 504.5 c 128,-1,22
 106 571 106 571 150.5 620 c 128,-1,23
 195 669 195 669 258.5 696.5 c 128,-1,24
 322 724 322 724 403 724 c 0,25,26
 453 724 453 724 499.5 714.5 c 128,-1,27
 546 705 546 705 590 684 c 1,28,-1
 570 632 l 1,29,30
 528 654 528 654 486.5 662.5 c 128,-1,31
 445 671 445 671 403 671 c 0,0,1
EndSplineSet
EndChar

StartChar: D
Encoding: 68 68 168
Width: 701
GlyphClass: 2
Flags: W
AnchorPoint: "Anchor-5" 681 714 basechar 0
AnchorPoint: "Anchor-3" 350 714 basechar 0
AnchorPoint: "Anchor-2" 350 357 basechar 0
AnchorPoint: "Anchor-0" 349 0 basechar 0
LayerCount: 2
Fore
SplineSet
640 366 m 0,0,1
 640 245 640 245 598 163.5 c 128,-1,2
 556 82 556 82 473.5 41 c 128,-1,3
 391 0 391 0 268 0 c 2,4,-1
 97 0 l 1,5,-1
 97 714 l 1,6,-1
 289 714 l 2,7,8
 466 714 466 714 553 624.5 c 128,-1,9
 640 535 640 535 640 366 c 0,0,1
576 363 m 0,10,11
 576 461 576 461 545 527 c 128,-1,12
 514 593 514 593 449.5 627 c 128,-1,13
 385 661 385 661 282 661 c 2,14,-1
 159 661 l 1,15,-1
 159 53 l 1,16,-1
 271 53 l 2,17,18
 425 53 425 53 500.5 130 c 128,-1,19
 576 207 576 207 576 363 c 0,10,11
EndSplineSet
EndChar

StartChar: E
Encoding: 69 69 171
Width: 550
GlyphClass: 2
Flags: W
AnchorPoint: "Anchor-5" 530 714 basechar 0
AnchorPoint: "Anchor-3" 302 714 basechar 0
AnchorPoint: "Anchor-2" 294 357 basechar 0
AnchorPoint: "Anchor-0" 295 0 basechar 0
LayerCount: 2
Fore
SplineSet
491 0 m 1,0,-1
 97 0 l 1,1,-1
 97 714 l 1,2,-1
 491 714 l 1,3,-1
 491 661 l 1,4,-1
 159 661 l 1,5,-1
 159 401 l 1,6,-1
 471 401 l 1,7,-1
 471 349 l 1,8,-1
 159 349 l 1,9,-1
 159 53 l 1,10,-1
 491 53 l 1,11,-1
 491 0 l 1,0,-1
EndSplineSet
EndChar

StartChar: Eth
Encoding: 208 208 180
Width: 701
GlyphClass: 2
Flags: W
AnchorPoint: "Anchor-3" 350 714 basechar 0
AnchorPoint: "Anchor-2" 328 357 basechar 0
AnchorPoint: "Anchor-0" 350 0 basechar 0
LayerCount: 2
Fore
SplineSet
289 714 m 2,0,1
 466 714 466 714 553 624.5 c 128,-1,2
 640 535 640 535 640 366 c 0,3,4
 640 245 640 245 598 163.5 c 128,-1,5
 556 82 556 82 473.5 41 c 128,-1,6
 391 0 391 0 268 0 c 2,7,-1
 97 0 l 1,8,-1
 97 329 l 1,9,-1
 17 329 l 1,10,-1
 17 381 l 1,11,-1
 97 381 l 1,12,-1
 97 714 l 1,13,-1
 289 714 l 2,0,1
282 661 m 2,14,-1
 159 661 l 1,15,-1
 159 381 l 1,16,-1
 343 381 l 1,17,-1
 343 329 l 1,18,-1
 159 329 l 1,19,-1
 159 53 l 1,20,-1
 271 53 l 2,21,22
 425 53 425 53 500.5 130 c 128,-1,23
 576 207 576 207 576 363 c 0,24,25
 576 461 576 461 545 527 c 128,-1,26
 514 593 514 593 449.5 627 c 128,-1,27
 385 661 385 661 282 661 c 2,14,-1
EndSplineSet
EndChar

StartChar: F
Encoding: 70 70 181
Width: 502
GlyphClass: 2
Flags: W
AnchorPoint: "Anchor-5" 482 714 basechar 0
AnchorPoint: "Anchor-3" 294 714 basechar 0
AnchorPoint: "Anchor-2" 294 357 basechar 0
AnchorPoint: "Anchor-0" 251 0 basechar 0
LayerCount: 2
Fore
SplineSet
158 0 m 1,0,-1
 97 0 l 1,1,-1
 97 714 l 1,2,-1
 491 714 l 1,3,-1
 491 661 l 1,4,-1
 158 661 l 1,5,-1
 158 369 l 1,6,-1
 472 369 l 1,7,-1
 472 316 l 1,8,-1
 158 316 l 1,9,-1
 158 0 l 1,0,-1
EndSplineSet
EndChar

StartChar: G
Encoding: 71 71 182
Width: 724
GlyphClass: 2
Flags: W
AnchorPoint: "Anchor-5" 704 714 basechar 0
AnchorPoint: "Anchor-3" 408 714 basechar 0
AnchorPoint: "Anchor-2" 353 358 basechar 0
AnchorPoint: "Anchor-0" 396 0 basechar 0
LayerCount: 2
Fore
SplineSet
366 364 m 1,0,-1
 646 364 l 1,1,-1
 646 35 l 1,2,3
 597 13 597 13 536.5 1.5 c 128,-1,4
 476 -10 476 -10 413 -10 c 0,5,6
 300 -10 300 -10 221.5 32 c 128,-1,7
 143 74 143 74 101.5 155.5 c 128,-1,8
 60 237 60 237 60 356 c 0,9,10
 60 463 60 463 103.5 546 c 128,-1,11
 147 629 147 629 228.5 677.5 c 128,-1,12
 310 726 310 726 424 726 c 0,13,14
 484 726 484 726 537 715 c 128,-1,15
 590 704 590 704 637 681 c 1,16,-1
 614 630 l 1,17,18
 566 653 566 653 519 662.5 c 128,-1,19
 472 672 472 672 424 672 c 0,20,21
 329 672 329 672 261.5 630.5 c 128,-1,22
 194 589 194 589 159 517.5 c 128,-1,23
 124 446 124 446 124 356 c 0,24,25
 124 246 124 246 160 177.5 c 128,-1,26
 196 109 196 109 262 76 c 128,-1,27
 328 43 328 43 418 43 c 0,28,29
 467 43 467 43 510.5 51.5 c 128,-1,30
 554 60 554 60 587 73 c 1,31,-1
 587 313 l 1,32,-1
 366 313 l 1,33,-1
 366 364 l 1,0,-1
EndSplineSet
EndChar

StartChar: uni1E9E
Encoding: 7838 7838 186
Width: 686
GlyphClass: 2
Flags: W
AnchorPoint: "Anchor-3" 343 714 basechar 0
AnchorPoint: "Anchor-2" 371 357 basechar 0
AnchorPoint: "Anchor-0" 343 0 basechar 0
LayerCount: 2
Fore
SplineSet
344 722 m 0,0,1
 411 722 411 722 457 701.5 c 128,-1,2
 503 681 503 681 531.5 646 c 128,-1,3
 560 611 560 611 573 566 c 1,4,-1
 433 408 l 1,5,6
 496 405 496 405 544.5 382.5 c 128,-1,7
 593 360 593 360 620.5 317.5 c 128,-1,8
 648 275 648 275 648 212 c 0,9,10
 648 147 648 147 620.5 97.5 c 128,-1,11
 593 48 593 48 540 20 c 128,-1,12
 487 -8 487 -8 411 -8 c 0,13,14
 358 -8 358 -8 321 1.5 c 128,-1,15
 284 11 284 11 262 20 c 1,16,-1
 262 78 l 1,17,18
 287 64 287 64 324 54 c 128,-1,19
 361 44 361 44 406 44 c 0,20,21
 492 44 492 44 539.5 89.5 c 128,-1,22
 587 135 587 135 587 211 c 0,23,24
 587 288 587 288 537 325 c 128,-1,25
 487 362 487 362 394 362 c 2,26,-1
 367 362 l 1,27,-1
 367 411 l 1,28,-1
 506 570 l 1,29,30
 497 594 497 594 478 616.5 c 128,-1,31
 459 639 459 639 425.5 654 c 128,-1,32
 392 669 392 669 341 669 c 0,33,34
 286 669 286 669 244 647.5 c 128,-1,35
 202 626 202 626 178.5 580.5 c 128,-1,36
 155 535 155 535 155 464 c 2,37,-1
 155 0 l 1,38,-1
 94 0 l 1,39,-1
 94 473 l 2,40,41
 94 557 94 557 126 612 c 128,-1,42
 158 667 158 667 215 694.5 c 128,-1,43
 272 722 272 722 344 722 c 0,0,1
EndSplineSet
EndChar

StartChar: H
Encoding: 72 72 187
Width: 719
GlyphClass: 2
Flags: W
AnchorPoint: "Anchor-5" 699 714 basechar 0
AnchorPoint: "Anchor-3" 359 714 basechar 0
AnchorPoint: "Anchor-2" 359 357 basechar 0
AnchorPoint: "Anchor-0" 359 0 basechar 0
LayerCount: 2
Fore
SplineSet
621 0 m 1,0,-1
 560 0 l 1,1,-1
 560 348 l 1,2,-1
 159 348 l 1,3,-1
 159 0 l 1,4,-1
 97 0 l 1,5,-1
 97 714 l 1,6,-1
 159 714 l 1,7,-1
 159 401 l 1,8,-1
 560 401 l 1,9,-1
 560 714 l 1,10,-1
 621 714 l 1,11,-1
 621 0 l 1,0,-1
EndSplineSet
EndChar

StartChar: Hbar
Encoding: 294 294 188
Width: 722
GlyphClass: 2
Flags: W
AnchorPoint: "Anchor-3" 361 714 basechar 0
AnchorPoint: "Anchor-2" 361 357 basechar 0
AnchorPoint: "Anchor-0" 361 0 basechar 0
LayerCount: 2
Fore
SplineSet
99 0 m 1,0,-1
 99 543 l 1,1,-1
 0 543 l 1,2,-1
 0 587 l 1,3,-1
 99 587 l 1,4,-1
 99 714 l 1,5,-1
 161 714 l 1,6,-1
 161 587 l 1,7,-1
 561 587 l 1,8,-1
 561 714 l 1,9,-1
 623 714 l 1,10,-1
 623 587 l 1,11,-1
 722 587 l 1,12,-1
 722 543 l 1,13,-1
 623 543 l 1,14,-1
 623 0 l 1,15,-1
 561 0 l 1,16,-1
 561 348 l 1,17,-1
 161 348 l 1,18,-1
 161 0 l 1,19,-1
 99 0 l 1,0,-1
161 401 m 1,20,-1
 561 401 l 1,21,-1
 561 543 l 1,22,-1
 161 543 l 1,23,-1
 161 401 l 1,20,-1
EndSplineSet
EndChar

StartChar: I
Encoding: 73 73 189
Width: 316
GlyphClass: 2
Flags: W
AnchorPoint: "Anchor-5" 296 714 basechar 0
AnchorPoint: "Anchor-3" 159 714 basechar 0
AnchorPoint: "Anchor-2" 159 357 basechar 0
AnchorPoint: "Anchor-0" 159 0 basechar 0
LayerCount: 2
Fore
SplineSet
262 0 m 1,0,-1
 55 0 l 1,1,-1
 55 39 l 1,2,-1
 128 49 l 1,3,-1
 128 665 l 1,4,-1
 55 675 l 1,5,-1
 55 714 l 1,6,-1
 262 714 l 1,7,-1
 262 675 l 1,8,-1
 189 665 l 1,9,-1
 189 49 l 1,10,-1
 262 39 l 1,11,-1
 262 0 l 1,0,-1
EndSplineSet
EndChar

StartChar: J
Encoding: 74 74 197
Width: 257
GlyphClass: 2
Flags: W
AnchorPoint: "Anchor-5" 237 714 basechar 0
AnchorPoint: "Anchor-3" 131 714 basechar 0
AnchorPoint: "Anchor-2" 34 265 basechar 0
AnchorPoint: "Anchor-0" -10 -173 basechar 0
LayerCount: 2
Fore
SplineSet
-10 -185 m 0,0,1
 -40 -185 -40 -185 -60 -181 c 128,-1,2
 -80 -177 -80 -177 -94 -173 c 1,3,-1
 -94 -119 l 1,4,5
 -80 -124 -80 -124 -59.5 -128 c 128,-1,6
 -39 -132 -39 -132 -17 -132 c 0,7,8
 51 -132 51 -132 76 -92 c 128,-1,9
 101 -52 101 -52 101 15 c 2,10,-1
 101 714 l 1,11,-1
 162 714 l 1,12,-1
 162 16 l 2,13,14
 162 -45 162 -45 144 -90.5 c 128,-1,15
 126 -136 126 -136 88 -160.5 c 128,-1,16
 50 -185 50 -185 -10 -185 c 0,0,1
EndSplineSet
EndChar

StartChar: K
Encoding: 75 75 198
Width: 585
GlyphClass: 2
Flags: W
AnchorPoint: "Anchor-5" 565 714 basechar 0
AnchorPoint: "Anchor-3" 297 714 basechar 0
AnchorPoint: "Anchor-2" 341 357 basechar 0
AnchorPoint: "Anchor-0" 296 0 basechar 0
LayerCount: 2
Fore
SplineSet
585 0 m 1,0,-1
 512 0 l 1,1,-1
 254 371 l 1,2,-1
 159 282 l 1,3,-1
 159 0 l 1,4,-1
 97 0 l 1,5,-1
 97 714 l 1,6,-1
 159 714 l 1,7,-1
 159 341 l 1,8,9
 170 356 170 356 184 371.5 c 128,-1,10
 198 387 198 387 211 401 c 2,11,-1
 507 714 l 1,12,-1
 582 714 l 1,13,-1
 299 412 l 1,14,-1
 585 0 l 1,0,-1
EndSplineSet
EndChar

StartChar: L
Encoding: 76 76 200
Width: 522
GlyphClass: 2
Flags: W
AnchorPoint: "Anchor-5" 429 714 basechar 0
AnchorPoint: "Anchor-3" 127 714 basechar 0
AnchorPoint: "Anchor-2" 261 357 basechar 0
AnchorPoint: "Anchor-0" 289 0 basechar 0
LayerCount: 2
Fore
SplineSet
97 0 m 1,0,-1
 97 714 l 1,1,-1
 159 714 l 1,2,-1
 159 53 l 1,3,-1
 499 53 l 1,4,-1
 499 0 l 1,5,-1
 97 0 l 1,0,-1
EndSplineSet
EndChar

StartChar: Lslash
Encoding: 321 321 204
Width: 528
GlyphClass: 2
Flags: W
AnchorPoint: "Anchor-3" 127 714 basechar 0
AnchorPoint: "Anchor-2" 254 357 basechar 0
AnchorPoint: "Anchor-0" 289 0 basechar 0
LayerCount: 2
Fore
SplineSet
103 0 m 1,0,-1
 103 273 l 1,1,-1
 31 227 l 1,2,-1
 5 270 l 1,3,-1
 103 332 l 1,4,-1
 103 714 l 1,5,-1
 165 714 l 1,6,-1
 165 371 l 1,7,-1
 321 471 l 1,8,-1
 348 429 l 1,9,-1
 165 311 l 1,10,-1
 165 53 l 1,11,-1
 504 53 l 1,12,-1
 504 0 l 1,13,-1
 103 0 l 1,0,-1
EndSplineSet
EndChar

StartChar: M
Encoding: 77 77 205
Width: 865
GlyphClass: 2
Flags: W
AnchorPoint: "Anchor-5" 845 714 basechar 0
AnchorPoint: "Anchor-3" 433 714 basechar 0
AnchorPoint: "Anchor-2" 432 357 basechar 0
AnchorPoint: "Anchor-0" 432 0 basechar 0
LayerCount: 2
Fore
SplineSet
404 0 m 1,0,-1
 154 644 l 1,1,-1
 151 644 l 1,2,3
 153 627 153 627 153 609 c 128,-1,4
 153 591 153 591 153.5 573 c 128,-1,5
 154 555 154 555 154 535 c 2,6,-1
 154 0 l 1,7,-1
 97 0 l 1,8,-1
 97 714 l 1,9,-1
 185 714 l 1,10,-1
 431 82 l 1,11,-1
 434 82 l 1,12,-1
 680 714 l 1,13,-1
 766 714 l 1,14,-1
 766 0 l 1,15,-1
 708 0 l 1,16,-1
 708 541 l 2,17,18
 708 556 708 556 708.5 573 c 128,-1,19
 709 590 709 590 709.5 608 c 128,-1,20
 710 626 710 626 711 643 c 1,21,-1
 708 643 l 1,22,-1
 459 0 l 1,23,-1
 404 0 l 1,0,-1
EndSplineSet
EndChar

StartChar: N
Encoding: 78 78 206
Width: 727
GlyphClass: 2
Flags: W
AnchorPoint: "Anchor-5" 707 714 basechar 0
AnchorPoint: "Anchor-3" 363 714 basechar 0
AnchorPoint: "Anchor-2" 363 357 basechar 0
AnchorPoint: "Anchor-0" 363 0 basechar 0
LayerCount: 2
Fore
SplineSet
629 0 m 1,0,-1
 560 0 l 1,1,-1
 154 623 l 1,2,-1
 152 623 l 1,3,4
 153 595 153 595 153.5 568.5 c 128,-1,5
 154 542 154 542 154 516.5 c 128,-1,6
 154 491 154 491 154 464 c 2,7,-1
 154 0 l 1,8,-1
 97 0 l 1,9,-1
 97 714 l 1,10,-1
 167 714 l 1,11,-1
 572 94 l 1,12,-1
 574 94 l 1,13,14
 574 119 574 119 573 146 c 128,-1,15
 572 173 572 173 572 199.5 c 128,-1,16
 572 226 572 226 572 249 c 2,17,-1
 572 714 l 1,18,-1
 629 714 l 1,19,-1
 629 0 l 1,0,-1
EndSplineSet
EndChar

StartChar: O
Encoding: 79 79 211
Width: 763
GlyphClass: 2
Flags: W
AnchorPoint: "Anchor-5" 743 714 basechar 0
AnchorPoint: "Anchor-3" 382 714 basechar 0
AnchorPoint: "Anchor-2" 382 357 basechar 0
AnchorPoint: "Anchor-0" 381 0 basechar 0
LayerCount: 2
Fore
SplineSet
702 358 m 0,0,1
 702 277 702 277 682 209.5 c 128,-1,2
 662 142 662 142 622.5 93 c 128,-1,3
 583 44 583 44 522.5 17 c 128,-1,4
 462 -10 462 -10 381 -10 c 256,5,6
 300 -10 300 -10 240 17 c 128,-1,7
 180 44 180 44 140 93 c 128,-1,8
 100 142 100 142 80 209.5 c 128,-1,9
 60 277 60 277 60 359 c 0,10,11
 60 468 60 468 97 550.5 c 128,-1,12
 134 633 134 633 207 679 c 128,-1,13
 280 725 280 725 386 725 c 0,14,15
 490 725 490 725 560 681 c 128,-1,16
 630 637 630 637 666 555 c 128,-1,17
 702 473 702 473 702 358 c 0,0,1
125 359 m 0,18,19
 125 266 125 266 152.5 195.5 c 128,-1,20
 180 125 180 125 237 84.5 c 128,-1,21
 294 44 294 44 381 44 c 0,22,23
 470 44 470 44 526.5 83.5 c 128,-1,24
 583 123 583 123 610 194 c 128,-1,25
 637 265 637 265 637 358 c 0,26,27
 637 507 637 507 573 589.5 c 128,-1,28
 509 672 509 672 386 672 c 0,29,30
 297 672 297 672 239 632 c 128,-1,31
 181 592 181 592 153 521.5 c 128,-1,32
 125 451 125 451 125 359 c 0,18,19
EndSplineSet
Substitution2: "Single Substitution lookup 9 subtable" ordmasculine
Substitution2: "'aalt' Access All Alternates lookup 0 subtable" ordmasculine
EndChar

StartChar: OE
Encoding: 338 338 212
Width: 911
GlyphClass: 2
Flags: W
AnchorPoint: "Anchor-3" 456 714 basechar 0
AnchorPoint: "Anchor-2" 456 357 basechar 0
AnchorPoint: "Anchor-0" 456 0 basechar 0
LayerCount: 2
Fore
SplineSet
379 719 m 0,0,1
 404 719 404 719 426 717.5 c 128,-1,2
 448 716 448 716 473 714 c 2,3,-1
 852 714 l 1,4,-1
 852 661 l 1,5,-1
 521 661 l 1,6,-1
 521 401 l 1,7,-1
 833 401 l 1,8,-1
 833 349 l 1,9,-1
 521 349 l 1,10,-1
 521 53 l 1,11,-1
 852 53 l 1,12,-1
 852 0 l 1,13,-1
 465 0 l 2,14,15
 448 -2 448 -2 425 -3 c 128,-1,16
 402 -4 402 -4 376 -4 c 0,17,18
 272 -4 272 -4 201.5 41.5 c 128,-1,19
 131 87 131 87 95.5 168.5 c 128,-1,20
 60 250 60 250 60 359 c 256,21,22
 60 468 60 468 97 548.5 c 128,-1,23
 134 629 134 629 205.5 674 c 128,-1,24
 277 719 277 719 379 719 c 0,0,1
379 665 m 0,25,26
 315 665 315 665 267.5 643 c 128,-1,27
 220 621 220 621 188 580.5 c 128,-1,28
 156 540 156 540 140.5 483.5 c 128,-1,29
 125 427 125 427 125 359 c 0,30,31
 125 266 125 266 152 196 c 128,-1,32
 179 126 179 126 235 87.5 c 128,-1,33
 291 49 291 49 377 49 c 0,34,35
 403 49 403 49 424 51 c 128,-1,36
 445 53 445 53 459 57 c 1,37,-1
 459 657 l 1,38,39
 447 660 447 660 426 662.5 c 128,-1,40
 405 665 405 665 379 665 c 0,25,26
EndSplineSet
EndChar

StartChar: Oslash
Encoding: 216 216 218
Width: 763
GlyphClass: 2
Flags: W
AnchorPoint: "Anchor-3" 382 714 basechar 0
AnchorPoint: "Anchor-2" 381 356 basechar 0
AnchorPoint: "Anchor-0" 382 0 basechar 0
LayerCount: 2
Fore
SplineSet
702 358 m 0,0,1
 702 277 702 277 682 209.5 c 128,-1,2
 662 142 662 142 622.5 93 c 128,-1,3
 583 44 583 44 522.5 17 c 128,-1,4
 462 -10 462 -10 381 -10 c 0,5,6
 321 -10 321 -10 272.5 6 c 128,-1,7
 224 22 224 22 187 52 c 1,8,-1
 127 -32 l 1,9,-1
 91 -7 l 1,10,-1
 153 78 l 1,11,12
 107 128 107 128 83.5 199.5 c 128,-1,13
 60 271 60 271 60 359 c 0,14,15
 60 468 60 468 97 550.5 c 128,-1,16
 134 633 134 633 207 679 c 128,-1,17
 280 725 280 725 386 725 c 0,18,19
 444 725 444 725 491.5 710 c 128,-1,20
 539 695 539 695 575 667 c 1,21,-1
 630 743 l 1,22,-1
 666 720 l 1,23,-1
 609 641 l 1,24,25
 654 594 654 594 678 522 c 128,-1,26
 702 450 702 450 702 358 c 0,0,1
637 358 m 0,27,28
 637 507 637 507 572 586 c 1,29,-1
 219 100 l 1,30,31
 249 73 249 73 289.5 58.5 c 128,-1,32
 330 44 330 44 381 44 c 0,33,34
 470 44 470 44 526.5 83.5 c 128,-1,35
 583 123 583 123 610 194 c 128,-1,36
 637 265 637 265 637 358 c 0,27,28
125 359 m 0,37,38
 125 289 125 289 141 231.5 c 128,-1,39
 157 174 157 174 189 132 c 1,40,-1
 543 620 l 1,41,42
 513 645 513 645 473.5 658.5 c 128,-1,43
 434 672 434 672 386 672 c 0,44,45
 297 672 297 672 239 632 c 128,-1,46
 181 592 181 592 153 521.5 c 128,-1,47
 125 451 125 451 125 359 c 0,37,38
EndSplineSet
EndChar

StartChar: P
Encoding: 80 80 220
Width: 586
GlyphClass: 2
Flags: W
AnchorPoint: "Anchor-5" 566 714 basechar 0
AnchorPoint: "Anchor-3" 295 714 basechar 0
AnchorPoint: "Anchor-2" 315 357 basechar 0
AnchorPoint: "Anchor-0" 293 0 basechar 0
LayerCount: 2
Fore
SplineSet
281 714 m 2,0,1
 404 714 404 714 468.5 665.5 c 128,-1,2
 533 617 533 617 533 512 c 0,3,4
 533 456 533 456 515.5 414.5 c 128,-1,5
 498 373 498 373 464.5 345 c 128,-1,6
 431 317 431 317 382 304 c 128,-1,7
 333 291 333 291 270 291 c 2,8,-1
 159 291 l 1,9,-1
 159 0 l 1,10,-1
 97 0 l 1,11,-1
 97 714 l 1,12,-1
 281 714 l 2,0,1
277 661 m 2,13,-1
 159 661 l 1,14,-1
 159 344 l 1,15,-1
 265 344 l 2,16,17
 326 344 326 344 372.5 358.5 c 128,-1,18
 419 373 419 373 445 409.5 c 128,-1,19
 471 446 471 446 471 510 c 0,20,21
 471 589 471 589 423.5 625 c 128,-1,22
 376 661 376 661 277 661 c 2,13,-1
EndSplineSet
EndChar

StartChar: Q
Encoding: 81 81 221
Width: 763
GlyphClass: 2
Flags: W
AnchorPoint: "Anchor-5" 743 714 basechar 0
AnchorPoint: "Anchor-3" 382 714 basechar 0
AnchorPoint: "Anchor-2" 383 277 basechar 0
AnchorPoint: "Anchor-0" 382 -170 basechar 0
LayerCount: 2
Fore
SplineSet
702 358 m 0,0,1
 702 267 702 267 677 193 c 128,-1,2
 652 119 652 119 602 70 c 128,-1,3
 552 21 552 21 474 3 c 1,4,-1
 623 -170 l 1,5,-1
 544 -170 l 1,6,-1
 411 -8 l 1,7,8
 404 -9 404 -9 396.5 -9.5 c 128,-1,9
 389 -10 389 -10 381 -10 c 0,10,11
 273 -10 273 -10 202 37 c 128,-1,12
 131 84 131 84 95.5 167 c 128,-1,13
 60 250 60 250 60 359 c 256,14,15
 60 468 60 468 97 550.5 c 128,-1,16
 134 633 134 633 207 679 c 128,-1,17
 280 725 280 725 386 725 c 0,18,19
 490 725 490 725 560 681 c 128,-1,20
 630 637 630 637 666 555 c 128,-1,21
 702 473 702 473 702 358 c 0,0,1
125 359 m 0,22,23
 125 266 125 266 152.5 195.5 c 128,-1,24
 180 125 180 125 237 84.5 c 128,-1,25
 294 44 294 44 381 44 c 0,26,27
 470 44 470 44 526.5 83.5 c 128,-1,28
 583 123 583 123 610 194 c 128,-1,29
 637 265 637 265 637 358 c 0,30,31
 637 507 637 507 573 589.5 c 128,-1,32
 509 672 509 672 386 672 c 0,33,34
 297 672 297 672 239 632 c 128,-1,35
 181 592 181 592 153 521.5 c 128,-1,36
 125 451 125 451 125 359 c 0,22,23
EndSplineSet
EndChar

StartChar: R
Encoding: 82 82 222
Width: 598
GlyphClass: 2
Flags: W
AnchorPoint: "Anchor-5" 578 714 basechar 0
AnchorPoint: "Anchor-3" 300 714 basechar 0
AnchorPoint: "Anchor-2" 339 357 basechar 0
AnchorPoint: "Anchor-0" 309 0 basechar 0
LayerCount: 2
Fore
SplineSet
272 714 m 2,0,1
 358 714 358 714 416.5 696 c 128,-1,2
 475 678 475 678 504.5 635.5 c 128,-1,3
 534 593 534 593 534 520 c 0,4,5
 534 444 534 444 494 395 c 128,-1,6
 454 346 454 346 382 324 c 1,7,-1
 580 0 l 1,8,-1
 508 0 l 1,9,-1
 325 307 l 1,10,-1
 159 307 l 1,11,-1
 159 0 l 1,12,-1
 97 0 l 1,13,-1
 97 714 l 1,14,-1
 272 714 l 2,0,1
268 663 m 2,15,-1
 159 663 l 1,16,-1
 159 358 l 1,17,-1
 295 358 l 2,18,19
 373 358 373 358 422.5 399 c 128,-1,20
 472 440 472 440 472 518 c 0,21,22
 472 573 472 573 449.5 605 c 128,-1,23
 427 637 427 637 382 650 c 128,-1,24
 337 663 337 663 268 663 c 2,15,-1
EndSplineSet
EndChar

StartChar: S
Encoding: 83 83 225
Width: 550
GlyphClass: 2
Flags: W
AnchorPoint: "Anchor-5" 530 714 basechar 0
AnchorPoint: "Anchor-3" 276 714 basechar 0
AnchorPoint: "Anchor-2" 277 357 basechar 0
AnchorPoint: "Anchor-0" 276 0 basechar 0
LayerCount: 2
Fore
SplineSet
501 188 m 0,0,1
 501 125 501 125 469 80.5 c 128,-1,2
 437 36 437 36 381 13 c 128,-1,3
 325 -10 325 -10 253 -10 c 0,4,5
 206 -10 206 -10 171 -5.5 c 128,-1,6
 136 -1 136 -1 108 6 c 128,-1,7
 80 13 80 13 53 22 c 1,8,-1
 53 82 l 1,9,10
 97 65 97 65 147 54 c 128,-1,11
 197 43 197 43 255 43 c 0,12,13
 306 43 306 43 347.5 58.5 c 128,-1,14
 389 74 389 74 413.5 105 c 128,-1,15
 438 136 438 136 438 185 c 0,16,17
 438 228 438 228 416.5 255 c 128,-1,18
 395 282 395 282 354 301 c 128,-1,19
 313 320 313 320 254 340 c 0,20,21
 197 360 197 360 153.5 382.5 c 128,-1,22
 110 405 110 405 85.5 441.5 c 128,-1,23
 61 478 61 478 61 538 c 0,24,25
 61 600 61 600 92 641.5 c 128,-1,26
 123 683 123 683 176.5 703.5 c 128,-1,27
 230 724 230 724 297 724 c 0,28,29
 349 724 349 724 396 714 c 128,-1,30
 443 704 443 704 487 684 c 1,31,-1
 465 634 l 1,32,33
 419 654 419 654 376 663 c 128,-1,34
 333 672 333 672 294 672 c 0,35,36
 247 672 247 672 208 658 c 128,-1,37
 169 644 169 644 146 615.5 c 128,-1,38
 123 587 123 587 123 541 c 256,39,40
 123 495 123 495 145.5 467 c 128,-1,41
 168 439 168 439 207.5 421.5 c 128,-1,42
 247 404 247 404 299 386 c 0,43,44
 360 365 360 365 405.5 341.5 c 128,-1,45
 451 318 451 318 476 282 c 128,-1,46
 501 246 501 246 501 188 c 0,0,1
EndSplineSet
EndChar

StartChar: T
Encoding: 84 84 230
Width: 523
GlyphClass: 2
Flags: W
AnchorPoint: "Anchor-5" 503 714 basechar 0
AnchorPoint: "Anchor-3" 262 714 basechar 0
AnchorPoint: "Anchor-2" 262 357 basechar 0
AnchorPoint: "Anchor-0" 262 0 basechar 0
LayerCount: 2
Fore
SplineSet
292 0 m 1,0,-1
 230 0 l 1,1,-1
 230 661 l 1,2,-1
 7 661 l 1,3,-1
 7 714 l 1,4,-1
 516 714 l 1,5,-1
 516 661 l 1,6,-1
 292 661 l 1,7,-1
 292 0 l 1,0,-1
EndSplineSet
EndChar

StartChar: Thorn
Encoding: 222 222 233
Width: 584
GlyphClass: 2
Flags: W
AnchorPoint: "Anchor-3" 293 714 basechar 0
AnchorPoint: "Anchor-2" 316 357 basechar 0
AnchorPoint: "Anchor-0" 293 0 basechar 0
LayerCount: 2
Fore
SplineSet
534 382 m 0,0,1
 534 328 534 328 517 287.5 c 128,-1,2
 500 247 500 247 466.5 219.5 c 128,-1,3
 433 192 433 192 384 178 c 128,-1,4
 335 164 335 164 270 164 c 2,5,-1
 159 164 l 1,6,-1
 159 0 l 1,7,-1
 97 0 l 1,8,-1
 97 714 l 1,9,-1
 159 714 l 1,10,-1
 159 588 l 1,11,-1
 290 588 l 2,12,13
 412 588 412 588 473 538 c 128,-1,14
 534 488 534 488 534 382 c 0,0,1
263 218 m 2,15,16
 325 218 325 218 372 233 c 128,-1,17
 419 248 419 248 445.5 284.5 c 128,-1,18
 472 321 472 321 472 382 c 0,19,20
 472 462 472 462 427 498.5 c 128,-1,21
 382 535 382 535 284 535 c 2,22,-1
 159 535 l 1,23,-1
 159 218 l 1,24,-1
 263 218 l 2,15,16
EndSplineSet
EndChar

StartChar: U
Encoding: 85 85 234
Width: 722
GlyphClass: 2
Flags: W
AnchorPoint: "Anchor-5" 702 714 basechar 0
AnchorPoint: "Anchor-3" 361 714 basechar 0
AnchorPoint: "Anchor-2" 361 352 basechar 0
AnchorPoint: "Anchor-0" 360 0 basechar 0
LayerCount: 2
Fore
SplineSet
632 259 m 2,0,1
 632 170 632 170 598.5 110 c 128,-1,2
 565 50 565 50 504 20 c 128,-1,3
 443 -10 443 -10 359 -10 c 0,4,5
 230 -10 230 -10 160 59 c 128,-1,6
 90 128 90 128 90 260 c 2,7,-1
 90 714 l 1,8,-1
 152 714 l 1,9,-1
 152 264 l 2,10,11
 152 154 152 154 206.5 99 c 128,-1,12
 261 44 261 44 361 44 c 0,13,14
 425 44 425 44 472 67 c 128,-1,15
 519 90 519 90 545 137 c 128,-1,16
 571 184 571 184 571 255 c 2,17,-1
 571 714 l 1,18,-1
 632 714 l 1,19,-1
 632 259 l 2,0,1
EndSplineSet
EndChar

StartChar: Uogonek
Encoding: 370 370 241
Width: 722
GlyphClass: 2
Flags: W
AnchorPoint: "Anchor-5" 702 714 basechar 0
AnchorPoint: "Anchor-3" 361 714 basechar 0
AnchorPoint: "Anchor-2" 361 352 basechar 0
AnchorPoint: "Anchor-0" 360 -222 basechar 0
LayerCount: 2
Fore
SplineSet
450 -115 m 0,0,1
 450 -149 450 -149 463.5 -164 c 128,-1,2
 477 -179 477 -179 503 -179 c 0,3,4
 517 -179 517 -179 531 -176.5 c 128,-1,5
 545 -174 545 -174 554 -171 c 1,6,-1
 554 -213 l 1,7,8
 544 -216 544 -216 529 -219 c 128,-1,9
 514 -222 514 -222 496 -222 c 0,10,11
 457 -222 457 -222 430.5 -198.5 c 128,-1,12
 404 -175 404 -175 404 -124 c 0,13,14
 404 -76 404 -76 432 -33 c 128,-1,15
 460 10 460 10 510 52 c 1,16,-1
 543 49 l 1,17,18
 523 28 523 28 501 3 c 128,-1,19
 479 -22 479 -22 464.5 -51 c 128,-1,20
 450 -80 450 -80 450 -115 c 0,0,1
632 259 m 2,21,22
 632 170 632 170 598.5 110 c 128,-1,23
 565 50 565 50 504 20 c 128,-1,24
 443 -10 443 -10 359 -10 c 0,25,26
 230 -10 230 -10 160 59 c 128,-1,27
 90 128 90 128 90 260 c 2,28,-1
 90 714 l 1,29,-1
 152 714 l 1,30,-1
 152 264 l 2,31,32
 152 154 152 154 206.5 99 c 128,-1,33
 261 44 261 44 361 44 c 0,34,35
 425 44 425 44 472 67 c 128,-1,36
 519 90 519 90 545 137 c 128,-1,37
 571 184 571 184 571 255 c 2,38,-1
 571 714 l 1,39,-1
 632 714 l 1,40,-1
 632 259 l 2,21,22
EndSplineSet
Ligature2: "'ccmp' Glyph Composition/Decomposition lookup 5 subtable" U uni0328
EndChar

StartChar: V
Encoding: 86 86 243
Width: 591
GlyphClass: 2
Flags: W
AnchorPoint: "Anchor-5" 571 714 basechar 0
AnchorPoint: "Anchor-3" 296 714 basechar 0
AnchorPoint: "Anchor-2" 295 357 basechar 0
AnchorPoint: "Anchor-0" 295 0 basechar 0
LayerCount: 2
Fore
SplineSet
591 714 m 1,0,-1
 329 0 l 1,1,-1
 261 0 l 1,2,-1
 0 714 l 1,3,-1
 68 714 l 1,4,-1
 259 187 l 2,5,6
 265 168 265 168 272 146.5 c 128,-1,7
 279 125 279 125 285.5 104.5 c 128,-1,8
 292 84 292 84 296 68 c 1,9,10
 300 84 300 84 305.5 103.5 c 128,-1,11
 311 123 311 123 318 144 c 128,-1,12
 325 165 325 165 333 187 c 2,13,-1
 523 714 l 1,14,-1
 591 714 l 1,0,-1
EndSplineSet
EndChar

StartChar: W
Encoding: 87 87 244
Width: 905
GlyphClass: 2
Flags: W
AnchorPoint: "Anchor-5" 885 714 basechar 0
AnchorPoint: "Anchor-3" 453 714 basechar 0
AnchorPoint: "Anchor-2" 454 357 basechar 0
AnchorPoint: "Anchor-0" 453 0 basechar 0
LayerCount: 2
Fore
SplineSet
878 714 m 1,0,-1
 685 0 l 1,1,-1
 618 0 l 1,2,-1
 476 524 l 2,3,4
 473 537 473 537 469.5 550.5 c 128,-1,5
 466 564 466 564 462.5 578 c 128,-1,6
 459 592 459 592 456 606.5 c 128,-1,7
 453 621 453 621 450 635 c 1,8,9
 448 621 448 621 445.5 608 c 128,-1,10
 443 595 443 595 440.5 583 c 128,-1,11
 438 571 438 571 435.5 561 c 128,-1,12
 433 551 433 551 431 542 c 2,13,-1
 288 0 l 1,14,-1
 220 0 l 1,15,-1
 29 714 l 1,16,-1
 90 714 l 1,17,-1
 223 210 l 2,18,19
 228 193 228 193 232.5 175.5 c 128,-1,20
 237 158 237 158 241 141 c 128,-1,21
 245 124 245 124 249 107.5 c 128,-1,22
 253 91 253 91 256 76 c 1,23,24
 259 94 259 94 263 113 c 128,-1,25
 267 132 267 132 271.5 151.5 c 128,-1,26
 276 171 276 171 281.5 190 c 128,-1,27
 287 209 287 209 292 229 c 2,28,-1
 422 714 l 1,29,-1
 480 714 l 1,30,-1
 614 227 l 2,31,32
 619 207 619 207 624 187 c 128,-1,33
 629 167 629 167 633.5 148 c 128,-1,34
 638 129 638 129 642 110 c 128,-1,35
 646 91 646 91 649 73 c 1,36,37
 653 94 653 94 657.5 116 c 128,-1,38
 662 138 662 138 667.5 160.5 c 128,-1,39
 673 183 673 183 679 208 c 2,40,-1
 818 714 l 1,41,-1
 878 714 l 1,0,-1
EndSplineSet
EndChar

StartChar: X
Encoding: 88 88 249
Width: 554
GlyphClass: 2
Flags: W
AnchorPoint: "Anchor-5" 534 714 basechar 0
AnchorPoint: "Anchor-3" 276 714 basechar 0
AnchorPoint: "Anchor-2" 277 357 basechar 0
AnchorPoint: "Anchor-0" 278 0 basechar 0
LayerCount: 2
Fore
SplineSet
556 0 m 1,0,-1
 484 0 l 1,1,-1
 278 323 l 1,2,-1
 69 0 l 1,3,-1
 -2 0 l 1,4,-1
 239 369 l 1,5,-1
 21 714 l 1,6,-1
 91 714 l 1,7,-1
 279 412 l 1,8,-1
 467 714 l 1,9,-1
 538 714 l 1,10,-1
 317 366 l 1,11,-1
 556 0 l 1,0,-1
EndSplineSet
EndChar

StartChar: Y
Encoding: 89 89 250
Width: 539
GlyphClass: 2
Flags: W
AnchorPoint: "Anchor-5" 519 714 basechar 0
AnchorPoint: "Anchor-3" 270 714 basechar 0
AnchorPoint: "Anchor-2" 269 357 basechar 0
AnchorPoint: "Anchor-0" 270 0 basechar 0
LayerCount: 2
Fore
SplineSet
270 332 m 1,0,-1
 471 714 l 1,1,-1
 539 714 l 1,2,-1
 301 276 l 1,3,-1
 301 0 l 1,4,-1
 240 0 l 1,5,-1
 240 271 l 1,6,-1
 0 714 l 1,7,-1
 68 714 l 1,8,-1
 270 332 l 1,0,-1
EndSplineSet
EndChar

StartChar: Z
Encoding: 90 90 255
Width: 585
GlyphClass: 2
Flags: W
AnchorPoint: "Anchor-5" 565 714 basechar 0
AnchorPoint: "Anchor-3" 295 714 basechar 0
AnchorPoint: "Anchor-2" 291 357 basechar 0
AnchorPoint: "Anchor-0" 295 0 basechar 0
LayerCount: 2
Fore
SplineSet
548 0 m 1,0,-1
 35 0 l 1,1,-1
 35 39 l 1,2,-1
 457 661 l 1,3,-1
 58 661 l 1,4,-1
 58 714 l 1,5,-1
 537 714 l 1,6,-1
 537 675 l 1,7,-1
 115 53 l 1,8,-1
 548 53 l 1,9,-1
 548 0 l 1,0,-1
EndSplineSet
EndChar

StartChar: a
Encoding: 97 97 259
Width: 535
GlyphClass: 2
Flags: W
AnchorPoint: "Anchor-5" 512 533 basechar 0
AnchorPoint: "Anchor-3" 268 533 basechar 0
AnchorPoint: "Anchor-2" 251 266 basechar 0
AnchorPoint: "Anchor-0" 268 0 basechar 0
LayerCount: 2
Fore
SplineSet
279 543 m 0,0,1
 366 543 366 543 411 496.5 c 128,-1,2
 456 450 456 450 456 353 c 2,3,-1
 456 0 l 1,4,-1
 410 0 l 1,5,-1
 399 97 l 1,6,-1
 397 97 l 1,7,8
 381 67 381 67 356.5 42.5 c 128,-1,9
 332 18 332 18 295.5 4 c 128,-1,10
 259 -10 259 -10 207 -10 c 256,11,12
 155 -10 155 -10 119 8 c 128,-1,13
 83 26 83 26 64 58.5 c 128,-1,14
 45 91 45 91 45 138 c 0,15,16
 45 219 45 219 110.5 259 c 128,-1,17
 176 299 176 299 294 306 c 2,18,-1
 395 311 l 1,19,-1
 395 347 l 2,20,21
 395 425 395 425 364.5 459.5 c 128,-1,22
 334 494 334 494 272 494 c 0,23,24
 233 494 233 494 195 484.5 c 128,-1,25
 157 475 157 475 115 454 c 1,26,-1
 96 501 l 1,27,28
 138 521 138 521 183.5 532 c 128,-1,29
 229 543 229 543 279 543 c 0,0,1
306 265 m 2,30,31
 215 260 215 260 162 230.5 c 128,-1,32
 109 201 109 201 109 140 c 0,33,34
 109 92 109 92 139 65 c 128,-1,35
 169 38 169 38 224 38 c 0,36,37
 311 38 311 38 352.5 88 c 128,-1,38
 394 138 394 138 395 217 c 2,39,-1
 395 269 l 1,40,-1
 306 265 l 2,30,31
EndSplineSet
Substitution2: "Single Substitution lookup 9 subtable" ordfeminine
Substitution2: "'aalt' Access All Alternates lookup 0 subtable" ordfeminine
EndChar

StartChar: acute
Encoding: 180 180 263
Width: 285
GlyphClass: 1
Flags: W
LayerCount: 2
Fore
SplineSet
245 758 m 1,0,1
 231 742 231 742 211.5 722.5 c 128,-1,2
 192 703 192 703 170 682 c 128,-1,3
 148 661 148 661 126 641.5 c 128,-1,4
 104 622 104 622 84 606 c 1,5,-1
 40 606 l 1,6,-1
 40 614 l 1,7,8
 62 633 62 633 88 660.5 c 128,-1,9
 114 688 114 688 138 716.5 c 128,-1,10
 162 745 162 745 177 766 c 1,11,-1
 245 766 l 1,12,-1
 245 758 l 1,0,1
EndSplineSet
EndChar

StartChar: ae
Encoding: 230 230 266
Width: 868
GlyphClass: 2
Flags: W
AnchorPoint: "Anchor-3" 437 533 basechar 0
AnchorPoint: "Anchor-2" 428 267 basechar 0
AnchorPoint: "Anchor-0" 434 0 basechar 0
LayerCount: 2
Fore
SplineSet
614 543 m 0,0,1
 680 543 680 543 724.5 511 c 128,-1,2
 769 479 769 479 791 423.5 c 128,-1,3
 813 368 813 368 811 295 c 2,4,-1
 811 257 l 1,5,-1
 447 257 l 1,6,7
 446 154 446 154 494.5 96.5 c 128,-1,8
 543 39 543 39 627 39 c 0,9,10
 669 39 669 39 705.5 46 c 128,-1,11
 742 53 742 53 788 75 c 1,12,-1
 788 25 l 1,13,14
 749 7 749 7 710 -1.5 c 128,-1,15
 671 -10 671 -10 622 -10 c 0,16,17
 569 -10 569 -10 528 8 c 128,-1,18
 487 26 487 26 459 58 c 128,-1,19
 431 90 431 90 416 132 c 1,20,21
 399 88 399 88 373 56 c 128,-1,22
 347 24 347 24 307 7 c 128,-1,23
 267 -10 267 -10 210 -10 c 0,24,25
 158 -10 158 -10 121 8 c 128,-1,26
 84 26 84 26 64.5 59 c 128,-1,27
 45 92 45 92 45 138 c 0,28,29
 45 193 45 193 75.5 228.5 c 128,-1,30
 106 264 106 264 161 282.5 c 128,-1,31
 216 301 216 301 292 306 c 2,32,-1
 387 311 l 1,33,-1
 387 347 l 2,34,35
 387 426 387 426 356.5 460 c 128,-1,36
 326 494 326 494 270 494 c 0,37,38
 234 494 234 494 195.5 485 c 128,-1,39
 157 476 157 476 115 454 c 1,40,-1
 97 501 l 1,41,42
 138 521 138 521 182.5 532 c 128,-1,43
 227 543 227 543 273 543 c 0,44,45
 338 543 338 543 377 511.5 c 128,-1,46
 416 480 416 480 428 412 c 1,47,48
 453 471 453 471 499 507 c 128,-1,49
 545 543 545 543 614 543 c 0,0,1
304 265 m 2,50,51
 214 261 214 261 161.5 230.5 c 128,-1,52
 109 200 109 200 109 139 c 0,53,54
 109 91 109 91 139.5 64.5 c 128,-1,55
 170 38 170 38 226 38 c 0,56,57
 280 38 280 38 315.5 61 c 128,-1,58
 351 84 351 84 368.5 124 c 128,-1,59
 386 164 386 164 387 217 c 2,60,-1
 387 269 l 1,61,-1
 304 265 l 2,50,51
612 496 m 0,62,63
 547 496 547 496 501.5 447.5 c 128,-1,64
 456 399 456 399 448 302 c 1,65,-1
 753 302 l 1,66,67
 754 360 754 360 738 403.5 c 128,-1,68
 722 447 722 447 690.5 471.5 c 128,-1,69
 659 496 659 496 612 496 c 0,62,63
EndSplineSet
EndChar

StartChar: ampersand
Encoding: 38 38 269
Width: 723
GlyphClass: 1
Flags: W
LayerCount: 2
Fore
SplineSet
310 725 m 0,0,1
 385 725 385 725 432 685 c 128,-1,2
 479 645 479 645 479 575 c 0,3,4
 479 508 479 508 434.5 464.5 c 128,-1,5
 390 421 390 421 317 383 c 1,6,-1
 529 169 l 1,7,8
 556 203 556 203 577.5 248 c 128,-1,9
 599 293 599 293 610 344 c 1,10,-1
 674 344 l 1,11,12
 659 280 659 280 632 226 c 128,-1,13
 605 172 605 172 570 128 c 1,14,-1
 696 0 l 1,15,-1
 616 0 l 1,16,-1
 528 93 l 1,17,18
 498 64 498 64 464.5 40.5 c 128,-1,19
 431 17 431 17 387.5 3.5 c 128,-1,20
 344 -10 344 -10 284 -10 c 0,21,22
 216 -10 216 -10 165 13.5 c 128,-1,23
 114 37 114 37 85.5 80 c 128,-1,24
 57 123 57 123 57 183 c 0,25,26
 57 236 57 236 77 273.5 c 128,-1,27
 97 311 97 311 136 339.5 c 128,-1,28
 175 368 175 368 229 395 c 1,29,30
 198 427 198 427 176 454.5 c 128,-1,31
 154 482 154 482 143 510 c 128,-1,32
 132 538 132 538 132 571 c 0,33,34
 132 640 132 640 180 682.5 c 128,-1,35
 228 725 228 725 310 725 c 0,0,1
266 358 m 1,36,37
 219 336 219 336 186 312.5 c 128,-1,38
 153 289 153 289 136.5 259.5 c 128,-1,39
 120 230 120 230 120 186 c 0,40,41
 120 117 120 117 166.5 79.5 c 128,-1,42
 213 42 213 42 288 42 c 0,43,44
 359 42 359 42 405 66.5 c 128,-1,45
 451 91 451 91 490 131 c 1,46,-1
 266 358 l 1,36,37
309 678 m 0,47,48
 254 678 254 678 221.5 649 c 128,-1,49
 189 620 189 620 189 570 c 0,50,51
 189 529 189 529 213 496 c 128,-1,52
 237 463 237 463 280 420 c 1,53,54
 345 449 345 449 383 485.5 c 128,-1,55
 421 522 421 522 421 575 c 0,56,57
 421 624 421 624 390.5 651 c 128,-1,58
 360 678 360 678 309 678 c 0,47,48
EndSplineSet
EndChar

StartChar: asciicircum
Encoding: 94 94 272
Width: 560
GlyphClass: 1
Flags: W
LayerCount: 2
Fore
SplineSet
35 271 m 1,0,-1
 266 719 l 1,1,-1
 302 719 l 1,2,-1
 527 271 l 1,3,-1
 474 271 l 1,4,-1
 284 652 l 1,5,-1
 87 271 l 1,6,-1
 35 271 l 1,0,-1
EndSplineSet
EndChar

StartChar: asciitilde
Encoding: 126 126 273
Width: 573
GlyphClass: 1
Flags: W
LayerCount: 2
Fore
SplineSet
280 331 m 0,0,1
 251 345 251 345 226.5 353 c 128,-1,2
 202 361 202 361 170 361 c 0,3,4
 141 361 141 361 111.5 347.5 c 128,-1,5
 82 334 82 334 54 305 c 1,6,-1
 54 359 l 1,7,8
 77 381 77 381 108 394.5 c 128,-1,9
 139 408 139 408 173 408 c 0,10,11
 212 408 212 408 239 399 c 128,-1,12
 266 390 266 390 298 375 c 0,13,14
 328 361 328 361 352.5 353 c 128,-1,15
 377 345 377 345 406 345 c 0,16,17
 433 345 433 345 462 357.5 c 128,-1,18
 491 370 491 370 520 400 c 1,19,-1
 520 348 l 1,20,21
 499 327 499 327 469 312.5 c 128,-1,22
 439 298 439 298 402 298 c 0,23,24
 368 298 368 298 341 306.5 c 128,-1,25
 314 315 314 315 280 331 c 0,0,1
EndSplineSet
EndChar

StartChar: asterisk
Encoding: 42 42 274
Width: 548
GlyphClass: 1
Flags: W
LayerCount: 2
Fore
SplineSet
299 758 m 1,0,-1
 290 560 l 1,1,-1
 480 624 l 1,2,-1
 490 573 l 1,3,-1
 303 526 l 1,4,-1
 423 368 l 1,5,-1
 378 341 l 1,6,-1
 272 504 l 1,7,-1
 168 342 l 1,8,-1
 122 368 l 1,9,-1
 242 526 l 1,10,-1
 53 573 l 1,11,-1
 65 624 l 1,12,-1
 254 560 l 1,13,-1
 245 758 l 1,14,-1
 299 758 l 1,0,-1
EndSplineSet
EndChar

StartChar: at
Encoding: 64 64 275
Width: 882
GlyphClass: 1
Flags: W
LayerCount: 2
Fore
SplineSet
833 355 m 0,0,1
 833 305 833 305 823 260 c 128,-1,2
 813 215 813 215 792.5 181 c 128,-1,3
 772 147 772 147 741.5 127.5 c 128,-1,4
 711 108 711 108 670 108 c 0,5,6
 627 108 627 108 598 132.5 c 128,-1,7
 569 157 569 157 563 203 c 1,8,-1
 561 203 l 1,9,10
 539 154 539 154 499 131 c 128,-1,11
 459 108 459 108 413 108 c 0,12,13
 335 108 335 108 294 155.5 c 128,-1,14
 253 203 253 203 253 290 c 0,15,16
 253 354 253 354 280.5 404.5 c 128,-1,17
 308 455 308 455 357 484.5 c 128,-1,18
 406 514 406 514 473 514 c 0,19,20
 512 514 512 514 547 508 c 128,-1,21
 582 502 582 502 611 492 c 1,22,-1
 603 334 l 2,23,24
 602 319 602 319 601 296 c 128,-1,25
 600 273 600 273 600 249 c 0,26,27
 600 202 600 202 616 176.5 c 128,-1,28
 632 151 632 151 670 151 c 0,29,30
 709 151 709 151 734.5 177.5 c 128,-1,31
 760 204 760 204 772 250 c 128,-1,32
 784 296 784 296 784 355 c 0,33,34
 784 449 784 449 748 519 c 128,-1,35
 712 589 712 589 642 628 c 128,-1,36
 572 667 572 667 469 667 c 0,37,38
 359 667 359 667 275 622 c 128,-1,39
 191 577 191 577 145 492 c 128,-1,40
 99 407 99 407 99 287 c 0,41,42
 99 182 99 182 137 106.5 c 128,-1,43
 175 31 175 31 246.5 -10 c 128,-1,44
 318 -51 318 -51 419 -51 c 0,45,46
 471 -51 471 -51 526 -40.5 c 128,-1,47
 581 -30 581 -30 632 -9 c 1,48,-1
 632 -55 l 1,49,50
 587 -74 587 -74 533.5 -84.5 c 128,-1,51
 480 -95 480 -95 421 -95 c 0,52,53
 305 -95 305 -95 222 -48.5 c 128,-1,54
 139 -2 139 -2 94 84 c 128,-1,55
 49 170 49 170 49 287 c 0,56,57
 49 386 49 386 79.5 464.5 c 128,-1,58
 110 543 110 543 165.5 597.5 c 128,-1,59
 221 652 221 652 298 681 c 128,-1,60
 375 710 375 710 468 710 c 0,61,62
 581 710 581 710 662.5 666.5 c 128,-1,63
 744 623 744 623 788.5 543.5 c 128,-1,64
 833 464 833 464 833 355 c 0,0,1
303 290 m 0,65,66
 303 223 303 223 331.5 187 c 128,-1,67
 360 151 360 151 416 151 c 0,68,69
 480 151 480 151 514.5 193 c 128,-1,70
 549 235 549 235 553 325 c 2,71,-1
 561 459 l 1,72,73
 541 466 541 466 520.5 469 c 128,-1,74
 500 472 500 472 473 472 c 0,75,76
 396 472 396 472 349.5 422 c 128,-1,77
 303 372 303 372 303 290 c 0,65,66
EndSplineSet
EndChar

StartChar: b
Encoding: 98 98 277
Width: 596
GlyphClass: 2
Flags: W
AnchorPoint: "Anchor-5" 544 760 basechar 0
AnchorPoint: "Anchor-3" 300 760 basechar 0
AnchorPoint: "Anchor-2" 312 375 basechar 0
AnchorPoint: "Anchor-0" 301 0 basechar 0
LayerCount: 2
Fore
SplineSet
145 538 m 2,0,1
 145 513 145 513 144.5 480 c 128,-1,2
 144 447 144 447 142 422 c 1,3,-1
 145 422 l 1,4,5
 163 475 163 475 211 509.5 c 128,-1,6
 259 544 259 544 331 544 c 0,7,8
 432 544 432 544 486 474 c 128,-1,9
 540 404 540 404 540 269 c 0,10,11
 540 189 540 189 516 126 c 128,-1,12
 492 63 492 63 442.5 26.5 c 128,-1,13
 393 -10 393 -10 317 -10 c 0,14,15
 249 -10 249 -10 207 20 c 128,-1,16
 165 50 165 50 147 93 c 1,17,-1
 143 93 l 1,18,-1
 133 0 l 1,19,-1
 84 0 l 1,20,-1
 84 760 l 1,21,-1
 145 760 l 1,22,-1
 145 538 l 2,0,1
316 493 m 0,23,24
 229 493 229 493 187 434 c 128,-1,25
 145 375 145 375 145 270 c 2,26,-1
 145 257 l 2,27,28
 145 152 145 152 184 97 c 128,-1,29
 223 42 223 42 304 42 c 0,30,31
 389 42 389 42 433.5 101 c 128,-1,32
 478 160 478 160 478 269 c 0,33,34
 478 380 478 380 437.5 436.5 c 128,-1,35
 397 493 397 493 316 493 c 0,23,24
EndSplineSet
EndChar

StartChar: backslash
Encoding: 92 92 278
Width: 348
GlyphClass: 1
Flags: W
LayerCount: 2
Fore
SplineSet
69 716 m 1,0,-1
 336 -2 l 1,1,-1
 278 -2 l 1,2,-1
 11 716 l 1,3,-1
 69 716 l 1,0,-1
EndSplineSet
EndChar

StartChar: bar
Encoding: 124 124 279
Width: 529
GlyphClass: 1
Flags: W
LayerCount: 2
Fore
SplineSet
239 762 m 1,0,-1
 287 762 l 1,1,-1
 287 -244 l 1,2,-1
 239 -244 l 1,3,-1
 239 762 l 1,0,-1
EndSplineSet
EndChar

StartChar: braceleft
Encoding: 123 123 280
Width: 357
GlyphClass: 1
Flags: W
LayerCount: 2
Fore
SplineSet
321 -160 m 1,0,1
 257 -160 257 -160 217 -144 c 128,-1,2
 177 -128 177 -128 158 -96 c 128,-1,3
 139 -64 139 -64 139 -18 c 2,4,-1
 139 142 l 2,5,6
 139 182 139 182 126.5 206.5 c 128,-1,7
 114 231 114 231 89.5 242 c 128,-1,8
 65 253 65 253 27 253 c 1,9,-1
 27 303 l 1,10,11
 65 303 65 303 89.5 313.5 c 128,-1,12
 114 324 114 324 126.5 348.5 c 128,-1,13
 139 373 139 373 139 414 c 2,14,-1
 139 575 l 2,15,16
 139 621 139 621 157.5 652.5 c 128,-1,17
 176 684 176 684 216.5 700 c 128,-1,18
 257 716 257 716 321 716 c 1,19,-1
 321 668 l 1,20,21
 279 668 279 668 251 657.5 c 128,-1,22
 223 647 223 647 208.5 625 c 128,-1,23
 194 603 194 603 194 565 c 2,24,-1
 194 404 l 2,25,26
 194 351 194 351 173.5 319 c 128,-1,27
 153 287 153 287 107 279 c 1,28,-1
 107 277 l 1,29,30
 154 268 154 268 174 236.5 c 128,-1,31
 194 205 194 205 194 153 c 2,32,-1
 194 -11 l 2,33,34
 194 -47 194 -47 208.5 -69 c 128,-1,35
 223 -91 223 -91 251.5 -101 c 128,-1,36
 280 -111 280 -111 321 -112 c 1,37,-1
 321 -160 l 1,0,1
EndSplineSet
EndChar

StartChar: braceright
Encoding: 125 125 281
Width: 357
GlyphClass: 1
Flags: W
LayerCount: 2
Fore
SplineSet
35 -112 m 1,0,1
 77 -111 77 -111 105.5 -101 c 128,-1,2
 134 -91 134 -91 148.5 -69 c 128,-1,3
 163 -47 163 -47 163 -11 c 2,4,-1
 163 153 l 2,5,6
 163 205 163 205 183 236.5 c 128,-1,7
 203 268 203 268 250 277 c 1,8,-1
 250 279 l 1,9,10
 204 287 204 287 183.5 319 c 128,-1,11
 163 351 163 351 163 404 c 2,12,-1
 163 565 l 2,13,14
 163 603 163 603 148.5 625 c 128,-1,15
 134 647 134 647 105.5 657.5 c 128,-1,16
 77 668 77 668 35 668 c 1,17,-1
 35 716 l 1,18,19
 101 716 101 716 140.5 700 c 128,-1,20
 180 684 180 684 199 652.5 c 128,-1,21
 218 621 218 621 218 575 c 2,22,-1
 218 414 l 2,23,24
 218 373 218 373 230 348.5 c 128,-1,25
 242 324 242 324 267 313.5 c 128,-1,26
 292 303 292 303 330 303 c 1,27,-1
 330 253 l 1,28,29
 292 253 292 253 267 242 c 128,-1,30
 242 231 242 231 230 206.5 c 128,-1,31
 218 182 218 182 218 142 c 2,32,-1
 218 -18 l 2,33,34
 218 -64 218 -64 199 -96 c 128,-1,35
 180 -128 180 -128 140 -144 c 128,-1,36
 100 -160 100 -160 35 -160 c 1,37,-1
 35 -112 l 1,0,1
EndSplineSet
EndChar

StartChar: bracketleft
Encoding: 91 91 282
Width: 315
GlyphClass: 1
Flags: W
LayerCount: 2
Fore
SplineSet
291 -160 m 1,0,-1
 81 -160 l 1,1,-1
 81 718 l 1,2,-1
 291 718 l 1,3,-1
 291 672 l 1,4,-1
 134 672 l 1,5,-1
 134 -114 l 1,6,-1
 291 -114 l 1,7,-1
 291 -160 l 1,0,-1
EndSplineSet
EndChar

StartChar: bracketright
Encoding: 93 93 283
Width: 315
GlyphClass: 1
Flags: W
LayerCount: 2
Fore
SplineSet
25 -114 m 1,0,-1
 181 -114 l 1,1,-1
 181 672 l 1,2,-1
 25 672 l 1,3,-1
 25 718 l 1,4,-1
 234 718 l 1,5,-1
 234 -160 l 1,6,-1
 25 -160 l 1,7,-1
 25 -114 l 1,0,-1
EndSplineSet
EndChar

StartChar: breve
Encoding: 728 728 284
Width: 357
GlyphClass: 1
Flags: W
LayerCount: 2
Fore
SplineSet
317 733 m 1,0,1
 313 693 313 693 295.5 664.5 c 128,-1,2
 278 636 278 636 248.5 621 c 128,-1,3
 219 606 219 606 178 606 c 0,4,5
 115 606 115 606 80 639 c 128,-1,6
 45 672 45 672 40 733 c 1,7,-1
 82 733 l 1,8,9
 87 692 87 692 110 671 c 128,-1,10
 133 650 133 650 178 650 c 256,11,12
 223 650 223 650 246 671.5 c 128,-1,13
 269 693 269 693 274 733 c 1,14,-1
 317 733 l 1,0,1
EndSplineSet
EndChar

StartChar: bullet
Encoding: 8226 8226 286
Width: 379
GlyphClass: 1
Flags: W
LayerCount: 2
Fore
SplineSet
114 365 m 0,0,1
 114 394 114 394 123 414 c 128,-1,2
 132 434 132 434 149 444 c 128,-1,3
 166 454 166 454 190 454 c 256,4,5
 214 454 214 454 231 443.5 c 128,-1,6
 248 433 248 433 257 413 c 128,-1,7
 266 393 266 393 266 365 c 0,8,9
 266 338 266 338 257 317.5 c 128,-1,10
 248 297 248 297 231 286.5 c 128,-1,11
 214 276 214 276 190 276 c 256,12,13
 166 276 166 276 149 286.5 c 128,-1,14
 132 297 132 297 123 317.5 c 128,-1,15
 114 338 114 338 114 365 c 0,0,1
EndSplineSet
EndChar

StartChar: c
Encoding: 99 99 287
Width: 486
GlyphClass: 2
Flags: W
AnchorPoint: "Anchor-5" 465 533 basechar 0
AnchorPoint: "Anchor-3" 303 533 basechar 0
AnchorPoint: "Anchor-2" 256 267 basechar 0
AnchorPoint: "Anchor-0" 300 0 basechar 0
LayerCount: 2
Fore
SplineSet
305 -10 m 0,0,1
 221 -10 221 -10 165.5 24.5 c 128,-1,2
 110 59 110 59 82.5 120.5 c 128,-1,3
 55 182 55 182 55 264 c 0,4,5
 55 349 55 349 88 411.5 c 128,-1,6
 121 474 121 474 180.5 508.5 c 128,-1,7
 240 543 240 543 322 543 c 0,8,9
 361 543 361 543 394 536 c 128,-1,10
 427 529 427 529 457 515 c 1,11,-1
 441 466 l 1,12,13
 411 480 411 480 381.5 486 c 128,-1,14
 352 492 352 492 322 492 c 0,15,16
 259 492 259 492 213.5 463.5 c 128,-1,17
 168 435 168 435 143 383.5 c 128,-1,18
 118 332 118 332 118 264 c 0,19,20
 118 200 118 200 138.5 150 c 128,-1,21
 159 100 159 100 201 71 c 128,-1,22
 243 42 243 42 309 42 c 0,23,24
 346 42 346 42 382.5 50.5 c 128,-1,25
 419 59 419 59 450 73 c 1,26,-1
 450 21 l 1,27,28
 423 8 423 8 386.5 -1 c 128,-1,29
 350 -10 350 -10 305 -10 c 0,0,1
EndSplineSet
EndChar

StartChar: caron
Encoding: 711 711 289
Width: 373
GlyphClass: 1
Flags: W
LayerCount: 2
Fore
SplineSet
157 606 m 1,0,1
 144 627 144 627 123.5 654.5 c 128,-1,2
 103 682 103 682 81 709 c 128,-1,3
 59 736 59 736 40 756 c 1,4,-1
 40 764 l 1,5,-1
 83 764 l 1,6,7
 111 738 111 738 137 707.5 c 128,-1,8
 163 677 163 677 185 650 c 1,9,10
 207 677 207 677 234.5 707.5 c 128,-1,11
 262 738 262 738 290 764 c 1,12,-1
 333 764 l 1,13,-1
 333 756 l 1,14,15
 315 737 315 737 292 709.5 c 128,-1,16
 269 682 269 682 248.5 654.5 c 128,-1,17
 228 627 228 627 215 606 c 1,18,-1
 157 606 l 1,0,1
EndSplineSet
EndChar

StartChar: cedilla
Encoding: 184 184 294
Width: 213
GlyphClass: 1
Flags: W
LayerCount: 2
Fore
SplineSet
198 -140 m 0,0,1
 198 -185 198 -185 165 -212.5 c 128,-1,2
 132 -240 132 -240 80 -240 c 0,3,4
 58 -240 58 -240 41.5 -238 c 128,-1,5
 25 -236 25 -236 13 -232 c 1,6,-1
 13 -193 l 1,7,8
 26 -197 26 -197 39.5 -198.5 c 128,-1,9
 53 -200 53 -200 71 -200 c 0,10,11
 105 -200 105 -200 127 -184 c 128,-1,12
 149 -168 149 -168 149 -139 c 256,13,14
 149 -110 149 -110 126 -96.5 c 128,-1,15
 103 -83 103 -83 53 -81 c 1,16,-1
 94 0 l 1,17,-1
 134 0 l 1,18,-1
 106 -58 l 1,19,20
 133 -59 133 -59 153.5 -69 c 128,-1,21
 174 -79 174 -79 186 -97 c 128,-1,22
 198 -115 198 -115 198 -140 c 0,0,1
EndSplineSet
EndChar

StartChar: cent
Encoding: 162 162 296
Width: 573
GlyphClass: 1
Flags: W
LayerCount: 2
Fore
SplineSet
346 640 m 1,0,1
 387 640 387 640 419 633.5 c 128,-1,2
 451 627 451 627 482 613 c 1,3,-1
 466 563 l 1,4,5
 436 577 436 577 406.5 583 c 128,-1,6
 377 589 377 589 347 589 c 0,7,8
 284 589 284 589 238.5 560.5 c 128,-1,9
 193 532 193 532 168 480.5 c 128,-1,10
 143 429 143 429 143 361 c 0,11,12
 143 297 143 297 163.5 247 c 128,-1,13
 184 197 184 197 226 168 c 128,-1,14
 268 139 268 139 334 139 c 0,15,16
 371 139 371 139 407.5 147.5 c 128,-1,17
 444 156 444 156 475 170 c 1,18,-1
 475 118 l 1,19,20
 451 106 451 106 418 97.5 c 128,-1,21
 385 89 385 89 346 87 c 1,22,-1
 346 -10 l 1,23,-1
 305 -10 l 1,24,-1
 305 88 l 1,25,26
 229 93 229 93 179 128.5 c 128,-1,27
 129 164 129 164 104.5 224 c 128,-1,28
 80 284 80 284 80 361 c 256,29,30
 80 438 80 438 107 497 c 128,-1,31
 134 556 134 556 184.5 592.5 c 128,-1,32
 235 629 235 629 305 637 c 1,33,-1
 305 724 l 1,34,-1
 346 724 l 1,35,-1
 346 640 l 1,0,1
EndSplineSet
EndChar

StartChar: circumflex
Encoding: 710 710 297
Width: 373
GlyphClass: 1
Flags: W
LayerCount: 2
Fore
SplineSet
216 764 m 1,0,1
 229 743 229 743 249.5 715.5 c 128,-1,2
 270 688 270 688 292.5 661 c 128,-1,3
 315 634 315 634 333 614 c 1,4,-1
 333 606 l 1,5,-1
 290 606 l 1,6,7
 262 631 262 631 235.5 662 c 128,-1,8
 209 693 209 693 187 720 c 1,9,10
 165 693 165 693 138 662.5 c 128,-1,11
 111 632 111 632 83 606 c 1,12,-1
 40 606 l 1,13,-1
 40 614 l 1,14,15
 59 634 59 634 81.5 661 c 128,-1,16
 104 688 104 688 124.5 715.5 c 128,-1,17
 145 743 145 743 158 764 c 1,18,-1
 216 764 l 1,0,1
EndSplineSet
EndChar

StartChar: colon
Encoding: 58 58 299
Width: 235
GlyphClass: 1
Flags: W
LayerCount: 2
Fore
SplineSet
76 35 m 0,0,1
 76 56 76 56 86.5 68 c 128,-1,2
 97 80 97 80 118 80 c 0,3,4
 141 80 141 80 150.5 68 c 128,-1,5
 160 56 160 56 160 35 c 0,6,7
 160 15 160 15 150.5 3 c 128,-1,8
 141 -9 141 -9 118 -9 c 0,9,10
 97 -9 97 -9 86.5 3 c 128,-1,11
 76 15 76 15 76 35 c 0,0,1
76 494 m 0,12,13
 76 514 76 514 86.5 526 c 128,-1,14
 97 538 97 538 118 538 c 0,15,16
 141 538 141 538 150.5 526 c 128,-1,17
 160 514 160 514 160 494 c 0,18,19
 160 473 160 473 150.5 461 c 128,-1,20
 141 449 141 449 118 449 c 0,21,22
 97 449 97 449 86.5 461 c 128,-1,23
 76 473 76 473 76 494 c 0,12,13
EndSplineSet
EndChar

StartChar: comma
Encoding: 44 44 300
Width: 210
GlyphClass: 1
Flags: W
LayerCount: 2
Fore
SplineSet
152 111 m 1,0,1
 144 74 144 74 133 31 c 128,-1,2
 122 -12 122 -12 109.5 -54 c 128,-1,3
 97 -96 97 -96 82 -131 c 1,4,-1
 36 -131 l 1,5,6
 50 -83 50 -83 60 -40 c 128,-1,7
 70 3 70 3 77.5 43.5 c 128,-1,8
 85 84 85 84 90 122 c 1,9,-1
 148 122 l 1,10,-1
 152 111 l 1,0,1
EndSplineSet
EndChar

StartChar: uni0326
Encoding: 806 806 301
Width: 0
GlyphClass: 4
Flags: W
AnchorPoint: "Anchor-6" 0 -221 basemark 0
AnchorPoint: "Anchor-6" -1 0 mark 0
AnchorPoint: "Anchor-0" -1 0 mark 0
LayerCount: 2
Fore
SplineSet
50 -68 m 1,0,1
 39 -107 39 -107 24 -146 c 128,-1,2
 9 -185 9 -185 -14 -221 c 1,3,-1
 -51 -221 l 1,4,-1
 -51 -213 l 1,5,6
 -44 -197 -44 -197 -35 -169 c 128,-1,7
 -26 -141 -26 -141 -19 -111.5 c 128,-1,8
 -12 -82 -12 -82 -10 -61 c 1,9,-1
 50 -61 l 1,10,-1
 50 -68 l 1,0,1
EndSplineSet
EndChar

StartChar: copyright
Encoding: 169 169 302
Width: 830
GlyphClass: 1
Flags: W
LayerCount: 2
Fore
SplineSet
430 140 m 0,0,1
 335 140 335 140 279 195 c 128,-1,2
 223 250 223 250 223 357 c 0,3,4
 223 423 223 423 248.5 472 c 128,-1,5
 274 521 274 521 321.5 548 c 128,-1,6
 369 575 369 575 432 575 c 0,7,8
 477 575 477 575 507.5 567 c 128,-1,9
 538 559 538 559 565 546 c 1,10,-1
 547 507 l 1,11,12
 523 518 523 518 496.5 524.5 c 128,-1,13
 470 531 470 531 434 531 c 0,14,15
 363 531 363 531 318 484.5 c 128,-1,16
 273 438 273 438 273 356 c 0,17,18
 273 269 273 269 318 226 c 128,-1,19
 363 183 363 183 432 183 c 0,20,21
 466 183 466 183 492.5 188.5 c 128,-1,22
 519 194 519 194 549 206 c 1,23,-1
 549 163 l 1,24,25
 523 152 523 152 494 146 c 128,-1,26
 465 140 465 140 430 140 c 0,0,1
415 -8 m 0,27,28
 335 -8 335 -8 268 20 c 128,-1,29
 201 48 201 48 152 98.5 c 128,-1,30
 103 149 103 149 76 215 c 128,-1,31
 49 281 49 281 49 357 c 0,32,33
 49 435 49 435 77.5 502 c 128,-1,34
 106 569 106 569 156.5 618.5 c 128,-1,35
 207 668 207 668 273 695 c 128,-1,36
 339 722 339 722 415 722 c 0,37,38
 495 722 495 722 562 693 c 128,-1,39
 629 664 629 664 678 613 c 128,-1,40
 727 562 727 562 754 496 c 128,-1,41
 781 430 781 430 781 357 c 0,42,43
 781 281 781 281 753 214.5 c 128,-1,44
 725 148 725 148 674.5 98 c 128,-1,45
 624 48 624 48 557.5 20 c 128,-1,46
 491 -8 491 -8 415 -8 c 0,27,28
415 28 m 0,47,48
 486 28 486 28 545.5 54.5 c 128,-1,49
 605 81 605 81 649 126 c 128,-1,50
 693 171 693 171 717.5 230.5 c 128,-1,51
 742 290 742 290 742 357 c 0,52,53
 742 425 742 425 717.5 484 c 128,-1,54
 693 543 693 543 649 588.5 c 128,-1,55
 605 634 605 634 545.5 660 c 128,-1,56
 486 686 486 686 415 686 c 0,57,58
 345 686 345 686 286 660.5 c 128,-1,59
 227 635 227 635 182.5 590.5 c 128,-1,60
 138 546 138 546 113 486 c 128,-1,61
 88 426 88 426 88 357 c 0,62,63
 88 289 88 289 111.5 229.5 c 128,-1,64
 135 170 135 170 178.5 125 c 128,-1,65
 222 80 222 80 282 54 c 128,-1,66
 342 28 342 28 415 28 c 0,47,48
EndSplineSet
EndChar

StartChar: d
Encoding: 100 100 303
Width: 596
GlyphClass: 2
Flags: W
AnchorPoint: "Anchor-5" 572 760 basechar 0
AnchorPoint: "Anchor-3" 280 760 basechar 0
AnchorPoint: "Anchor-2" 298 267 basechar 0
AnchorPoint: "Anchor-0" 297 0 basechar 0
LayerCount: 2
Fore
SplineSet
273 -10 m 0,0,1
 166 -10 166 -10 110.5 59 c 128,-1,2
 55 128 55 128 55 259 c 0,3,4
 55 397 55 397 114.5 470 c 128,-1,5
 174 543 174 543 281 543 c 0,6,7
 327 543 327 543 360.5 528 c 128,-1,8
 394 513 394 513 417 487 c 128,-1,9
 440 461 440 461 451 428 c 1,10,-1
 454 428 l 1,11,12
 452 460 452 460 451 493 c 128,-1,13
 450 526 450 526 450 558 c 2,14,-1
 450 760 l 1,15,-1
 512 760 l 1,16,-1
 512 0 l 1,17,-1
 464 0 l 1,18,-1
 453 104 l 1,19,-1
 450 104 l 1,20,21
 438 73 438 73 415.5 47 c 128,-1,22
 393 21 393 21 358 5.5 c 128,-1,23
 323 -10 323 -10 273 -10 c 0,0,1
290 42 m 0,24,25
 379 42 379 42 416.5 99.5 c 128,-1,26
 454 157 454 157 454 262 c 2,27,-1
 454 268 l 2,28,29
 454 376 454 376 415.5 433.5 c 128,-1,30
 377 491 377 491 296 491 c 0,31,32
 211 491 211 491 164.5 433 c 128,-1,33
 118 375 118 375 118 258 c 0,34,35
 118 149 118 149 161 95.5 c 128,-1,36
 204 42 204 42 290 42 c 0,24,25
EndSplineSet
EndChar

StartChar: dcroat
Encoding: 273 273 305
Width: 599
GlyphClass: 2
Flags: W
AnchorPoint: "Anchor-3" 300 760 basechar 0
AnchorPoint: "Anchor-2" 320 375 basechar 0
AnchorPoint: "Anchor-0" 300 0 basechar 0
LayerCount: 2
Fore
SplineSet
272 -10 m 0,0,1
 165 -10 165 -10 110 58 c 128,-1,2
 55 126 55 126 55 253 c 0,3,4
 55 390 55 390 115 461.5 c 128,-1,5
 175 533 175 533 282 533 c 0,6,7
 328 533 328 533 361.5 517.5 c 128,-1,8
 395 502 395 502 418 476.5 c 128,-1,9
 441 451 441 451 453 418 c 1,10,-1
 455 418 l 1,11,12
 454 448 454 448 452 481 c 128,-1,13
 450 514 450 514 450 548 c 2,14,-1
 450 617 l 1,15,-1
 236 617 l 1,16,-1
 236 662 l 1,17,-1
 450 662 l 1,18,-1
 450 760 l 1,19,-1
 512 760 l 1,20,-1
 512 662 l 1,21,-1
 586 662 l 1,22,-1
 586 617 l 1,23,-1
 512 617 l 1,24,-1
 512 0 l 1,25,-1
 461 0 l 1,26,-1
 450 104 l 1,27,-1
 447 104 l 1,28,29
 435 73 435 73 412.5 47 c 128,-1,30
 390 21 390 21 355.5 5.5 c 128,-1,31
 321 -10 321 -10 272 -10 c 0,0,1
292 42 m 0,32,33
 380 42 380 42 416.5 98.5 c 128,-1,34
 453 155 453 155 453 258 c 2,35,-1
 453 263 l 2,36,37
 453 368 453 368 414 424 c 128,-1,38
 375 480 375 480 298 480 c 0,39,40
 213 480 213 480 167 424 c 128,-1,41
 121 368 121 368 121 253 c 0,42,43
 121 150 121 150 163 96 c 128,-1,44
 205 42 205 42 292 42 c 0,32,33
EndSplineSet
EndChar

StartChar: degree
Encoding: 176 176 306
Width: 427
GlyphClass: 1
Flags: W
LayerCount: 2
Fore
SplineSet
213 425 m 0,0,1
 171 425 171 425 136.5 443.5 c 128,-1,2
 102 462 102 462 82 496 c 128,-1,3
 62 530 62 530 62 575 c 256,4,5
 62 620 62 620 82 653 c 128,-1,6
 102 686 102 686 136.5 705 c 128,-1,7
 171 724 171 724 213 724 c 0,8,9
 257 724 257 724 291 705 c 128,-1,10
 325 686 325 686 344.5 652.5 c 128,-1,11
 364 619 364 619 364 575 c 0,12,13
 364 530 364 530 344.5 496 c 128,-1,14
 325 462 325 462 291 443.5 c 128,-1,15
 257 425 257 425 213 425 c 0,0,1
213 469 m 0,16,17
 259 469 259 469 288.5 499 c 128,-1,18
 318 529 318 529 318 575 c 0,19,20
 318 623 318 623 288.5 651.5 c 128,-1,21
 259 680 259 680 213 680 c 0,22,23
 166 680 166 680 137 651.5 c 128,-1,24
 108 623 108 623 108 575 c 0,25,26
 108 529 108 529 137 499 c 128,-1,27
 166 469 166 469 213 469 c 0,16,17
EndSplineSet
EndChar

StartChar: dieresis
Encoding: 168 168 307
Width: 581
GlyphClass: 1
Flags: W
LayerCount: 2
Fore
SplineSet
157 681 m 0,0,1
 157 699 157 699 166 710 c 128,-1,2
 175 721 175 721 193 721 c 0,3,4
 213 721 213 721 221.5 710 c 128,-1,5
 230 699 230 699 230 681 c 0,6,7
 230 662 230 662 221.5 651 c 128,-1,8
 213 640 213 640 193 640 c 0,9,10
 175 640 175 640 166 651 c 128,-1,11
 157 662 157 662 157 681 c 0,0,1
352 681 m 0,12,13
 352 699 352 699 361.5 710 c 128,-1,14
 371 721 371 721 388 721 c 0,15,16
 409 721 409 721 417.5 710 c 128,-1,17
 426 699 426 699 426 681 c 0,18,19
 426 662 426 662 417.5 651 c 128,-1,20
 409 640 409 640 388 640 c 0,21,22
 371 640 371 640 361.5 651 c 128,-1,23
 352 662 352 662 352 681 c 0,12,13
EndSplineSet
EndChar

StartChar: divide
Encoding: 247 247 309
Width: 573
GlyphClass: 1
Flags: W
LayerCount: 2
Fore
SplineSet
53 330 m 1,0,-1
 53 376 l 1,1,-1
 520 376 l 1,2,-1
 520 330 l 1,3,-1
 53 330 l 1,0,-1
286 130 m 0,4,5
 267 130 267 130 258.5 141.5 c 128,-1,6
 250 153 250 153 250 172 c 0,7,8
 250 192 250 192 258.5 203 c 128,-1,9
 267 214 267 214 286 214 c 0,10,11
 306 214 306 214 314.5 203 c 128,-1,12
 323 192 323 192 323 172 c 0,13,14
 323 153 323 153 314.5 141.5 c 128,-1,15
 306 130 306 130 286 130 c 0,4,5
286 491 m 0,16,17
 267 491 267 491 258.5 502.5 c 128,-1,18
 250 514 250 514 250 534 c 0,19,20
 250 553 250 553 258.5 564.5 c 128,-1,21
 267 576 267 576 286 576 c 0,22,23
 306 576 306 576 314.5 564.5 c 128,-1,24
 323 553 323 553 323 534 c 0,25,26
 323 514 323 514 314.5 502.5 c 128,-1,27
 306 491 306 491 286 491 c 0,16,17
EndSplineSet
EndChar

StartChar: dollar
Encoding: 36 36 310
Width: 571
GlyphClass: 1
Flags: W
LayerCount: 2
Fore
SplineSet
251 13 m 1,0,1
 187 14 187 14 141.5 23 c 128,-1,2
 96 32 96 32 62 44 c 1,3,-1
 62 99 l 1,4,5
 99 85 99 85 148.5 74.5 c 128,-1,6
 198 64 198 64 251 63 c 1,7,-1
 251 339 l 1,8,9
 197 359 197 359 153 381 c 128,-1,10
 109 403 109 403 82.5 438 c 128,-1,11
 56 473 56 473 56 529 c 0,12,13
 56 583 56 583 81.5 620 c 128,-1,14
 107 657 107 657 150.5 677.5 c 128,-1,15
 194 698 194 698 251 701 c 1,16,-1
 251 759 l 1,17,-1
 289 759 l 1,18,-1
 289 701 l 1,19,20
 334 700 334 700 376.5 690.5 c 128,-1,21
 419 681 419 681 459 663 c 1,22,-1
 442 616 l 1,23,24
 401 634 401 634 362 642 c 128,-1,25
 323 650 323 650 289 652 c 1,26,-1
 289 383 l 1,27,28
 348 363 348 363 392.5 340 c 128,-1,29
 437 317 437 317 462 283.5 c 128,-1,30
 487 250 487 250 487 195 c 0,31,32
 487 111 487 111 433 65 c 128,-1,33
 379 19 379 19 289 13 c 1,34,-1
 289 -58 l 1,35,-1
 251 -58 l 1,36,-1
 251 13 l 1,0,1
289 63 m 1,37,38
 351 67 351 67 391 98.5 c 128,-1,39
 431 130 431 130 431 193 c 0,40,41
 431 229 431 229 414.5 252.5 c 128,-1,42
 398 276 398 276 366 293 c 128,-1,43
 334 310 334 310 289 327 c 1,44,-1
 289 63 l 1,37,38
251 652 m 1,45,46
 211 650 211 650 180 636 c 128,-1,47
 149 622 149 622 130 596.5 c 128,-1,48
 111 571 111 571 111 532 c 256,49,50
 111 493 111 493 130.5 468 c 128,-1,51
 150 443 150 443 181.5 426.5 c 128,-1,52
 213 410 213 410 251 396 c 1,53,-1
 251 652 l 1,45,46
EndSplineSet
EndChar

StartChar: dotaccent
Encoding: 729 729 311
Width: 164
GlyphClass: 1
Flags: W
LayerCount: 2
Fore
SplineSet
81 733 m 0,0,1
 104 733 104 733 114 722 c 128,-1,2
 124 711 124 711 124 690 c 0,3,4
 124 670 124 670 114 659 c 128,-1,5
 104 648 104 648 81 648 c 0,6,7
 60 648 60 648 50 659 c 128,-1,8
 40 670 40 670 40 690 c 0,9,10
 40 711 40 711 50 722 c 128,-1,11
 60 733 60 733 81 733 c 0,0,1
EndSplineSet
EndChar

StartChar: e
Encoding: 101 101 313
Width: 557
GlyphClass: 2
Flags: W
AnchorPoint: "Anchor-5" 537 533 basechar 0
AnchorPoint: "Anchor-3" 278 533 basechar 0
AnchorPoint: "Anchor-2" 278 267 basechar 0
AnchorPoint: "Anchor-0" 283 0 basechar 0
LayerCount: 2
Fore
SplineSet
293 543 m 0,0,1
 364 543 364 543 409.5 511 c 128,-1,2
 455 479 455 479 477.5 423.5 c 128,-1,3
 500 368 500 368 500 295 c 2,4,-1
 500 257 l 1,5,-1
 118 257 l 1,6,7
 117 153 117 153 166 96 c 128,-1,8
 215 39 215 39 309 39 c 0,9,10
 358 39 358 39 394 46.5 c 128,-1,11
 430 54 430 54 476 75 c 1,12,-1
 476 25 l 1,13,14
 438 7 438 7 397.5 -1.5 c 128,-1,15
 357 -10 357 -10 304 -10 c 0,16,17
 221 -10 221 -10 165.5 24 c 128,-1,18
 110 58 110 58 82.5 119.5 c 128,-1,19
 55 181 55 181 55 262 c 0,20,21
 55 342 55 342 82 406 c 128,-1,22
 109 470 109 470 162 506.5 c 128,-1,23
 215 543 215 543 293 543 c 0,0,1
294 496 m 0,24,25
 221 496 221 496 174 447 c 128,-1,26
 127 398 127 398 119 302 c 1,27,-1
 442 302 l 1,28,29
 442 360 442 360 426 403.5 c 128,-1,30
 410 447 410 447 377 471.5 c 128,-1,31
 344 496 344 496 294 496 c 0,24,25
EndSplineSet
EndChar

StartChar: eight
Encoding: 56 56 320
Width: 573
GlyphClass: 1
Flags: W
LayerCount: 2
Fore
SplineSet
286 724 m 0,0,1
 379 724 379 724 434.5 681 c 128,-1,2
 490 638 490 638 490 559 c 0,3,4
 490 515 490 515 471 482.5 c 128,-1,5
 452 450 452 450 417 425 c 128,-1,6
 382 400 382 400 334 381 c 1,7,8
 388 361 388 361 428.5 334.5 c 128,-1,9
 469 308 469 308 491.5 271 c 128,-1,10
 514 234 514 234 514 183 c 0,11,12
 514 123 514 123 484.5 79.5 c 128,-1,13
 455 36 455 36 403 13 c 128,-1,14
 351 -10 351 -10 282 -10 c 256,15,16
 213 -10 213 -10 162.5 14 c 128,-1,17
 112 38 112 38 84.5 80 c 128,-1,18
 57 122 57 122 57 178 c 0,19,20
 57 232 57 232 79 270 c 128,-1,21
 101 308 101 308 140.5 334 c 128,-1,22
 180 360 180 360 232 379 c 1,23,24
 190 397 190 397 156 420 c 128,-1,25
 122 443 122 443 101 476.5 c 128,-1,26
 80 510 80 510 80 557 c 0,27,28
 80 609 80 609 106.5 646 c 128,-1,29
 133 683 133 683 179.5 703.5 c 128,-1,30
 226 724 226 724 286 724 c 0,0,1
116 179 m 0,31,32
 116 115 116 115 161.5 77 c 128,-1,33
 207 39 207 39 282 39 c 0,34,35
 359 39 359 39 407 76 c 128,-1,36
 455 113 455 113 455 183 c 0,37,38
 455 223 455 223 437.5 252 c 128,-1,39
 420 281 420 281 387 303.5 c 128,-1,40
 354 326 354 326 308 342 c 2,41,-1
 283 352 l 1,42,43
 237 336 237 336 199 313.5 c 128,-1,44
 161 291 161 291 138.5 259 c 128,-1,45
 116 227 116 227 116 179 c 0,31,32
285 675 m 0,46,47
 223 675 223 675 181.5 643.5 c 128,-1,48
 140 612 140 612 140 553 c 0,49,50
 140 498 140 498 180.5 465 c 128,-1,51
 221 432 221 432 287 408 c 1,52,53
 334 428 334 428 366 448 c 128,-1,54
 398 468 398 468 414.5 494 c 128,-1,55
 431 520 431 520 431 555 c 0,56,57
 431 614 431 614 392 644.5 c 128,-1,58
 353 675 353 675 285 675 c 0,46,47
EndSplineSet
EndChar

StartChar: emdash
Encoding: 8212 8212 323
Width: 1000
GlyphClass: 1
Flags: W
LayerCount: 2
Fore
SplineSet
39 247 m 1,0,-1
 39 295 l 1,1,-1
 960 295 l 1,2,-1
 960 247 l 1,3,-1
 39 247 l 1,0,-1
EndSplineSet
EndChar

StartChar: endash
Encoding: 8211 8211 324
Width: 500
GlyphClass: 1
Flags: W
LayerCount: 2
Fore
SplineSet
39 247 m 1,0,-1
 39 295 l 1,1,-1
 461 295 l 1,2,-1
 461 247 l 1,3,-1
 39 247 l 1,0,-1
EndSplineSet
EndChar

StartChar: eogonek
Encoding: 281 281 325
Width: 557
GlyphClass: 2
Flags: W
AnchorPoint: "Anchor-5" 537 533 basechar 0
AnchorPoint: "Anchor-3" 278 533 basechar 0
AnchorPoint: "Anchor-2" 278 267 basechar 0
AnchorPoint: "Anchor-0" 283 -222 basechar 0
LayerCount: 2
Fore
SplineSet
371 -122 m 0,0,1
 371 -149 371 -149 385 -164 c 128,-1,2
 399 -179 399 -179 425 -179 c 0,3,4
 439 -179 439 -179 452.5 -176.5 c 128,-1,5
 466 -174 466 -174 474 -171 c 1,6,-1
 474 -213 l 1,7,8
 465 -216 465 -216 450 -219 c 128,-1,9
 435 -222 435 -222 417 -222 c 0,10,11
 378 -222 378 -222 351 -199.5 c 128,-1,12
 324 -177 324 -177 324 -133 c 0,13,14
 324 -98 324 -98 347 -60 c 128,-1,15
 370 -22 370 -22 427 23 c 1,16,-1
 468 22 l 1,17,18
 438 -5 438 -5 416 -29.5 c 128,-1,19
 394 -54 394 -54 382.5 -76.5 c 128,-1,20
 371 -99 371 -99 371 -122 c 0,0,1
293 543 m 0,21,22
 364 543 364 543 409.5 511 c 128,-1,23
 455 479 455 479 477.5 423.5 c 128,-1,24
 500 368 500 368 500 295 c 2,25,-1
 500 257 l 1,26,-1
 118 257 l 1,27,28
 117 153 117 153 166 96 c 128,-1,29
 215 39 215 39 309 39 c 0,30,31
 358 39 358 39 394 46.5 c 128,-1,32
 430 54 430 54 476 75 c 1,33,-1
 476 25 l 1,34,35
 438 7 438 7 397.5 -1.5 c 128,-1,36
 357 -10 357 -10 304 -10 c 0,37,38
 221 -10 221 -10 165.5 24 c 128,-1,39
 110 58 110 58 82.5 119.5 c 128,-1,40
 55 181 55 181 55 262 c 0,41,42
 55 342 55 342 82 406 c 128,-1,43
 109 470 109 470 162 506.5 c 128,-1,44
 215 543 215 543 293 543 c 0,21,22
294 496 m 0,45,46
 221 496 221 496 174 447 c 128,-1,47
 127 398 127 398 119 302 c 1,48,-1
 442 302 l 1,49,50
 442 360 442 360 426 403.5 c 128,-1,51
 410 447 410 447 377 471.5 c 128,-1,52
 344 496 344 496 294 496 c 0,45,46
EndSplineSet
Ligature2: "'ccmp' Glyph Composition/Decomposition lookup 5 subtable" e uni0328
EndChar

StartChar: equal
Encoding: 61 61 326
Width: 573
GlyphClass: 1
Flags: W
LayerCount: 2
Fore
SplineSet
53 433 m 1,0,-1
 53 480 l 1,1,-1
 521 480 l 1,2,-1
 521 433 l 1,3,-1
 53 433 l 1,0,-1
53 225 m 1,4,-1
 53 272 l 1,5,-1
 521 272 l 1,6,-1
 521 225 l 1,7,-1
 53 225 l 1,4,-1
EndSplineSet
EndChar

StartChar: eth
Encoding: 240 240 327
Width: 572
GlyphClass: 2
Flags: W
AnchorPoint: "Anchor-3" 286 760 basechar 0
AnchorPoint: "Anchor-2" 284 374 basechar 0
AnchorPoint: "Anchor-0" 286 0 basechar 0
LayerCount: 2
Fore
SplineSet
210 759 m 1,0,1
 248 743 248 743 277.5 725 c 128,-1,2
 307 707 307 707 330 689 c 1,3,-1
 438 756 l 1,4,-1
 460 720 l 1,5,-1
 363 661 l 1,6,7
 415 610 415 610 448.5 549.5 c 128,-1,8
 482 489 482 489 498.5 420.5 c 128,-1,9
 515 352 515 352 515 274 c 0,10,11
 515 195 515 195 489 130 c 128,-1,12
 463 65 463 65 411.5 27.5 c 128,-1,13
 360 -10 360 -10 283 -10 c 0,14,15
 212 -10 212 -10 160.5 19 c 128,-1,16
 109 48 109 48 81.5 101.5 c 128,-1,17
 54 155 54 155 54 227 c 0,18,19
 54 304 54 304 83.5 358.5 c 128,-1,20
 113 413 113 413 164 442 c 128,-1,21
 215 471 215 471 279 471 c 0,22,23
 323 471 323 471 354 462.5 c 128,-1,24
 385 454 385 454 406.5 439 c 128,-1,25
 428 424 428 424 442 404 c 1,26,-1
 445 405 l 1,27,28
 431 467 431 467 399.5 528.5 c 128,-1,29
 368 590 368 590 320 635 c 1,30,-1
 199 561 l 1,31,-1
 177 596 l 1,32,-1
 289 664 l 1,33,34
 269 679 269 679 243 695 c 128,-1,35
 217 711 217 711 189 724 c 1,36,-1
 210 759 l 1,0,1
288 423 m 256,37,38
 238 423 238 423 199.5 400 c 128,-1,39
 161 377 161 377 139 333.5 c 128,-1,40
 117 290 117 290 117 227 c 0,41,42
 117 167 117 167 137.5 125 c 128,-1,43
 158 83 158 83 195.5 61 c 128,-1,44
 233 39 233 39 284 39 c 0,45,46
 365 39 365 39 409 100.5 c 128,-1,47
 453 162 453 162 453 281 c 0,48,49
 453 302 453 302 445.5 326.5 c 128,-1,50
 438 351 438 351 419.5 373 c 128,-1,51
 401 395 401 395 369.5 409 c 128,-1,52
 338 423 338 423 288 423 c 256,37,38
EndSplineSet
EndChar

StartChar: Euro
Encoding: 8364 8364 328
Width: 573
GlyphClass: 1
Flags: W
LayerCount: 2
Fore
SplineSet
400 726 m 0,0,1
 447 726 447 726 481.5 717.5 c 128,-1,2
 516 709 516 709 547 694 c 1,3,-1
 529 643 l 1,4,5
 499 658 499 658 468.5 665 c 128,-1,6
 438 672 438 672 400 672 c 0,7,8
 359 672 359 672 323.5 657.5 c 128,-1,9
 288 643 288 643 260.5 613.5 c 128,-1,10
 233 584 233 584 215 541.5 c 128,-1,11
 197 499 197 499 191 443 c 1,12,-1
 433 443 l 1,13,-1
 433 402 l 1,14,-1
 187 402 l 1,15,16
 186 394 186 394 185.5 379.5 c 128,-1,17
 185 365 185 365 185 350 c 0,18,19
 185 334 185 334 185.5 321 c 128,-1,20
 186 308 186 308 187 298 c 1,21,-1
 426 298 l 1,22,-1
 426 257 l 1,23,-1
 191 257 l 1,24,25
 199 189 199 189 225.5 141.5 c 128,-1,26
 252 94 252 94 296.5 68.5 c 128,-1,27
 341 43 341 43 404 43 c 0,28,29
 441 43 441 43 473.5 51.5 c 128,-1,30
 506 60 506 60 535 73 c 1,31,-1
 535 18 l 1,32,33
 508 5 508 5 474.5 -2.5 c 128,-1,34
 441 -10 441 -10 399 -10 c 0,35,36
 328 -10 328 -10 271.5 17.5 c 128,-1,37
 215 45 215 45 179 104.5 c 128,-1,38
 143 164 143 164 130 257 c 1,39,-1
 40 257 l 1,40,-1
 40 298 l 1,41,-1
 125 298 l 1,42,43
 124 308 124 308 124 321.5 c 128,-1,44
 124 335 124 335 124 348 c 0,45,46
 124 363 124 363 124.5 378.5 c 128,-1,47
 125 394 125 394 125 402 c 1,48,-1
 40 402 l 1,49,-1
 40 443 l 1,50,-1
 130 443 l 1,51,52
 141 529 141 529 175.5 592 c 128,-1,53
 210 655 210 655 267 690.5 c 128,-1,54
 324 726 324 726 400 726 c 0,0,1
EndSplineSet
EndChar

StartChar: exclam
Encoding: 33 33 329
Width: 237
GlyphClass: 1
Flags: W
LayerCount: 2
Fore
SplineSet
146 191 m 1,0,-1
 93 191 l 1,1,-1
 86 714 l 1,2,-1
 153 714 l 1,3,-1
 146 191 l 1,0,-1
76 35 m 0,4,5
 76 56 76 56 86.5 68 c 128,-1,6
 97 80 97 80 117 80 c 0,7,8
 140 80 140 80 150 68 c 128,-1,9
 160 56 160 56 160 35 c 0,10,11
 160 15 160 15 150 3 c 128,-1,12
 140 -9 140 -9 117 -9 c 0,13,14
 97 -9 97 -9 86.5 3 c 128,-1,15
 76 15 76 15 76 35 c 0,4,5
EndSplineSet
EndChar

StartChar: exclamdown
Encoding: 161 161 330
Width: 237
GlyphClass: 1
Flags: W
LayerCount: 2
Fore
SplineSet
91 342 m 1,0,-1
 144 342 l 1,1,-1
 151 -181 l 1,2,-1
 84 -181 l 1,3,-1
 91 342 l 1,0,-1
161 498 m 0,4,5
 161 477 161 477 150.5 465 c 128,-1,6
 140 453 140 453 119 453 c 0,7,8
 96 453 96 453 86 465 c 128,-1,9
 76 477 76 477 76 498 c 0,10,11
 76 518 76 518 86 530 c 128,-1,12
 96 542 96 542 119 542 c 0,13,14
 140 542 140 542 150.5 530 c 128,-1,15
 161 518 161 518 161 498 c 0,4,5
EndSplineSet
EndChar

StartChar: f
Encoding: 102 102 331
Width: 304
GlyphClass: 2
Flags: W
AnchorPoint: "Anchor-5" 347 765 basechar 0
AnchorPoint: "Anchor-3" 230 765 basechar 0
AnchorPoint: "Anchor-2" 187 382 basechar 0
AnchorPoint: "Anchor-0" 140 0 basechar 0
LayerCount: 2
Fore
SplineSet
289 483 m 1,0,-1
 170 483 l 1,1,-1
 170 0 l 1,2,-1
 109 0 l 1,3,-1
 109 483 l 1,4,-1
 13 483 l 1,5,-1
 13 521 l 1,6,-1
 110 533 l 1,7,-1
 110 594 l 2,8,9
 110 678 110 678 145.5 721.5 c 128,-1,10
 181 765 181 765 263 765 c 0,11,12
 292 765 292 765 314.5 761 c 128,-1,13
 337 757 337 757 360 750 c 1,14,-1
 348 703 l 1,15,16
 331 710 331 710 311 713 c 128,-1,17
 291 716 291 716 272 716 c 0,18,19
 217 716 217 716 193.5 688 c 128,-1,20
 170 660 170 660 170 596 c 2,21,-1
 170 533 l 1,22,-1
 289 533 l 1,23,-1
 289 483 l 1,0,-1
EndSplineSet
EndChar

StartChar: five
Encoding: 53 53 332
Width: 573
GlyphClass: 1
Flags: W
LayerCount: 2
Fore
SplineSet
285 435 m 0,0,1
 354 435 354 435 405 410 c 128,-1,2
 456 385 456 385 484 337.5 c 128,-1,3
 512 290 512 290 512 221 c 0,4,5
 512 149 512 149 480.5 97 c 128,-1,6
 449 45 449 45 390.5 17.5 c 128,-1,7
 332 -10 332 -10 252 -10 c 0,8,9
 194 -10 194 -10 148 1.5 c 128,-1,10
 102 13 102 13 68 31 c 1,11,-1
 68 89 l 1,12,13
 103 69 103 69 149.5 55.5 c 128,-1,14
 196 42 196 42 249 42 c 0,15,16
 310 42 310 42 355 63 c 128,-1,17
 400 84 400 84 425 124 c 128,-1,18
 450 164 450 164 450 220 c 0,19,20
 450 297 450 297 403 340.5 c 128,-1,21
 356 384 356 384 264 384 c 0,22,23
 222 384 222 384 187.5 378 c 128,-1,24
 153 372 153 372 120 362 c 1,25,-1
 89 381 l 1,26,-1
 119 714 l 1,27,-1
 468 714 l 1,28,-1
 468 660 l 1,29,-1
 172 660 l 1,30,-1
 150 417 l 1,31,32
 173 423 173 423 205 429 c 128,-1,33
 237 435 237 435 285 435 c 0,0,1
EndSplineSet
EndChar

StartChar: four
Encoding: 52 52 333
Width: 573
GlyphClass: 1
Flags: W
LayerCount: 2
Fore
SplineSet
562 182 m 1,0,-1
 440 182 l 1,1,-1
 440 0 l 1,2,-1
 379 0 l 1,3,-1
 379 182 l 1,4,-1
 23 182 l 1,5,-1
 23 226 l 1,6,-1
 380 717 l 1,7,-1
 440 717 l 1,8,-1
 440 232 l 1,9,-1
 562 232 l 1,10,-1
 562 182 l 1,0,-1
379 490 m 2,11,12
 379 518 379 518 379 539.5 c 128,-1,13
 379 561 379 561 379.5 578 c 128,-1,14
 380 595 380 595 380.5 610 c 128,-1,15
 381 625 381 625 381 640 c 1,16,-1
 378 640 l 1,17,18
 363 614 363 614 352 597 c 128,-1,19
 341 580 341 580 320 551 c 2,20,-1
 86 232 l 1,21,-1
 379 232 l 1,22,-1
 379 490 l 2,11,12
EndSplineSet
EndChar

StartChar: g
Encoding: 103 103 334
Width: 596
GlyphClass: 2
Flags: W
AnchorPoint: "Anchor-5" 572 533 basechar 0
AnchorPoint: "Anchor-3" 297 533 basechar 0
AnchorPoint: "Anchor-2" 282 152 basechar 0
AnchorPoint: "Anchor-0" 292 -240 basechar 0
LayerCount: 2
Fore
SplineSet
280 543 m 0,0,1
 350 543 350 543 388.5 516 c 128,-1,2
 427 489 427 489 448 447 c 1,3,-1
 451 447 l 1,4,-1
 458 533 l 1,5,-1
 510 533 l 1,6,-1
 510 -20 l 2,7,8
 510 -86 510 -86 486.5 -135.5 c 128,-1,9
 463 -185 463 -185 411 -212.5 c 128,-1,10
 359 -240 359 -240 275 -240 c 0,11,12
 213 -240 213 -240 167 -230 c 128,-1,13
 121 -220 121 -220 83 -204 c 1,14,-1
 83 -147 l 1,15,16
 122 -164 122 -164 168.5 -176.5 c 128,-1,17
 215 -189 215 -189 273 -189 c 0,18,19
 368 -189 368 -189 408.5 -143.5 c 128,-1,20
 449 -98 449 -98 449 -22 c 2,21,-1
 449 14 l 2,22,23
 449 39 449 39 449.5 59.5 c 128,-1,24
 450 80 450 80 452 107 c 1,25,-1
 449 107 l 1,26,27
 431 51 431 51 385 20.5 c 128,-1,28
 339 -10 339 -10 268 -10 c 0,29,30
 169 -10 169 -10 112 58.5 c 128,-1,31
 55 127 55 127 55 260 c 256,32,33
 55 393 55 393 113 468 c 128,-1,34
 171 543 171 543 280 543 c 0,0,1
295 492 m 0,35,36
 235 492 235 492 195.5 464.5 c 128,-1,37
 156 437 156 437 137 385 c 128,-1,38
 118 333 118 333 118 260 c 0,39,40
 118 151 118 151 161 96 c 128,-1,41
 204 41 204 41 285 41 c 0,42,43
 336 41 336 41 368.5 59 c 128,-1,44
 401 77 401 77 419.5 106.5 c 128,-1,45
 438 136 438 136 445 172.5 c 128,-1,46
 452 209 452 209 452 248 c 2,47,-1
 452 291 l 2,48,49
 452 350 452 350 438 395 c 128,-1,50
 424 440 424 440 390 466 c 128,-1,51
 356 492 356 492 295 492 c 0,35,36
EndSplineSet
EndChar

StartChar: germandbls
Encoding: 223 223 338
Width: 596
GlyphClass: 2
Flags: W
AnchorPoint: "Anchor-3" 298 765 basechar 0
AnchorPoint: "Anchor-2" 317 377 basechar 0
AnchorPoint: "Anchor-0" 298 0 basechar 0
LayerCount: 2
Fore
SplineSet
485 624 m 0,0,1
 485 588 485 588 471 564 c 128,-1,2
 457 540 457 540 437 523.5 c 128,-1,3
 417 507 417 507 397 492 c 128,-1,4
 377 477 377 477 363 459.5 c 128,-1,5
 349 442 349 442 349 415 c 0,6,7
 349 379 349 379 374.5 357 c 128,-1,8
 400 335 400 335 444 306 c 0,9,10
 474 286 474 286 497.5 265 c 128,-1,11
 521 244 521 244 535 214.5 c 128,-1,12
 549 185 549 185 549 140 c 0,13,14
 549 98 549 98 529.5 64 c 128,-1,15
 510 30 510 30 470.5 10 c 128,-1,16
 431 -10 431 -10 372 -10 c 0,17,18
 320 -10 320 -10 287.5 -2 c 128,-1,19
 255 6 255 6 228 17 c 1,20,-1
 228 70 l 1,21,22
 249 60 249 60 271 53 c 128,-1,23
 293 46 293 46 315.5 42 c 128,-1,24
 338 38 338 38 362 38 c 0,25,26
 422 38 422 38 454 66 c 128,-1,27
 486 94 486 94 486 140 c 0,28,29
 486 173 486 173 475 195.5 c 128,-1,30
 464 218 464 218 443 236.5 c 128,-1,31
 422 255 422 255 392 273 c 0,32,33
 361 294 361 294 336.5 313 c 128,-1,34
 312 332 312 332 298.5 354.5 c 128,-1,35
 285 377 285 377 285 409 c 0,36,37
 285 444 285 444 299 466 c 128,-1,38
 313 488 313 488 333.5 503.5 c 128,-1,39
 354 519 354 519 374 533.5 c 128,-1,40
 394 548 394 548 408 568 c 128,-1,41
 422 588 422 588 422 620 c 0,42,43
 422 663 422 663 390.5 688.5 c 128,-1,44
 359 714 359 714 300 714 c 0,45,46
 221 714 221 714 183 672.5 c 128,-1,47
 145 631 145 631 145 553 c 2,48,-1
 145 0 l 1,49,-1
 84 0 l 1,50,-1
 84 557 l 2,51,52
 84 624 84 624 109.5 670.5 c 128,-1,53
 135 717 135 717 184 741 c 128,-1,54
 233 765 233 765 300 765 c 0,55,56
 358 765 358 765 399.5 748 c 128,-1,57
 441 731 441 731 463 699.5 c 128,-1,58
 485 668 485 668 485 624 c 0,0,1
EndSplineSet
EndChar

StartChar: grave
Encoding: 96 96 339
Width: 285
GlyphClass: 1
Flags: W
LayerCount: 2
Fore
SplineSet
108 766 m 1,0,1
 124 745 124 745 147.5 716.5 c 128,-1,2
 171 688 171 688 197.5 660.5 c 128,-1,3
 224 633 224 633 245 614 c 1,4,-1
 245 606 l 1,5,-1
 201 606 l 1,6,7
 181 622 181 622 159 641.5 c 128,-1,8
 137 661 137 661 115 682 c 128,-1,9
 93 703 93 703 73.5 722.5 c 128,-1,10
 54 742 54 742 40 758 c 1,11,-1
 40 766 l 1,12,-1
 108 766 l 1,0,1
EndSplineSet
EndChar

StartChar: greater
Encoding: 62 62 341
Width: 573
GlyphClass: 1
Flags: W
LayerCount: 2
Fore
SplineSet
54 178 m 1,0,-1
 451 360 l 1,1,-1
 54 546 l 1,2,-1
 54 597 l 1,3,-1
 519 375 l 1,4,-1
 519 343 l 1,5,-1
 54 127 l 1,6,-1
 54 178 l 1,0,-1
EndSplineSet
EndChar

StartChar: guillemotleft
Encoding: 171 171 342
Width: 451
GlyphClass: 1
Flags: W
LayerCount: 2
Fore
SplineSet
28 285 m 1,0,-1
 188 483 l 1,1,-1
 230 458 l 1,2,-1
 94 279 l 1,3,-1
 230 101 l 1,4,-1
 188 77 l 1,5,-1
 28 272 l 1,6,-1
 28 285 l 1,0,-1
221 285 m 1,7,-1
 381 483 l 1,8,-1
 423 458 l 1,9,-1
 286 279 l 1,10,-1
 423 101 l 1,11,-1
 381 77 l 1,12,-1
 221 272 l 1,13,-1
 221 285 l 1,7,-1
EndSplineSet
EndChar

StartChar: guillemotright
Encoding: 187 187 343
Width: 451
GlyphClass: 1
Flags: W
LayerCount: 2
Fore
SplineSet
423 274 m 1,0,-1
 263 77 l 1,1,-1
 221 102 l 1,2,-1
 357 280 l 1,3,-1
 221 459 l 1,4,-1
 263 483 l 1,5,-1
 423 287 l 1,6,-1
 423 274 l 1,0,-1
230 274 m 1,7,-1
 70 77 l 1,8,-1
 28 102 l 1,9,-1
 164 280 l 1,10,-1
 28 459 l 1,11,-1
 70 483 l 1,12,-1
 230 287 l 1,13,-1
 230 274 l 1,7,-1
EndSplineSet
EndChar

StartChar: guilsinglleft
Encoding: 8249 8249 344
Width: 258
GlyphClass: 1
Flags: W
LayerCount: 2
Fore
SplineSet
28 285 m 1,0,-1
 188 483 l 1,1,-1
 230 458 l 1,2,-1
 94 279 l 1,3,-1
 230 101 l 1,4,-1
 188 77 l 1,5,-1
 28 272 l 1,6,-1
 28 285 l 1,0,-1
EndSplineSet
EndChar

StartChar: guilsinglright
Encoding: 8250 8250 345
Width: 258
GlyphClass: 1
Flags: W
LayerCount: 2
Fore
SplineSet
70 483 m 1,0,-1
 230 287 l 1,1,-1
 230 274 l 1,2,-1
 70 77 l 1,3,-1
 28 102 l 1,4,-1
 164 280 l 1,5,-1
 28 459 l 1,6,-1
 70 483 l 1,0,-1
EndSplineSet
EndChar

StartChar: h
Encoding: 104 104 346
Width: 594
GlyphClass: 2
Flags: W
AnchorPoint: "Anchor-5" 564 760 basechar 0
AnchorPoint: "Anchor-3" 116 760 basechar 0
AnchorPoint: "Anchor-2" 297 267 basechar 0
AnchorPoint: "Anchor-0" 298 0 basechar 0
LayerCount: 2
Fore
SplineSet
146 529 m 2,0,1
 146 499 146 499 145 476 c 128,-1,2
 144 453 144 453 143 431 c 1,3,-1
 146 431 l 1,4,5
 159 463 159 463 182.5 488 c 128,-1,6
 206 513 206 513 242.5 528 c 128,-1,7
 279 543 279 543 330 543 c 0,8,9
 387 543 387 543 428.5 522.5 c 128,-1,10
 470 502 470 502 492 459 c 128,-1,11
 514 416 514 416 514 349 c 2,12,-1
 514 0 l 1,13,-1
 453 0 l 1,14,-1
 453 336 l 2,15,16
 453 417 453 417 417.5 454.5 c 128,-1,17
 382 492 382 492 317 492 c 0,18,19
 265 492 265 492 226.5 470 c 128,-1,20
 188 448 188 448 167 403 c 128,-1,21
 146 358 146 358 146 289 c 2,22,-1
 146 0 l 1,23,-1
 85 0 l 1,24,-1
 85 760 l 1,25,-1
 146 760 l 1,26,-1
 146 529 l 2,0,1
EndSplineSet
EndChar

StartChar: hbar
Encoding: 295 295 347
Width: 596
GlyphClass: 2
Flags: W
AnchorPoint: "Anchor-3" 261 760 basechar 0
AnchorPoint: "Anchor-2" 264 380 basechar 0
AnchorPoint: "Anchor-0" 298 0 basechar 0
LayerCount: 2
Fore
SplineSet
148 760 m 1,0,-1
 148 662 l 1,1,-1
 363 662 l 1,2,-1
 363 617 l 1,3,-1
 148 617 l 1,4,-1
 148 507 l 2,5,6
 148 485 148 485 147 464 c 128,-1,7
 146 443 146 443 145 421 c 1,8,-1
 149 421 l 1,9,10
 161 452 161 452 185 477.5 c 128,-1,11
 209 503 209 503 245.5 518 c 128,-1,12
 282 533 282 533 333 533 c 0,13,14
 389 533 389 533 430.5 512.5 c 128,-1,15
 472 492 472 492 494 449 c 128,-1,16
 516 406 516 406 516 339 c 2,17,-1
 516 0 l 1,18,-1
 455 0 l 1,19,-1
 455 325 l 2,20,21
 455 406 455 406 419.5 443.5 c 128,-1,22
 384 481 384 481 319 481 c 0,23,24
 267 481 267 481 228.5 459 c 128,-1,25
 190 437 190 437 169 392 c 128,-1,26
 148 347 148 347 148 279 c 2,27,-1
 148 0 l 1,28,-1
 87 0 l 1,29,-1
 87 617 l 1,30,-1
 13 617 l 1,31,-1
 13 662 l 1,32,-1
 87 662 l 1,33,-1
 87 760 l 1,34,-1
 148 760 l 1,0,-1
EndSplineSet
EndChar

StartChar: hungarumlaut
Encoding: 733 733 348
Width: 424
GlyphClass: 1
Flags: W
LayerCount: 2
Fore
SplineSet
384 758 m 1,0,1
 373 741 373 741 357.5 721.5 c 128,-1,2
 342 702 342 702 323.5 681.5 c 128,-1,3
 305 661 305 661 286.5 641.5 c 128,-1,4
 268 622 268 622 252 606 c 1,5,-1
 214 606 l 1,6,-1
 214 614 l 1,7,8
 231 633 231 633 251.5 660 c 128,-1,9
 272 687 272 687 291 715.5 c 128,-1,10
 310 744 310 744 321 766 c 1,11,-1
 384 766 l 1,12,-1
 384 758 l 1,0,1
209 758 m 1,13,14
 199 741 199 741 183.5 721.5 c 128,-1,15
 168 702 168 702 149.5 681.5 c 128,-1,16
 131 661 131 661 112.5 641.5 c 128,-1,17
 94 622 94 622 78 606 c 1,18,-1
 40 606 l 1,19,-1
 40 614 l 1,20,21
 57 633 57 633 77.5 660 c 128,-1,22
 98 687 98 687 117 715.5 c 128,-1,23
 136 744 136 744 147 766 c 1,24,-1
 209 766 l 1,25,-1
 209 758 l 1,13,14
EndSplineSet
EndChar

StartChar: i
Encoding: 105 105 350
Width: 232
GlyphClass: 2
Flags: W
AnchorPoint: "Anchor-5" 212 733 basechar 0
AnchorPoint: "Anchor-3" 117 733 basechar 0
AnchorPoint: "Anchor-2" 117 366 basechar 0
AnchorPoint: "Anchor-0" 117 0 basechar 0
LayerCount: 2
Fore
SplineSet
146 533 m 1,0,-1
 146 0 l 1,1,-1
 85 0 l 1,2,-1
 85 533 l 1,3,-1
 146 533 l 1,0,-1
116 733 m 0,4,5
 139 733 139 733 149 722 c 128,-1,6
 159 711 159 711 159 690 c 0,7,8
 159 670 159 670 149 659 c 128,-1,9
 139 648 139 648 116 648 c 0,10,11
 95 648 95 648 85 659 c 128,-1,12
 75 670 75 670 75 690 c 0,13,14
 75 711 75 711 85 722 c 128,-1,15
 95 733 95 733 116 733 c 0,4,5
EndSplineSet
Substitution2: "Single Substitution lookup 4 subtable" dotlessi
Substitution2: "'aalt' Access All Alternates lookup 0 subtable" dotlessi
EndChar

StartChar: dotlessi
Encoding: 305 305 354
Width: 232
GlyphClass: 2
Flags: W
AnchorPoint: "Anchor-3" 117 533 basechar 0
AnchorPoint: "Anchor-2" 116 267 basechar 0
AnchorPoint: "Anchor-0" 116 0 basechar 0
LayerCount: 2
Fore
SplineSet
146 0 m 1,0,-1
 85 0 l 1,1,-1
 85 533 l 1,2,-1
 146 533 l 1,3,-1
 146 0 l 1,0,-1
EndSplineSet
EndChar

StartChar: j
Encoding: 106 106 358
Width: 232
GlyphClass: 2
Flags: W
AnchorPoint: "Anchor-5" 212 733 basechar 0
AnchorPoint: "Anchor-3" 116 733 basechar 0
AnchorPoint: "Anchor-2" 54 246 basechar 0
AnchorPoint: "Anchor-0" 20 -240 basechar 0
LayerCount: 2
Fore
SplineSet
20 -240 m 0,0,1
 0 -240 0 -240 -18.5 -237 c 128,-1,2
 -37 -234 -37 -234 -50 -230 c 1,3,-1
 -50 -177 l 1,4,5
 -35 -184 -35 -184 -20 -186 c 128,-1,6
 -5 -188 -5 -188 10 -188 c 0,7,8
 47 -188 47 -188 66 -163.5 c 128,-1,9
 85 -139 85 -139 85 -92 c 2,10,-1
 85 533 l 1,11,-1
 146 533 l 1,12,-1
 146 -104 l 2,13,14
 146 -146 146 -146 130.5 -177 c 128,-1,15
 115 -208 115 -208 87 -224 c 128,-1,16
 59 -240 59 -240 20 -240 c 0,0,1
74 690 m 0,17,18
 74 711 74 711 84.5 722 c 128,-1,19
 95 733 95 733 116 733 c 0,20,21
 138 733 138 733 148 722 c 128,-1,22
 158 711 158 711 158 690 c 0,23,24
 158 670 158 670 148 659 c 128,-1,25
 138 648 138 648 116 648 c 0,26,27
 95 648 95 648 84.5 659 c 128,-1,28
 74 670 74 670 74 690 c 0,17,18
EndSplineSet
Substitution2: "Single Substitution lookup 4 subtable" uni0237
Substitution2: "'aalt' Access All Alternates lookup 0 subtable" uni0237
EndChar

StartChar: uni0237
Encoding: 567 567 359
Width: 232
GlyphClass: 2
Flags: W
AnchorPoint: "Anchor-3" 116 533 basechar 0
AnchorPoint: "Anchor-2" 48 147 basechar 0
AnchorPoint: "Anchor-0" 20 -240 basechar 0
LayerCount: 2
Fore
SplineSet
20 -240 m 0,0,1
 0 -240 0 -240 -18.5 -237 c 128,-1,2
 -37 -234 -37 -234 -50 -230 c 1,3,-1
 -50 -177 l 1,4,5
 -35 -184 -35 -184 -20 -186 c 128,-1,6
 -5 -188 -5 -188 10 -188 c 0,7,8
 47 -188 47 -188 66 -163.5 c 128,-1,9
 85 -139 85 -139 85 -92 c 2,10,-1
 85 533 l 1,11,-1
 146 533 l 1,12,-1
 146 -104 l 2,13,14
 146 -146 146 -146 130.5 -177 c 128,-1,15
 115 -208 115 -208 87 -224 c 128,-1,16
 59 -240 59 -240 20 -240 c 0,0,1
EndSplineSet
EndChar

StartChar: k
Encoding: 107 107 360
Width: 498
GlyphClass: 2
Flags: W
AnchorPoint: "Anchor-5" 406 843 basechar 0
AnchorPoint: "Anchor-3" 117 760 basechar 0
AnchorPoint: "Anchor-2" 293 380 basechar 0
AnchorPoint: "Anchor-0" 249 0 basechar 0
LayerCount: 2
Fore
SplineSet
146 401 m 2,0,1
 146 356 146 356 145.5 313.5 c 128,-1,2
 145 271 145 271 143 226 c 1,3,-1
 143 226 l 1,4,5
 159 245 159 245 172.5 261.5 c 128,-1,6
 186 278 186 278 201 295 c 2,7,-1
 411 533 l 1,8,-1
 483 533 l 1,9,-1
 281 305 l 1,10,-1
 502 0 l 1,11,-1
 431 0 l 1,12,-1
 238 265 l 1,13,-1
 146 168 l 1,14,-1
 146 0 l 1,15,-1
 85 0 l 1,16,-1
 85 760 l 1,17,-1
 146 760 l 1,18,-1
 146 401 l 2,0,1
EndSplineSet
EndChar

StartChar: l
Encoding: 108 108 362
Width: 232
GlyphClass: 2
Flags: W
AnchorPoint: "Anchor-5" 206 760 basechar 0
AnchorPoint: "Anchor-3" 116 760 basechar 0
AnchorPoint: "Anchor-2" 116 267 basechar 0
AnchorPoint: "Anchor-0" 116 0 basechar 0
LayerCount: 2
Fore
SplineSet
147 0 m 1,0,-1
 86 0 l 1,1,-1
 86 760 l 1,2,-1
 147 760 l 1,3,-1
 147 0 l 1,0,-1
EndSplineSet
EndChar

StartChar: less
Encoding: 60 60 366
Width: 573
GlyphClass: 1
Flags: W
LayerCount: 2
Fore
SplineSet
519 127 m 1,0,-1
 54 343 l 1,1,-1
 54 375 l 1,2,-1
 519 597 l 1,3,-1
 519 546 l 1,4,-1
 122 360 l 1,5,-1
 519 178 l 1,6,-1
 519 127 l 1,0,-1
EndSplineSet
EndChar

StartChar: lslash
Encoding: 322 322 367
Width: 252
GlyphClass: 2
Flags: W
AnchorPoint: "Anchor-3" 126 760 basechar 0
AnchorPoint: "Anchor-2" 132 380 basechar 0
AnchorPoint: "Anchor-0" 126 0 basechar 0
LayerCount: 2
Fore
SplineSet
98 0 m 1,0,-1
 98 309 l 1,1,-1
 30 264 l 1,2,-1
 5 306 l 1,3,-1
 98 366 l 1,4,-1
 98 760 l 1,5,-1
 159 760 l 1,6,-1
 159 402 l 1,7,-1
 235 452 l 1,8,-1
 260 411 l 1,9,-1
 159 347 l 1,10,-1
 159 0 l 1,11,-1
 98 0 l 1,0,-1
EndSplineSet
EndChar

StartChar: m
Encoding: 109 109 368
Width: 883
GlyphClass: 2
Flags: W
AnchorPoint: "Anchor-5" 860 533 basechar 0
AnchorPoint: "Anchor-3" 446 533 basechar 0
AnchorPoint: "Anchor-2" 445 272 basechar 0
AnchorPoint: "Anchor-0" 446 0 basechar 0
LayerCount: 2
Fore
SplineSet
641 543 m 0,0,1
 715 543 715 543 760 499 c 128,-1,2
 805 455 805 455 805 361 c 2,3,-1
 805 0 l 1,4,-1
 744 0 l 1,5,-1
 744 347 l 2,6,7
 744 424 744 424 711 458 c 128,-1,8
 678 492 678 492 628 492 c 0,9,10
 559 492 559 492 517.5 449 c 128,-1,11
 476 406 476 406 476 311 c 2,12,-1
 476 0 l 1,13,-1
 414 0 l 1,14,-1
 414 347 l 2,15,16
 414 398 414 398 399 430 c 128,-1,17
 384 462 384 462 358 477 c 128,-1,18
 332 492 332 492 298 492 c 0,19,20
 255 492 255 492 220.5 472.5 c 128,-1,21
 186 453 186 453 166 412.5 c 128,-1,22
 146 372 146 372 146 307 c 2,23,-1
 146 0 l 1,24,-1
 85 0 l 1,25,-1
 85 533 l 1,26,-1
 132 533 l 1,27,-1
 141 443 l 1,28,-1
 144 443 l 1,29,30
 156 468 156 468 176.5 490.5 c 128,-1,31
 197 513 197 513 230.5 528 c 128,-1,32
 264 543 264 543 313 543 c 0,33,34
 369 543 369 543 408 517 c 128,-1,35
 447 491 447 491 463 441 c 1,36,-1
 466 441 l 1,37,38
 486 488 486 488 530 515.5 c 128,-1,39
 574 543 574 543 641 543 c 0,0,1
EndSplineSet
EndChar

StartChar: multiply
Encoding: 215 215 371
Width: 573
GlyphClass: 1
Flags: W
LayerCount: 2
Fore
SplineSet
470 569 m 1,0,-1
 503 537 l 1,1,-1
 319 353 l 1,2,-1
 502 170 l 1,3,-1
 470 137 l 1,4,-1
 286 320 l 1,5,-1
 103 137 l 1,6,-1
 71 170 l 1,7,-1
 253 353 l 1,8,-1
 71 536 l 1,9,-1
 103 569 l 1,10,-1
 286 386 l 1,11,-1
 470 569 l 1,0,-1
EndSplineSet
EndChar

StartChar: n
Encoding: 110 110 372
Width: 594
GlyphClass: 2
Flags: W
AnchorPoint: "Anchor-5" 571 533 basechar 0
AnchorPoint: "Anchor-3" 297 533 basechar 0
AnchorPoint: "Anchor-2" 299 272 basechar 0
AnchorPoint: "Anchor-0" 297 0 basechar 0
LayerCount: 2
Fore
SplineSet
331 543 m 0,0,1
 417 543 417 543 465.5 496 c 128,-1,2
 514 449 514 449 514 349 c 2,3,-1
 514 0 l 1,4,-1
 453 0 l 1,5,-1
 453 336 l 2,6,7
 453 417 453 417 417.5 454.5 c 128,-1,8
 382 492 382 492 317 492 c 0,9,10
 238 492 238 492 192 442 c 128,-1,11
 146 392 146 392 146 289 c 2,12,-1
 146 0 l 1,13,-1
 85 0 l 1,14,-1
 85 533 l 1,15,-1
 132 533 l 1,16,-1
 141 430 l 1,17,-1
 144 430 l 1,18,19
 157 460 157 460 180.5 486 c 128,-1,20
 204 512 204 512 241.5 527.5 c 128,-1,21
 279 543 279 543 331 543 c 0,0,1
EndSplineSet
EndChar

StartChar: nine
Encoding: 57 57 376
Width: 573
GlyphClass: 1
Flags: W
LayerCount: 2
Fore
SplineSet
511 410 m 0,0,1
 511 299 511 299 489 219.5 c 128,-1,2
 467 140 467 140 425.5 88.5 c 128,-1,3
 384 37 384 37 326 12.5 c 128,-1,4
 268 -12 268 -12 196 -12 c 0,5,6
 169 -12 169 -12 139.5 -9 c 128,-1,7
 110 -6 110 -6 90 0 c 1,8,-1
 90 54 l 1,9,10
 109 48 109 48 136.5 44 c 128,-1,11
 164 40 164 40 194 40 c 0,12,13
 273 40 273 40 330.5 75.5 c 128,-1,14
 388 111 388 111 419.5 186 c 128,-1,15
 451 261 451 261 454 378 c 1,16,-1
 452 378 l 1,17,18
 439 351 439 351 413.5 325.5 c 128,-1,19
 388 300 388 300 348.5 283.5 c 128,-1,20
 309 267 309 267 255 267 c 0,21,22
 158 267 158 267 104 326.5 c 128,-1,23
 50 386 50 386 50 487 c 0,24,25
 50 558 50 558 76 611.5 c 128,-1,26
 102 665 102 665 152 694.5 c 128,-1,27
 202 724 202 724 272 724 c 0,28,29
 335 724 335 724 380 699 c 128,-1,30
 425 674 425 674 454 631 c 128,-1,31
 483 588 483 588 497 531 c 128,-1,32
 511 474 511 474 511 410 c 0,0,1
273 672 m 0,33,34
 194 672 194 672 152.5 623 c 128,-1,35
 111 574 111 574 111 487 c 0,36,37
 111 409 111 409 150.5 363.5 c 128,-1,38
 190 318 190 318 269 318 c 0,39,40
 323 318 323 318 362.5 340.5 c 128,-1,41
 402 363 402 363 423.5 395.5 c 128,-1,42
 445 428 445 428 445 459 c 0,43,44
 445 486 445 486 437.5 522.5 c 128,-1,45
 430 559 430 559 411 593 c 128,-1,46
 392 627 392 627 358.5 649.5 c 128,-1,47
 325 672 325 672 273 672 c 0,33,34
EndSplineSet
EndChar

StartChar: numbersign
Encoding: 35 35 378
Width: 649
GlyphClass: 1
Flags: W
LayerCount: 2
Fore
SplineSet
476 448 m 1,0,-1
 440 265 l 1,1,-1
 586 265 l 1,2,-1
 586 219 l 1,3,-1
 432 219 l 1,4,-1
 390 0 l 1,5,-1
 343 0 l 1,6,-1
 385 219 l 1,7,-1
 211 219 l 1,8,-1
 169 0 l 1,9,-1
 121 0 l 1,10,-1
 163 219 l 1,11,-1
 26 219 l 1,12,-1
 26 265 l 1,13,-1
 172 265 l 1,14,-1
 207 448 l 1,15,-1
 64 448 l 1,16,-1
 64 494 l 1,17,-1
 215 494 l 1,18,-1
 257 714 l 1,19,-1
 305 714 l 1,20,-1
 263 494 l 1,21,-1
 437 494 l 1,22,-1
 479 714 l 1,23,-1
 526 714 l 1,24,-1
 484 494 l 1,25,-1
 624 494 l 1,26,-1
 624 448 l 1,27,-1
 476 448 l 1,0,-1
219 265 m 1,28,-1
 393 265 l 1,29,-1
 428 448 l 1,30,-1
 254 448 l 1,31,-1
 219 265 l 1,28,-1
EndSplineSet
EndChar

StartChar: o
Encoding: 111 111 379
Width: 588
GlyphClass: 2
Flags: W
AnchorPoint: "Anchor-5" 568 533 basechar 0
AnchorPoint: "Anchor-3" 295 533 basechar 0
AnchorPoint: "Anchor-2" 295 267 basechar 0
AnchorPoint: "Anchor-0" 294 0 basechar 0
LayerCount: 2
Fore
SplineSet
532 267 m 0,0,1
 532 207 532 207 517 156 c 128,-1,2
 502 105 502 105 472 68 c 128,-1,3
 442 31 442 31 397.5 10.5 c 128,-1,4
 353 -10 353 -10 293 -10 c 0,5,6
 235 -10 235 -10 191 10 c 128,-1,7
 147 30 147 30 116.5 67 c 128,-1,8
 86 104 86 104 70.5 155 c 128,-1,9
 55 206 55 206 55 267 c 0,10,11
 55 353 55 353 84 415 c 128,-1,12
 113 477 113 477 167.5 510 c 128,-1,13
 222 543 222 543 298 543 c 0,14,15
 378 543 378 543 429.5 507.5 c 128,-1,16
 481 472 481 472 506.5 409.5 c 128,-1,17
 532 347 532 347 532 267 c 0,0,1
118 267 m 0,18,19
 118 200 118 200 137 148 c 128,-1,20
 156 96 156 96 195 68 c 128,-1,21
 234 40 234 40 293 40 c 0,22,23
 355 40 355 40 393.5 68.5 c 128,-1,24
 432 97 432 97 450.5 148.5 c 128,-1,25
 469 200 469 200 469 267 c 0,26,27
 469 331 469 331 452 382.5 c 128,-1,28
 435 434 435 434 397.5 463.5 c 128,-1,29
 360 493 360 493 298 493 c 0,30,31
 210 493 210 493 164 433.5 c 128,-1,32
 118 374 118 374 118 267 c 0,18,19
EndSplineSet
Substitution2: "Single Substitution lookup 9 subtable" ordmasculine
Substitution2: "'aalt' Access All Alternates lookup 0 subtable" ordmasculine
EndChar

StartChar: oe
Encoding: 339 339 383
Width: 970
GlyphClass: 2
Flags: W
AnchorPoint: "Anchor-3" 485 533 basechar 0
AnchorPoint: "Anchor-2" 484 267 basechar 0
AnchorPoint: "Anchor-0" 485 0 basechar 0
LayerCount: 2
Fore
SplineSet
711 543 m 0,0,1
 779 543 779 543 823.5 511 c 128,-1,2
 868 479 868 479 890.5 423.5 c 128,-1,3
 913 368 913 368 913 295 c 2,4,-1
 913 257 l 1,5,-1
 531 257 l 1,6,7
 531 154 531 154 580 96.5 c 128,-1,8
 629 39 629 39 723 39 c 0,9,10
 769 39 769 39 806 46 c 128,-1,11
 843 53 843 53 890 75 c 1,12,-1
 890 25 l 1,13,14
 851 7 851 7 811 -1.5 c 128,-1,15
 771 -10 771 -10 718 -10 c 0,16,17
 630 -10 630 -10 577.5 31.5 c 128,-1,18
 525 73 525 73 503 141 c 1,19,20
 480 74 480 74 428.5 32 c 128,-1,21
 377 -10 377 -10 293 -10 c 0,22,23
 216 -10 216 -10 163 25.5 c 128,-1,24
 110 61 110 61 82.5 123.5 c 128,-1,25
 55 186 55 186 55 267 c 0,26,27
 55 353 55 353 84 415 c 128,-1,28
 113 477 113 477 167.5 510 c 128,-1,29
 222 543 222 543 298 543 c 0,30,31
 383 543 383 543 432.5 500.5 c 128,-1,32
 482 458 482 458 502 390 c 1,33,34
 518 434 518 434 545.5 469 c 128,-1,35
 573 504 573 504 614 523.5 c 128,-1,36
 655 543 655 543 711 543 c 0,0,1
298 493 m 0,37,38
 210 493 210 493 164 433.5 c 128,-1,39
 118 374 118 374 118 267 c 0,40,41
 118 200 118 200 137 148 c 128,-1,42
 156 96 156 96 195 68 c 128,-1,43
 234 40 234 40 293 40 c 0,44,45
 355 40 355 40 393.5 68.5 c 128,-1,46
 432 97 432 97 450.5 148.5 c 128,-1,47
 469 200 469 200 469 267 c 0,48,49
 469 331 469 331 452 382.5 c 128,-1,50
 435 434 435 434 397.5 463.5 c 128,-1,51
 360 493 360 493 298 493 c 0,37,38
708 496 m 0,52,53
 635 496 635 496 587.5 447.5 c 128,-1,54
 540 399 540 399 532 302 c 1,55,-1
 855 302 l 1,56,57
 856 360 856 360 840 403.5 c 128,-1,58
 824 447 824 447 791 471.5 c 128,-1,59
 758 496 758 496 708 496 c 0,52,53
EndSplineSet
EndChar

StartChar: ogonek
Encoding: 731 731 384
Width: 231
GlyphClass: 1
Flags: W
LayerCount: 2
Fore
SplineSet
87 -124 m 0,0,1
 87 -150 87 -150 100.5 -164.5 c 128,-1,2
 114 -179 114 -179 141 -179 c 0,3,4
 154 -179 154 -179 168 -176.5 c 128,-1,5
 182 -174 182 -174 191 -171 c 1,6,-1
 191 -213 l 1,7,8
 181 -216 181 -216 166.5 -219 c 128,-1,9
 152 -222 152 -222 133 -222 c 0,10,11
 94 -222 94 -222 67 -199.5 c 128,-1,12
 40 -177 40 -177 40 -133 c 0,13,14
 40 -98 40 -98 64 -62 c 128,-1,15
 88 -26 88 -26 143 14 c 1,16,-1
 173 0 l 1,17,18
 139 -28 139 -28 113 -58.5 c 128,-1,19
 87 -89 87 -89 87 -124 c 0,0,1
EndSplineSet
EndChar

StartChar: one
Encoding: 49 49 388
Width: 573
GlyphClass: 1
Flags: W
LayerCount: 2
Fore
SplineSet
350 0 m 1,0,-1
 288 0 l 1,1,-1
 288 518 l 2,2,3
 288 543 288 543 288 566 c 128,-1,4
 288 589 288 589 288.5 610 c 128,-1,5
 289 631 289 631 289 647 c 1,6,7
 277 635 277 635 265.5 625.5 c 128,-1,8
 254 616 254 616 237 603 c 2,9,-1
 123 517 l 1,10,-1
 89 560 l 1,11,-1
 295 714 l 1,12,-1
 350 714 l 1,13,-1
 350 0 l 1,0,-1
EndSplineSet
EndChar

StartChar: ordfeminine
Encoding: 170 170 389
Width: 338
GlyphClass: 2
Flags: W
AnchorPoint: "Anchor-3" 168 725 basechar 0
AnchorPoint: "Anchor-2" 162 556 basechar 0
AnchorPoint: "Anchor-0" 161 390 basechar 0
LayerCount: 2
Fore
SplineSet
178 722 m 0,0,1
 232 722 232 722 259.5 694 c 128,-1,2
 287 666 287 666 287 613 c 2,3,-1
 287 393 l 1,4,-1
 252 393 l 1,5,-1
 244 444 l 1,6,7
 231 419 231 419 205.5 404 c 128,-1,8
 180 389 180 389 142 389 c 0,9,10
 111 389 111 389 87 399 c 128,-1,11
 63 409 63 409 50 430.5 c 128,-1,12
 37 452 37 452 37 483 c 0,13,14
 37 517 37 517 54.5 539 c 128,-1,15
 72 561 72 561 107.5 572 c 128,-1,16
 143 583 143 583 196 585 c 2,17,-1
 241 587 l 1,18,-1
 241 612 l 2,19,20
 241 649 241 649 222.5 666 c 128,-1,21
 204 683 204 683 172 683 c 0,22,23
 146 683 146 683 123.5 676.5 c 128,-1,24
 101 670 101 670 76 657 c 1,25,-1
 60 693 l 1,26,27
 86 706 86 706 115 714 c 128,-1,28
 144 722 144 722 178 722 c 0,0,1
196 551 m 2,29,30
 138 548 138 548 111.5 533 c 128,-1,31
 85 518 85 518 85 484 c 0,32,33
 85 456 85 456 102 442 c 128,-1,34
 119 428 119 428 152 428 c 0,35,36
 196 428 196 428 218.5 454 c 128,-1,37
 241 480 241 480 241 524 c 2,38,-1
 241 553 l 1,39,-1
 196 551 l 2,29,30
EndSplineSet
EndChar

StartChar: ordmasculine
Encoding: 186 186 390
Width: 361
GlyphClass: 2
Flags: W
AnchorPoint: "Anchor-3" 184 725 basechar 0
AnchorPoint: "Anchor-2" 181 556 basechar 0
AnchorPoint: "Anchor-0" 181 388 basechar 0
LayerCount: 2
Fore
SplineSet
329 556 m 0,0,1
 329 482 329 482 291.5 434.5 c 128,-1,2
 254 387 254 387 181 387 c 0,3,4
 111 387 111 387 72.5 434.5 c 128,-1,5
 34 482 34 482 34 556 c 0,6,7
 34 634 34 634 74.5 679 c 128,-1,8
 115 724 115 724 184 724 c 0,9,10
 232 724 232 724 264 702 c 128,-1,11
 296 680 296 680 312.5 642 c 128,-1,12
 329 604 329 604 329 556 c 0,0,1
82 556 m 0,13,14
 82 499 82 499 107 463 c 128,-1,15
 132 427 132 427 181 427 c 0,16,17
 233 427 233 427 257 463 c 128,-1,18
 281 499 281 499 281 556 c 0,19,20
 281 609 281 609 258 646.5 c 128,-1,21
 235 684 235 684 183 684 c 0,22,23
 135 684 135 684 108.5 650 c 128,-1,24
 82 616 82 616 82 556 c 0,13,14
EndSplineSet
EndChar

StartChar: oslash
Encoding: 248 248 391
Width: 594
GlyphClass: 2
Flags: W
AnchorPoint: "Anchor-3" 298 533 basechar 0
AnchorPoint: "Anchor-2" 291 265 basechar 0
AnchorPoint: "Anchor-0" 298 0 basechar 0
LayerCount: 2
Fore
SplineSet
538 267 m 0,0,1
 538 187 538 187 511 124 c 128,-1,2
 484 61 484 61 430.5 25.5 c 128,-1,3
 377 -10 377 -10 296 -10 c 0,4,5
 248 -10 248 -10 211.5 4.5 c 128,-1,6
 175 19 175 19 147 44 c 1,7,-1
 87 -33 l 1,8,-1
 54 -10 l 1,9,-1
 117 70 l 1,10,11
 87 107 87 107 71 157 c 128,-1,12
 55 207 55 207 55 267 c 0,13,14
 55 395 55 395 120 469 c 128,-1,15
 185 543 185 543 301 543 c 0,16,17
 346 543 346 543 381.5 530.5 c 128,-1,18
 417 518 417 518 442 496 c 1,19,-1
 496 564 l 1,20,-1
 528 541 l 1,21,-1
 474 472 l 1,22,23
 505 435 505 435 521.5 382.5 c 128,-1,24
 538 330 538 330 538 267 c 0,0,1
116 267 m 0,25,26
 116 222 116 222 124.5 184.5 c 128,-1,27
 133 147 133 147 150 119 c 1,28,-1
 413 455 l 1,29,30
 393 474 393 474 365 485 c 128,-1,31
 337 496 337 496 301 496 c 0,32,33
 210 496 210 496 163 435.5 c 128,-1,34
 116 375 116 375 116 267 c 0,25,26
478 267 m 0,35,36
 478 313 478 313 469 352.5 c 128,-1,37
 460 392 460 392 440 422 c 1,38,-1
 176 85 l 1,39,40
 198 63 198 63 228 50.5 c 128,-1,41
 258 38 258 38 296 38 c 0,42,43
 360 38 360 38 400 67 c 128,-1,44
 440 96 440 96 459 147.5 c 128,-1,45
 478 199 478 199 478 267 c 0,35,36
EndSplineSet
EndChar

StartChar: overscore
Encoding: 175 175 393
Width: 500
GlyphClass: 1
Flags: W
LayerCount: 2
Fore
SplineSet
503 760 m 1,0,-1
 -3 760 l 1,1,-1
 -3 805 l 1,2,-1
 503 805 l 1,3,-1
 503 760 l 1,0,-1
EndSplineSet
EndChar

StartChar: p
Encoding: 112 112 394
Width: 596
GlyphClass: 2
Flags: W
AnchorPoint: "Anchor-5" 576 533 basechar 0
AnchorPoint: "Anchor-3" 300 533 basechar 0
AnchorPoint: "Anchor-2" 313 155 basechar 0
AnchorPoint: "Anchor-0" 117 -234 basechar 0
LayerCount: 2
Fore
SplineSet
332 543 m 0,0,1
 435 543 435 543 488.5 473.5 c 128,-1,2
 542 404 542 404 542 271 c 0,3,4
 542 181 542 181 515.5 118 c 128,-1,5
 489 55 489 55 440 22.5 c 128,-1,6
 391 -10 391 -10 323 -10 c 0,7,8
 274 -10 274 -10 238.5 5.5 c 128,-1,9
 203 21 203 21 180.5 46.5 c 128,-1,10
 158 72 158 72 147 103 c 1,11,-1
 144 103 l 1,12,13
 146 72 146 72 146.5 41.5 c 128,-1,14
 147 11 147 11 147 -20 c 2,15,-1
 147 -234 l 1,16,-1
 86 -234 l 1,17,-1
 86 533 l 1,18,-1
 136 533 l 1,19,-1
 143 419 l 1,20,-1
 147 419 l 1,21,22
 158 451 158 451 182 479.5 c 128,-1,23
 206 508 206 508 243.5 525.5 c 128,-1,24
 281 543 281 543 332 543 c 0,0,1
317 492 m 0,25,26
 261 492 261 492 223 466 c 128,-1,27
 185 440 185 440 166 390.5 c 128,-1,28
 147 341 147 341 147 271 c 2,29,-1
 147 266 l 2,30,31
 147 189 147 189 166.5 140 c 128,-1,32
 186 91 186 91 222 66.5 c 128,-1,33
 258 42 258 42 309 42 c 0,34,35
 363 42 363 42 401 67.5 c 128,-1,36
 439 93 439 93 459 144 c 128,-1,37
 479 195 479 195 479 271 c 0,38,39
 479 384 479 384 438 438 c 128,-1,40
 397 492 397 492 317 492 c 0,25,26
EndSplineSet
EndChar

StartChar: paragraph
Encoding: 182 182 395
Width: 652
GlyphClass: 1
Flags: W
LayerCount: 2
Fore
SplineSet
530 -127 m 1,0,-1
 490 -127 l 1,1,-1
 490 717 l 1,2,-1
 368 717 l 1,3,-1
 368 -127 l 1,4,-1
 328 -127 l 1,5,-1
 328 338 l 1,6,7
 312 334 312 334 296.5 331.5 c 128,-1,8
 281 329 281 329 259 329 c 0,9,10
 202 329 202 329 163.5 355.5 c 128,-1,11
 125 382 125 382 105 431.5 c 128,-1,12
 85 481 85 481 85 547 c 0,13,14
 85 618 85 618 106.5 665 c 128,-1,15
 128 712 128 712 170 736 c 128,-1,16
 212 760 212 760 274 760 c 2,17,-1
 530 760 l 1,18,-1
 530 -127 l 1,0,-1
EndSplineSet
EndChar

StartChar: parenleft
Encoding: 40 40 396
Width: 277
GlyphClass: 1
Flags: W
LayerCount: 2
Fore
SplineSet
41 276 m 0,0,1
 41 364 41 364 57.5 444 c 128,-1,2
 74 524 74 524 106 593.5 c 128,-1,3
 138 663 138 663 184 718 c 1,4,-1
 244 718 l 1,5,6
 169 629 169 629 133.5 515.5 c 128,-1,7
 98 402 98 402 98 277 c 0,8,9
 98 195 98 195 113.5 118 c 128,-1,10
 129 41 129 41 162 -28.5 c 128,-1,11
 195 -98 195 -98 244 -158 c 1,12,-1
 184 -158 l 1,13,14
 138 -101 138 -101 106 -33 c 128,-1,15
 74 35 74 35 57.5 113 c 128,-1,16
 41 191 41 191 41 276 c 0,0,1
EndSplineSet
EndChar

StartChar: parenright
Encoding: 41 41 397
Width: 277
GlyphClass: 1
Flags: W
LayerCount: 2
Fore
SplineSet
237 282 m 0,0,1
 237 196 237 196 220.5 116 c 128,-1,2
 204 36 204 36 172.5 -33.5 c 128,-1,3
 141 -103 141 -103 94 -158 c 1,4,-1
 34 -158 l 1,5,6
 85 -99 85 -99 117 -28 c 128,-1,7
 149 43 149 43 164.5 121 c 128,-1,8
 180 199 180 199 180 282 c 0,9,10
 180 364 180 364 164.5 441 c 128,-1,11
 149 518 149 518 116.5 588.5 c 128,-1,12
 84 659 84 659 34 718 c 1,13,-1
 94 718 l 1,14,15
 141 661 141 661 172.5 593 c 128,-1,16
 204 525 204 525 220.5 447 c 128,-1,17
 237 369 237 369 237 282 c 0,0,1
EndSplineSet
EndChar

StartChar: percent
Encoding: 37 37 398
Width: 826
GlyphClass: 1
Flags: W
LayerCount: 2
Fore
SplineSet
198 724 m 0,0,1
 270 724 270 724 307 666.5 c 128,-1,2
 344 609 344 609 344 501 c 0,3,4
 344 389 344 389 305.5 332.5 c 128,-1,5
 267 276 267 276 196 276 c 0,6,7
 127 276 127 276 88.5 333.5 c 128,-1,8
 50 391 50 391 50 501 c 256,9,10
 50 611 50 611 89.5 667.5 c 128,-1,11
 129 724 129 724 198 724 c 0,0,1
198 679 m 0,12,13
 153 679 153 679 128 634.5 c 128,-1,14
 103 590 103 590 103 501 c 256,15,16
 103 412 103 412 127 366.5 c 128,-1,17
 151 321 151 321 196 321 c 0,18,19
 245 321 245 321 268.5 367.5 c 128,-1,20
 292 414 292 414 292 501 c 0,21,22
 292 587 292 587 269.5 633 c 128,-1,23
 247 679 247 679 198 679 c 0,12,13
637 714 m 1,24,-1
 241 0 l 1,25,-1
 188 0 l 1,26,-1
 584 714 l 1,27,-1
 637 714 l 1,24,-1
629 438 m 0,28,29
 701 438 701 438 738 381 c 128,-1,30
 775 324 775 324 775 215 c 0,31,32
 775 104 775 104 736.5 47 c 128,-1,33
 698 -10 698 -10 627 -10 c 0,34,35
 558 -10 558 -10 519.5 47.5 c 128,-1,36
 481 105 481 105 481 215 c 256,37,38
 481 325 481 325 520.5 381.5 c 128,-1,39
 560 438 560 438 629 438 c 0,28,29
629 393 m 0,40,41
 584 393 584 393 559 348.5 c 128,-1,42
 534 304 534 304 534 215 c 0,43,44
 534 127 534 127 558 81 c 128,-1,45
 582 35 582 35 628 35 c 0,46,47
 676 35 676 35 699.5 81.5 c 128,-1,48
 723 128 723 128 723 215 c 0,49,50
 723 301 723 301 701 347 c 128,-1,51
 679 393 679 393 629 393 c 0,40,41
EndSplineSet
EndChar

StartChar: period
Encoding: 46 46 399
Width: 235
GlyphClass: 1
Flags: W
LayerCount: 2
Fore
SplineSet
76 35 m 0,0,1
 76 56 76 56 86.5 68 c 128,-1,2
 97 80 97 80 118 80 c 0,3,4
 141 80 141 80 150.5 68 c 128,-1,5
 160 56 160 56 160 35 c 0,6,7
 160 15 160 15 150.5 3 c 128,-1,8
 141 -9 141 -9 118 -9 c 0,9,10
 97 -9 97 -9 86.5 3 c 128,-1,11
 76 15 76 15 76 35 c 0,0,1
EndSplineSet
EndChar

StartChar: plus
Encoding: 43 43 401
Width: 573
GlyphClass: 1
Flags: W
LayerCount: 2
Fore
SplineSet
310 376 m 1,0,-1
 520 376 l 1,1,-1
 520 330 l 1,2,-1
 310 330 l 1,3,-1
 310 120 l 1,4,-1
 263 120 l 1,5,-1
 263 330 l 1,6,-1
 53 330 l 1,7,-1
 53 376 l 1,8,-1
 263 376 l 1,9,-1
 263 586 l 1,10,-1
 310 586 l 1,11,-1
 310 376 l 1,0,-1
EndSplineSet
EndChar

StartChar: q
Encoding: 113 113 402
Width: 596
GlyphClass: 2
Flags: W
AnchorPoint: "Anchor-5" 572 533 basechar 0
AnchorPoint: "Anchor-3" 298 533 basechar 0
AnchorPoint: "Anchor-2" 281 155 basechar 0
AnchorPoint: "Anchor-0" 479 -234 basechar 0
LayerCount: 2
Fore
SplineSet
448 0 m 2,0,1
 448 23 448 23 449 55 c 128,-1,2
 450 87 450 87 451 111 c 1,3,-1
 448 111 l 1,4,5
 432 58 432 58 383.5 23.5 c 128,-1,6
 335 -11 335 -11 263 -11 c 0,7,8
 161 -11 161 -11 107 59.5 c 128,-1,9
 53 130 53 130 53 265 c 0,10,11
 53 345 53 345 77 407.5 c 128,-1,12
 101 470 101 470 151 506.5 c 128,-1,13
 201 543 201 543 276 543 c 0,14,15
 344 543 344 543 387 512 c 128,-1,16
 430 481 430 481 448 437 c 1,17,-1
 451 437 l 1,18,-1
 457 533 l 1,19,-1
 509 533 l 1,20,-1
 509 -234 l 1,21,-1
 448 -234 l 1,22,-1
 448 0 l 2,0,1
279 40 m 0,23,24
 340 40 340 40 377.5 66.5 c 128,-1,25
 415 93 415 93 433 143 c 128,-1,26
 451 193 451 193 451 263 c 2,27,-1
 451 276 l 2,28,29
 451 381 451 381 412.5 436.5 c 128,-1,30
 374 492 374 492 291 492 c 0,31,32
 205 492 205 492 160.5 433 c 128,-1,33
 116 374 116 374 116 264 c 0,34,35
 116 152 116 152 156.5 96 c 128,-1,36
 197 40 197 40 279 40 c 0,23,24
EndSplineSet
EndChar

